<svg width="31" height="35" viewBox="0 0 31 35" fill="none" xmlns="http://www.w3.org/2000/svg">
<path d="M28.6812 17.8138C28.1495 18.1173 27.5363 18.4791 26.8825 18.8871C24.8601 20.1489 22.3623 21.9043 20.7114 23.7844C19.1361 25.5782 17.6587 28.2519 16.5951 30.4113C16.2513 31.1092 15.9462 31.763 15.69 32.3297C15.4402 31.7642 15.1425 31.1125 14.8069 30.4171C13.7642 28.2568 12.3103 25.5803 10.7448 23.7867C9.08479 21.8847 6.5595 20.128 4.51448 18.8706C3.86214 18.4694 3.24956 18.1137 2.71643 17.8145C3.2425 17.5586 3.84323 17.2541 4.48154 16.9084C6.53149 15.7982 9.07263 14.2078 10.7329 12.3728C12.4188 10.5095 13.8785 7.64015 14.897 5.32318C15.1975 4.63966 15.4639 3.99399 15.6907 3.42198C15.9234 3.99545 16.1967 4.64336 16.5046 5.32947C17.5441 7.64572 19.0277 10.5122 20.7233 12.375C22.3738 14.1882 24.8874 15.7777 26.915 16.8923C27.5548 17.2441 28.1563 17.5539 28.6812 17.8138Z" fill="#FFF5C2" stroke="black" stroke-width="2"/>
</svg>
