<svg width="156" height="65" viewBox="0 0 156 65" fill="none" xmlns="http://www.w3.org/2000/svg">
<mask id="path-1-inside-1_10_77" fill="white">
<path fill-rule="evenodd" clip-rule="evenodd" d="M120.857 60.0012H1.31021e-09C0.230464 26.824 27.1969 0 60.4284 0C93.6599 0 120.626 26.824 120.857 60.0012Z"/>
</mask>
<path fill-rule="evenodd" clip-rule="evenodd" d="M120.857 60.0012H1.31021e-09C0.230464 26.824 27.1969 0 60.4284 0C93.6599 0 120.626 26.824 120.857 60.0012Z" fill="#FF9B52"/>
<path d="M0 60.0012L-1.99995 59.9873L-2.01394 62.0012H0V60.0012ZM120.857 60.0012V62.0012H122.871L122.857 59.9873L120.857 60.0012ZM0 62.0012H120.857V58.0012H0V62.0012ZM1.99995 60.0151C2.22279 27.9363 28.2968 2 60.4284 2V-2C26.097 -2 -1.76186 25.7118 -1.99995 59.9873L1.99995 60.0151ZM60.4284 2C92.5599 2 118.634 27.9363 118.857 60.0151L122.857 59.9873C122.619 25.7118 94.7598 -2 60.4284 -2V2Z" fill="black" mask="url(#path-1-inside-1_10_77)"/>
<mask id="path-3-inside-2_10_77" fill="white">
<path fill-rule="evenodd" clip-rule="evenodd" d="M107.999 60.0991H14.5698C14.748 34.4513 35.5945 13.7148 61.2843 13.7148C86.974 13.7148 107.821 34.4513 107.999 60.0991Z"/>
</mask>
<path fill-rule="evenodd" clip-rule="evenodd" d="M107.999 60.0991H14.5698C14.748 34.4513 35.5945 13.7148 61.2843 13.7148C86.974 13.7148 107.821 34.4513 107.999 60.0991Z" fill="#C76BFF"/>
<path d="M14.5698 60.0991L12.5699 60.0852L12.5559 62.0991H14.5698V60.0991ZM107.999 60.0991V62.0991H110.013L109.999 60.0852L107.999 60.0991ZM14.5698 62.0991H107.999V58.0991H14.5698V62.0991ZM16.5698 60.113C16.7403 35.5635 36.6944 15.7148 61.2843 15.7148V11.7148C34.4946 11.7148 12.7557 33.339 12.5699 60.0852L16.5698 60.113ZM61.2843 15.7148C85.8741 15.7148 105.828 35.5635 105.999 60.113L109.999 60.0852C109.813 33.339 88.0739 11.7148 61.2843 11.7148V15.7148Z" fill="black" mask="url(#path-3-inside-2_10_77)"/>
<mask id="path-5-inside-3_10_77" fill="white">
<path fill-rule="evenodd" clip-rule="evenodd" d="M96.8577 60.1781H25.7134C25.8491 40.6478 41.7233 24.8574 61.2856 24.8574C80.8478 24.8574 96.7221 40.6478 96.8577 60.1781Z"/>
</mask>
<path fill-rule="evenodd" clip-rule="evenodd" d="M96.8577 60.1781H25.7134C25.8491 40.6478 41.7233 24.8574 61.2856 24.8574C80.8478 24.8574 96.7221 40.6478 96.8577 60.1781Z" fill="#41BC64"/>
<path d="M25.7134 60.1781L23.7134 60.1642L23.6994 62.1781H25.7134V60.1781ZM96.8577 60.1781V62.1781H98.8717L98.8577 60.1642L96.8577 60.1781ZM25.7134 62.1781H96.8577V58.1781H25.7134V62.1781ZM27.7133 60.192C27.8414 41.7601 42.8232 26.8574 61.2856 26.8574V22.8574C40.6234 22.8574 23.8567 39.5356 23.7134 60.1642L27.7133 60.192ZM61.2856 26.8574C79.7479 26.8574 94.7297 41.7601 94.8578 60.192L98.8577 60.1642C98.7144 39.5356 81.9478 22.8574 61.2856 22.8574V26.8574Z" fill="black" mask="url(#path-5-inside-3_10_77)"/>
<mask id="path-7-inside-4_10_77" fill="white">
<path fill-rule="evenodd" clip-rule="evenodd" d="M37.7134 59.8371H84.0001C83.9118 47.1307 73.584 36.8574 60.8567 36.8574C48.1295 36.8574 37.8017 47.1307 37.7134 59.8371Z"/>
</mask>
<path fill-rule="evenodd" clip-rule="evenodd" d="M37.7134 59.8371H84.0001C83.9118 47.1307 73.584 36.8574 60.8567 36.8574C48.1295 36.8574 37.8017 47.1307 37.7134 59.8371Z" fill="#FFC553"/>
<path d="M37.7134 59.8371L35.7134 59.8232L35.6994 61.8371H37.7134V59.8371ZM84.0001 59.8371V61.8371H86.014L86 59.8232L84.0001 59.8371ZM37.7134 61.8371H84.0001V57.8371H37.7134V61.8371ZM60.8567 38.8574C72.4841 38.8574 81.9195 48.2429 82.0001 59.851L86 59.8232C85.9041 46.0184 74.6839 34.8574 60.8567 34.8574V38.8574ZM39.7133 59.851C39.794 48.2429 49.2294 38.8574 60.8567 38.8574V34.8574C47.0296 34.8574 35.8094 46.0184 35.7134 59.8232L39.7133 59.851Z" fill="black" mask="url(#path-7-inside-4_10_77)"/>
<path d="M140.51 50.2959L140.51 50.2965L140.51 50.2965L140.51 50.2968L140.157 52.2006L141.911 51.3873L141.911 51.3871L141.913 51.3866L141.913 51.3862L141.914 51.3858L141.917 51.3846C141.924 51.3815 141.937 51.3757 141.956 51.3677C141.995 51.3517 142.056 51.3268 142.139 51.296C142.306 51.2344 142.557 51.1497 142.879 51.066C143.524 50.8982 144.437 50.7372 145.505 50.7668C147.606 50.8249 150.372 51.6189 152.921 54.7412C155.321 57.6827 155.208 59.8076 154.705 61.1272C154.438 61.8283 154.034 62.3745 153.689 62.7483C153.556 62.8933 153.434 63.0096 153.336 63.096L62.738 63.9944C62.6724 63.8718 62.5991 63.7232 62.525 63.5507C62.274 62.9673 62.0174 62.1229 62.0008 61.089C61.9686 59.0774 62.8441 56.1026 67.0718 52.7772C67.6805 52.2984 68.563 52.0126 69.6489 51.902C70.7242 51.7925 71.9091 51.8638 73.0332 52.0183C74.1522 52.1721 75.1788 52.4037 75.9276 52.5978C76.301 52.6946 76.6029 52.7815 76.8097 52.8436C76.913 52.8746 76.9924 52.8994 77.045 52.9161L77.1033 52.9348L77.1167 52.9392L77.1191 52.9399L77.1192 52.94L77.1194 52.94L77.1195 52.9401L78.913 53.5374L78.3976 51.7202L78.3975 51.7197L78.3973 51.7191L78.3972 51.7187L78.3971 51.7183L78.3936 51.7055C78.3901 51.6922 78.3843 51.6702 78.3768 51.6398C78.3616 51.5791 78.3394 51.4853 78.3134 51.3624C78.2615 51.1161 78.1953 50.7546 78.142 50.3082C78.0351 49.4114 77.9836 48.195 78.1935 46.8942C78.6057 44.339 80.0153 41.438 84.1827 39.9225C88.4554 38.3686 92.1478 39.1404 94.7992 40.313C96.1284 40.9009 97.1896 41.5876 97.9162 42.1259C98.2789 42.3945 98.5562 42.6247 98.7398 42.7847C98.8316 42.8647 98.8998 42.9269 98.9433 42.9676C98.9651 42.9879 98.9807 43.0028 98.99 43.0117L98.9989 43.0203L98.9992 43.0207L98.9994 43.0209L98.9999 43.0213L99.0002 43.0217L100.207 44.2185L100.666 42.5811L100.666 42.581L100.666 42.5806L100.666 42.58L100.666 42.5783L100.671 42.5614C100.676 42.5452 100.684 42.5191 100.695 42.4839C100.717 42.4134 100.751 42.3064 100.798 42.1683C100.893 41.8919 101.041 41.4922 101.247 41.012C101.66 40.0485 102.301 38.7777 103.216 37.5324C105.045 35.0431 107.881 32.7493 112.146 33.0223C116.485 33.3 119.133 35.6409 120.728 37.9608C121.529 39.1268 122.057 40.28 122.385 41.143C122.548 41.5732 122.66 41.9277 122.73 42.1708C122.765 42.2923 122.79 42.3856 122.805 42.4463C122.813 42.4767 122.818 42.4988 122.822 42.5123L122.825 42.5257L122.825 42.5258L122.825 42.5264L122.825 42.527L122.825 42.5274L123.415 45.2009L124.686 42.7765L124.686 42.7759L124.686 42.7757L124.687 42.7754L124.687 42.7746L124.691 42.7663C124.694 42.7625 124.696 42.7576 124.699 42.7516C124.704 42.7426 124.711 42.7312 124.719 42.7175C124.744 42.6721 124.785 42.6019 124.84 42.5111C124.952 42.3292 125.122 42.0656 125.351 41.7529C125.812 41.1251 126.499 40.313 127.41 39.5665C129.213 38.0876 131.863 36.8758 135.44 37.8309C138.826 38.7353 140.145 41.6225 140.58 44.6101C140.796 46.0872 140.779 47.5148 140.706 48.5807C140.669 49.1114 140.619 49.5469 140.579 49.847C140.559 49.9969 140.541 50.1127 140.529 50.1892C140.526 50.202 140.525 50.2137 140.523 50.2243C140.519 50.2454 140.516 50.262 140.514 50.274L140.511 50.293L140.51 50.2959ZM62.9845 64.4018C62.9847 64.4021 62.9838 64.401 62.982 64.3985L62.9822 64.3988L62.9834 64.4004L62.9845 64.4018Z" fill="white" stroke="black" stroke-width="2"/>
</svg>
