<svg width="43" height="48" viewBox="0 0 43 48" fill="none" xmlns="http://www.w3.org/2000/svg">
<path d="M1.82543 46.9879C2.1596 46.9851 2.57711 46.9794 3.06385 46.9682C4.40839 46.9373 6.27777 46.8648 8.37575 46.6986C12.6032 46.3638 17.6419 45.6567 21.2056 44.2033L21.3736 44.1348C26.4835 42.0511 29.5111 40.8166 32.8817 36.8258C35.3581 33.8937 36.1114 31.4403 37.1439 28.0776C37.4313 27.1417 37.7403 26.1353 38.114 25.0286C39.6317 20.535 40.5697 14.4171 41.1265 9.37066C41.4038 6.85801 41.5846 4.63043 41.696 3.03137C41.7294 2.55253 41.7565 2.13026 41.7782 1.77379C41.4448 1.84928 41.0528 1.93947 40.6105 2.0437C39.0877 2.40248 36.9705 2.92706 34.5939 3.58982C29.8202 4.92107 24.0763 6.78928 19.9889 8.96385C19.1469 9.41182 18.3675 9.81065 17.6359 10.185C14.344 11.8695 12.0202 13.0586 9.317 16.0001C5.74691 19.8849 4.63665 22.888 2.99578 28.1589C1.89097 31.7078 1.60302 36.61 1.60604 40.7016C1.60753 42.732 1.68031 44.5346 1.75273 45.8293C1.77806 46.282 1.80332 46.6723 1.82543 46.9879Z" fill="#51976D" stroke="black" stroke-width="2"/>
</svg>
