<svg width="157" height="71" viewBox="0 0 157 71" fill="none" xmlns="http://www.w3.org/2000/svg">
<mask id="path-1-inside-1_10_83" fill="white">
<path fill-rule="evenodd" clip-rule="evenodd" d="M157 60.3113H36.1436C36.374 27.1341 63.3404 0.310059 96.5719 0.310059C129.803 0.310059 156.77 27.1341 157 60.3113Z"/>
</mask>
<path fill-rule="evenodd" clip-rule="evenodd" d="M157 60.3113H36.1436C36.374 27.1341 63.3404 0.310059 96.5719 0.310059C129.803 0.310059 156.77 27.1341 157 60.3113Z" fill="#FF9B52"/>
<path d="M36.1436 60.3113L34.1436 60.2974L34.1296 62.3113H36.1436V60.3113ZM157 60.3113V62.3113H159.014L159 60.2974L157 60.3113ZM36.1436 62.3113H157V58.3113H36.1436V62.3113ZM38.1435 60.3252C38.3663 28.2463 64.4403 2.31006 96.5719 2.31006V-1.68994C62.2405 -1.68994 34.3817 26.0218 34.1436 60.2974L38.1435 60.3252ZM96.5719 2.31006C128.703 2.31006 154.777 28.2463 155 60.3252L159 60.2974C158.762 26.0218 130.903 -1.68994 96.5719 -1.68994V2.31006Z" fill="black" mask="url(#path-1-inside-1_10_83)"/>
<mask id="path-3-inside-2_10_83" fill="white">
<path fill-rule="evenodd" clip-rule="evenodd" d="M144.142 60.4091H50.7134C50.8915 34.7613 71.738 14.0249 97.4278 14.0249C123.118 14.0249 143.964 34.7613 144.142 60.4091Z"/>
</mask>
<path fill-rule="evenodd" clip-rule="evenodd" d="M144.142 60.4091H50.7134C50.8915 34.7613 71.738 14.0249 97.4278 14.0249C123.118 14.0249 143.964 34.7613 144.142 60.4091Z" fill="#C76BFF"/>
<path d="M50.7134 60.4091L48.7134 60.3952L48.6994 62.4091H50.7134V60.4091ZM144.142 60.4091V62.4091H146.156L146.142 60.3952L144.142 60.4091ZM50.7134 62.4091H144.142V58.4091H50.7134V62.4091ZM52.7133 60.423C52.8839 35.8736 72.838 16.0249 97.4278 16.0249V12.0249C70.6381 12.0249 48.8992 33.6491 48.7134 60.3952L52.7133 60.423ZM97.4278 16.0249C122.018 16.0249 141.972 35.8736 142.142 60.423L146.142 60.3952C145.956 33.6491 124.217 12.0249 97.4278 12.0249V16.0249Z" fill="black" mask="url(#path-3-inside-2_10_83)"/>
<mask id="path-5-inside-3_10_83" fill="white">
<path fill-rule="evenodd" clip-rule="evenodd" d="M133.001 60.4882H61.8569C61.9926 40.9579 77.8668 25.1675 97.4291 25.1675C116.991 25.1675 132.866 40.9579 133.001 60.4882Z"/>
</mask>
<path fill-rule="evenodd" clip-rule="evenodd" d="M133.001 60.4882H61.8569C61.9926 40.9579 77.8668 25.1675 97.4291 25.1675C116.991 25.1675 132.866 40.9579 133.001 60.4882Z" fill="#41BC64"/>
<path d="M61.8569 60.4882L59.857 60.4743L59.843 62.4882H61.8569V60.4882ZM133.001 60.4882V62.4882H135.015L135.001 60.4743L133.001 60.4882ZM61.8569 62.4882H133.001V58.4882H61.8569V62.4882ZM63.8569 60.5021C63.9849 42.0701 78.9668 27.1675 97.4291 27.1675V23.1675C76.7669 23.1675 60.0003 39.8456 59.857 60.4743L63.8569 60.5021ZM97.4291 27.1675C115.891 27.1675 130.873 42.0701 131.001 60.5021L135.001 60.4743C134.858 39.8456 118.091 23.1675 97.4291 23.1675V27.1675Z" fill="black" mask="url(#path-5-inside-3_10_83)"/>
<mask id="path-7-inside-4_10_83" fill="white">
<path fill-rule="evenodd" clip-rule="evenodd" d="M73.8569 60.1472H120.144C120.055 47.4407 109.728 37.1675 97.0003 37.1675C84.273 37.1675 73.9452 47.4407 73.8569 60.1472Z"/>
</mask>
<path fill-rule="evenodd" clip-rule="evenodd" d="M73.8569 60.1472H120.144C120.055 47.4407 109.728 37.1675 97.0003 37.1675C84.273 37.1675 73.9452 47.4407 73.8569 60.1472Z" fill="#FFC553"/>
<path d="M73.8569 60.1472L71.857 60.1333L71.843 62.1472H73.8569V60.1472ZM120.144 60.1472V62.1472H122.158L122.144 60.1333L120.144 60.1472ZM73.8569 62.1472H120.144V58.1472H73.8569V62.1472ZM97.0003 39.1675C108.628 39.1675 118.063 48.553 118.144 60.1611L122.144 60.1333C122.048 46.3285 110.827 35.1675 97.0003 35.1675V39.1675ZM75.8569 60.1611C75.9375 48.553 85.3729 39.1675 97.0003 39.1675V35.1675C83.1731 35.1675 71.9529 46.3285 71.857 60.1333L75.8569 60.1611Z" fill="black" mask="url(#path-7-inside-4_10_83)"/>
<path d="M80.5105 55.606L80.5104 55.6065L80.5104 55.6066L80.5103 55.6068L80.2165 57.1889L81.7638 56.7514L81.7644 56.7512L81.7645 56.7512L81.765 56.7511L81.7657 56.7509L81.7739 56.7487C81.7836 56.7461 81.8002 56.7417 81.8234 56.7359C81.8698 56.7242 81.9423 56.7067 82.0386 56.6857C82.2313 56.6436 82.518 56.5878 82.8789 56.5372C83.6028 56.4356 84.6137 56.3561 85.7574 56.4436C88.0421 56.6185 90.7978 57.4505 92.9206 60.0513C94.5293 62.0222 94.5463 64.1621 94.1257 65.8925C93.9147 66.761 93.5961 67.5064 93.3286 68.0358C93.2573 68.1769 93.1902 68.3016 93.1304 68.4081L2.81141 69.3038C2.74147 69.1406 2.66204 68.9427 2.5803 68.7145C2.3198 67.9873 2.04204 66.9703 1.96435 65.804C1.81161 63.5106 2.4208 60.6023 5.61826 58.0872C6.14637 57.6718 7.06364 57.394 8.31372 57.2867C9.53185 57.1821 10.9195 57.2505 12.2508 57.3967C13.5763 57.5422 14.8141 57.7612 15.7227 57.9445C16.1761 58.036 16.5454 58.1182 16.8 58.1772C16.9273 58.2066 17.0258 58.2303 17.0918 58.2464L17.1657 58.2646L17.1834 58.2691L17.1873 58.2701L17.1878 58.2702L17.1879 58.2702L17.188 58.2702L18.8711 58.6998L18.3977 57.0303L18.3975 57.0298L18.3974 57.0292L18.3972 57.0287L18.3971 57.0284L18.3937 57.0155C18.3921 57.0096 18.3901 57.002 18.3877 56.9927C18.3846 56.9811 18.381 56.9668 18.3768 56.9499C18.3617 56.8892 18.3394 56.7954 18.3135 56.6724C18.2615 56.4262 18.1953 56.0646 18.1421 55.6183C18.0351 54.7215 17.9837 53.5051 18.1935 52.2043C18.6058 49.6491 20.0153 46.7481 24.1827 45.2325C28.4554 43.6787 32.1478 44.4504 34.7992 45.6231C36.1285 46.211 37.1896 46.8977 37.9163 47.436C38.2789 47.7046 38.5562 47.9347 38.7398 48.0948C38.8316 48.1747 38.8998 48.237 38.9433 48.2776C38.9651 48.298 38.9807 48.3128 38.99 48.3218L38.9989 48.3304L38.9992 48.3307L38.9994 48.3309L38.9999 48.3313L39.0003 48.3317L40.2071 49.5286L40.6657 47.8912L40.6657 47.8911L40.6658 47.8907L40.666 47.89L40.6665 47.8884L40.6714 47.8715C40.6762 47.8552 40.684 47.8292 40.6949 47.7939C40.7167 47.7234 40.7509 47.6165 40.7984 47.4784C40.8933 47.202 41.0406 46.8023 41.2465 46.3221C41.6597 45.3585 42.3013 44.0878 43.2162 42.8424C45.0449 40.3531 47.8809 38.0594 52.1458 38.3323C56.4855 38.6101 59.1327 40.951 60.7276 43.2709C61.5291 44.4368 62.0575 45.5901 62.3849 46.453C62.5482 46.8832 62.6601 47.2378 62.7304 47.4809C62.7655 47.6023 62.7901 47.6957 62.8054 47.7564C62.8131 47.7867 62.8185 47.8089 62.8216 47.8223L62.8247 47.8357L62.8248 47.8358L62.8249 47.8365L62.825 47.837L62.8251 47.8375L63.4148 50.5109L64.6859 48.0866L64.6863 48.086L64.6864 48.0858L64.6865 48.0854L64.6869 48.0847L64.6914 48.0764C64.6967 48.0667 64.7058 48.0502 64.7186 48.0275C64.7442 47.9822 64.7848 47.912 64.8403 47.8211C64.9515 47.6393 65.1219 47.3757 65.3512 47.063C65.8116 46.4352 66.4993 45.6231 67.4096 44.8766C69.2129 43.3977 71.8632 42.1858 75.4399 43.141C78.8265 44.0453 80.1448 46.9326 80.5803 49.9202C80.7957 51.3972 80.7789 52.8249 80.7057 53.8908C80.6693 54.4215 80.6193 54.8569 80.5789 55.157C80.5587 55.3069 80.5409 55.4227 80.5285 55.4993C80.5223 55.5376 80.5175 55.566 80.5144 55.584L80.511 55.6031L80.5105 55.606Z" fill="white" stroke="black" stroke-width="2"/>
</svg>
