<svg width="38" height="38" viewBox="0 0 38 38" fill="none" xmlns="http://www.w3.org/2000/svg">
<path d="M17.8099 5.65515C18.2309 4.79591 18.5965 3.99185 18.8962 3.30375C19.2035 3.99299 19.5784 4.79916 20.0095 5.66094C21.2657 8.17233 23.0515 11.2651 25.0847 13.2692C27.0638 15.2199 30.0865 16.9366 32.5367 18.1451C33.4225 18.582 34.2473 18.9591 34.9418 19.2635C34.2419 19.6181 33.4049 20.0573 32.504 20.5616C30.0598 21.9299 27.0539 23.8268 25.0721 25.8516C23.1812 27.7836 21.4018 30.6707 20.1164 33.0122C19.6423 33.8757 19.2291 34.6768 18.8955 35.3461C18.5698 34.6776 18.1666 33.8785 17.7034 33.0174C16.4433 30.675 14.6925 27.7852 12.8136 25.8538C10.8212 23.8058 7.78257 21.9077 5.31109 20.5442C4.41021 20.0472 3.57209 19.6144 2.86859 19.2642C3.56635 18.9639 4.39213 18.5926 5.27779 18.1622C7.75502 16.9585 10.8105 15.2409 12.8009 13.267C14.8222 11.2627 16.5791 8.1673 17.8099 5.65515Z" fill="#FFF5C2" stroke="black" stroke-width="2"/>
</svg>
