<svg width="95" height="33" viewBox="0 0 95 33" fill="none" xmlns="http://www.w3.org/2000/svg">
<path d="M2.14544 32.4028C2.14516 32.4024 2.14438 32.4013 2.14312 32.3995L2.14333 32.3999L2.14446 32.4014L2.14544 32.4028ZM2.14544 32.4028C2.14557 32.4029 2.1456 32.403 2.14554 32.4029L2.14544 32.4028ZM79.4503 18.2964L79.4502 18.297L79.4502 18.297L79.4502 18.2972L79.0973 20.2025L80.8518 19.3869L80.8523 19.3867L80.8534 19.3861L80.8542 19.3858L80.8552 19.3853L80.8578 19.3842C80.8649 19.3811 80.8781 19.3753 80.8971 19.3673C80.9352 19.3514 80.9966 19.3265 81.0795 19.2957C81.2454 19.2341 81.496 19.1495 81.8163 19.0659C82.4589 18.8981 83.3697 18.7373 84.4333 18.7668C86.5268 18.8249 89.2847 19.6181 91.8258 22.7401C94.22 25.6817 94.1074 27.8073 93.6057 29.1281C93.3393 29.8294 92.9357 30.3756 92.5923 30.7493C92.4595 30.8938 92.3383 31.0097 92.2416 31.096L1.89914 31.9944C1.83388 31.8719 1.76103 31.7237 1.68726 31.5517C1.43695 30.9681 1.18095 30.1234 1.16442 29.089C1.13226 27.0762 2.00591 24.1013 6.22131 20.7763C6.82768 20.298 7.70676 20.0125 8.78901 19.902C9.86075 19.7925 11.0419 19.8638 12.1626 20.0182C13.2782 20.172 14.3017 20.4036 15.0484 20.5977C15.4207 20.6945 15.7216 20.7813 15.9278 20.8433C16.0308 20.8744 16.11 20.8991 16.1624 20.9158L16.2205 20.9345L16.2338 20.9389L16.2362 20.9397L16.2364 20.9397L16.2365 20.9398L16.2366 20.9398L18.0299 21.5388L17.5158 19.7209L17.5156 19.7204L17.5155 19.7198L17.5153 19.7194L17.5152 19.719L17.5118 19.7061C17.5105 19.7015 17.509 19.6958 17.5073 19.6891C17.504 19.6765 17.4998 19.6602 17.4949 19.6405C17.4798 19.5797 17.4576 19.4859 17.4318 19.3629C17.38 19.1166 17.3139 18.755 17.2608 18.3086C17.1542 17.4116 17.1028 16.1949 17.3121 14.8938C17.7234 12.3373 19.1296 9.43706 23.2837 7.92215C27.5429 6.36889 31.2235 7.1403 33.8668 8.31261C35.192 8.90033 36.25 9.58691 36.9745 10.1251C37.3361 10.3937 37.6126 10.6238 37.7957 10.7838C37.8872 10.8637 37.9552 10.926 37.9986 10.9666C38.0203 10.9869 38.0359 11.0018 38.0451 11.0108L38.0539 11.0193L38.0543 11.0197L38.0545 11.0199L38.0549 11.0203L38.0553 11.0207L39.2634 12.2222L39.7219 10.5804L39.722 10.5803L39.7221 10.5799L39.7222 10.5793L39.7227 10.5776L39.7276 10.5607C39.7324 10.5444 39.7402 10.5184 39.7511 10.4831C39.7728 10.4126 39.807 10.3056 39.8543 10.1675C39.949 9.89108 40.0959 9.49135 40.3012 9.01112C40.7133 8.04745 41.3532 6.77668 42.2655 5.5313C44.0894 3.04166 46.9166 0.749462 51.167 1.02227C55.4924 1.29989 58.1315 3.63958 59.7222 5.95973C60.5216 7.12573 61.0485 8.27904 61.375 9.1421C61.5378 9.57236 61.6495 9.92694 61.7196 10.1701C61.7546 10.2916 61.7792 10.3849 61.7945 10.4457C61.8021 10.476 61.8074 10.4982 61.8106 10.5117L61.8137 10.5251L61.8137 10.5252L61.8139 10.5259L61.814 10.5264L61.8141 10.5269L62.4038 13.2078L63.6756 10.7755L63.6759 10.7749L63.676 10.7747L63.6762 10.7744L63.6766 10.7736L63.6811 10.7653C63.6864 10.7556 63.6954 10.7391 63.7081 10.7164C63.7337 10.6711 63.7742 10.6009 63.8296 10.51C63.9405 10.3281 64.1104 10.0645 64.3391 9.75187C64.7982 9.12404 65.4839 8.31205 66.3915 7.56567C68.1894 6.08706 70.8307 4.87621 74.3953 5.83074C77.7702 6.7345 79.0855 9.62064 79.52 12.6097C79.7348 14.087 79.7181 15.5149 79.6451 16.5809C79.6087 17.1117 79.5589 17.5472 79.5186 17.8473C79.4984 17.9973 79.4807 18.1131 79.4684 18.1897C79.4622 18.228 79.4574 18.2564 79.4542 18.2744L79.4509 18.2935L79.4503 18.2964Z" fill="white" stroke="black" stroke-width="2"/>
</svg>
