<svg width="152" height="55" viewBox="0 0 152 55" fill="none" xmlns="http://www.w3.org/2000/svg">
<path d="M25.3614 40.6598L27.1704 39.9326C27.1732 39.9322 27.1733 39.9322 27.1733 39.9323L27.1732 39.9317L27.1731 39.9315L27.172 39.9245L27.1661 39.8884C27.1608 39.8548 27.1528 39.8024 27.1429 39.7322C27.1231 39.5917 27.096 39.3803 27.0683 39.1067C27.0128 38.5591 26.9549 37.7642 26.9482 36.7911C26.9347 34.8411 27.127 32.1974 27.9413 29.4031C29.5551 23.865 33.6182 17.6734 43.6325 15.1005C49.7186 13.5368 54.8768 14.8117 58.5323 16.4883C60.3615 17.3274 61.8081 18.2646 62.7943 18.9896C63.2868 19.3517 63.6629 19.6596 63.9129 19.8741C64.0378 19.9814 64.1311 20.0651 64.1914 20.1204C64.2216 20.1481 64.2436 20.1686 64.2571 20.1814L64.2711 20.1948L64.2724 20.196L64.273 20.1965L64.2733 20.1969L64.2734 20.1969L66.1906 22.0617L65.9663 19.3968L65.9663 19.3965L65.9662 19.3962L65.9662 19.3953L65.9658 19.3907L65.9636 19.3588C65.9617 19.3286 65.9589 19.2808 65.9561 19.2166C65.9504 19.0882 65.9447 18.8944 65.9453 18.6445C65.9465 18.1443 65.9729 17.4221 66.0752 16.5524C66.2803 14.8084 66.7874 12.4994 67.9849 10.2019C69.1777 7.91348 71.0585 5.62906 74.0364 3.90974C77.0183 2.18811 81.1578 1.00006 86.9154 1C91.8773 0.999951 95.5318 2.176 98.2359 3.88838C100.944 5.60319 102.757 7.89284 103.974 10.2053C105.194 12.5227 105.808 14.8513 106.117 16.6083C106.271 17.4846 106.347 18.2125 106.385 18.7171C106.404 18.9693 106.413 19.1652 106.418 19.2955C106.42 19.3606 106.421 19.4092 106.422 19.4403L106.422 19.4734L106.422 19.4792V19.4798L106.422 19.48V19.4803L106.422 21.5013L108.028 20.2745L108.028 20.2744L108.029 20.2743L108.029 20.2739L108.032 20.2716L108.053 20.2564C108.072 20.2421 108.103 20.2196 108.144 20.1898C108.227 20.1301 108.354 20.0412 108.522 19.9297C108.857 19.7066 109.353 19.394 109.985 19.0452C111.251 18.3463 113.047 17.5105 115.17 16.9548C119.396 15.8487 124.883 15.8525 130.167 20.248C134.284 23.6724 135.201 27.8294 135.095 31.1751C135.041 32.8578 134.727 34.33 134.425 35.382C134.275 35.9067 134.129 36.3232 134.022 36.6048C133.968 36.7455 133.924 36.8522 133.895 36.9216C133.881 36.9562 133.87 36.9815 133.863 36.9971L133.856 37.013L133.855 37.0138L133.855 37.0146L133.855 37.015L133.855 37.0153L132.995 38.8902L135 38.4024L135 38.4023L135 38.4023L135.001 38.4022L135.004 38.4015L135.021 38.3974C135.037 38.3936 135.063 38.3877 135.097 38.38C135.166 38.3646 135.27 38.3421 135.404 38.3149C135.674 38.2605 136.067 38.1874 136.55 38.1148C137.52 37.9693 138.842 37.8283 140.262 37.8409C143.188 37.8667 146.14 38.5386 147.612 40.6722C150.322 44.5995 150.99 48.1233 151 50.6363C151.005 51.8981 150.844 52.9132 150.686 53.6042C150.653 53.7512 150.619 53.8834 150.587 54H1.08694C1.05927 53.7228 1.03275 53.3822 1.01643 52.9896C0.96833 51.8322 1.00948 50.2369 1.36312 48.4832C2.06736 44.9911 3.99754 40.9017 8.94906 38.3171C14.5635 35.3864 18.6548 36.0636 21.3182 37.36C22.6741 38.0201 23.6949 38.8586 24.3759 39.5324C24.7156 39.8685 24.9679 40.1608 25.1323 40.3647C25.2144 40.4666 25.2744 40.546 25.312 40.5974C25.3308 40.6231 25.344 40.6418 25.3516 40.6527L25.3577 40.6613L25.3583 40.6622C25.3582 40.6621 25.3582 40.662 25.3614 40.6598Z" fill="white" stroke="black" stroke-width="2"/>
</svg>
