<svg width="156" height="70" viewBox="0 0 156 70" fill="none" xmlns="http://www.w3.org/2000/svg">
<mask id="path-1-inside-1_15_34" fill="white">
<path fill-rule="evenodd" clip-rule="evenodd" d="M-3.8147e-05 60.0012H120.857C120.626 26.824 93.6598 0 60.4283 0C27.1968 0 0.230423 26.824 -3.8147e-05 60.0012Z"/>
</mask>
<path fill-rule="evenodd" clip-rule="evenodd" d="M-3.8147e-05 60.0012H120.857C120.626 26.824 93.6598 0 60.4283 0C27.1968 0 0.230423 26.824 -3.8147e-05 60.0012Z" fill="#FF9B52"/>
<path d="M120.857 60.0012L122.857 59.9873L122.871 62.0012H120.857V60.0012ZM-3.8147e-05 60.0012V62.0012H-2.01398L-1.99999 59.9873L-3.8147e-05 60.0012ZM120.857 62.0012H-3.8147e-05V58.0012H120.857V62.0012ZM118.857 60.0151C118.634 27.9363 92.5599 2 60.4283 2V-2C94.7597 -2 122.619 25.7118 122.857 59.9873L118.857 60.0151ZM60.4283 2C28.2967 2 2.22275 27.9363 1.99992 60.0151L-1.99999 59.9873C-1.7619 25.7118 26.0969 -2 60.4283 -2V2Z" fill="black" mask="url(#path-1-inside-1_15_34)"/>
<mask id="path-3-inside-2_15_34" fill="white">
<path fill-rule="evenodd" clip-rule="evenodd" d="M12.858 60.0991H106.287C106.109 34.4513 85.2622 13.7148 59.5724 13.7148C33.8827 13.7148 13.0362 34.4513 12.858 60.0991Z"/>
</mask>
<path fill-rule="evenodd" clip-rule="evenodd" d="M12.858 60.0991H106.287C106.109 34.4513 85.2622 13.7148 59.5724 13.7148C33.8827 13.7148 13.0362 34.4513 12.858 60.0991Z" fill="#C76BFF"/>
<path d="M106.287 60.0991L108.287 60.0852L108.301 62.0991H106.287V60.0991ZM12.858 60.0991V62.0991H10.8441L10.8581 60.0852L12.858 60.0991ZM106.287 62.0991H12.858V58.0991H106.287V62.0991ZM104.287 60.113C104.116 35.5635 84.1623 15.7148 59.5724 15.7148V11.7148C86.3621 11.7148 108.101 33.339 108.287 60.0852L104.287 60.113ZM59.5724 15.7148C34.9826 15.7148 15.0285 35.5635 14.858 60.113L10.8581 60.0852C11.0438 33.339 32.7828 11.7148 59.5724 11.7148V15.7148Z" fill="black" mask="url(#path-3-inside-2_15_34)"/>
<mask id="path-5-inside-3_15_34" fill="white">
<path fill-rule="evenodd" clip-rule="evenodd" d="M23.9989 60.1781H95.1433C95.0076 40.6478 79.1334 24.8574 59.5711 24.8574C40.0089 24.8574 24.1346 40.6478 23.9989 60.1781Z"/>
</mask>
<path fill-rule="evenodd" clip-rule="evenodd" d="M23.9989 60.1781H95.1433C95.0076 40.6478 79.1334 24.8574 59.5711 24.8574C40.0089 24.8574 24.1346 40.6478 23.9989 60.1781Z" fill="#41BC64"/>
<path d="M95.1433 60.1781L97.1433 60.1642L97.1573 62.1781H95.1433V60.1781ZM23.9989 60.1781V62.1781H21.985L21.999 60.1642L23.9989 60.1781ZM95.1433 62.1781H23.9989V58.1781H95.1433V62.1781ZM93.1434 60.192C93.0153 41.7601 78.0335 26.8574 59.5711 26.8574V22.8574C80.2333 22.8574 97 39.5356 97.1433 60.1642L93.1434 60.192ZM59.5711 26.8574C41.1088 26.8574 26.127 41.7601 25.9989 60.192L21.999 60.1642C22.1423 39.5356 38.9089 22.8574 59.5711 22.8574V26.8574Z" fill="black" mask="url(#path-5-inside-3_15_34)"/>
<mask id="path-7-inside-4_15_34" fill="white">
<path fill-rule="evenodd" clip-rule="evenodd" d="M83.1433 59.8371H36.8566C36.9449 47.1307 47.2727 36.8574 60 36.8574C72.7272 36.8574 83.055 47.1307 83.1433 59.8371Z"/>
</mask>
<path fill-rule="evenodd" clip-rule="evenodd" d="M83.1433 59.8371H36.8566C36.9449 47.1307 47.2727 36.8574 60 36.8574C72.7272 36.8574 83.055 47.1307 83.1433 59.8371Z" fill="#FFC553"/>
<path d="M83.1433 59.8371L85.1433 59.8232L85.1573 61.8371H83.1433V59.8371ZM36.8566 59.8371V61.8371H34.8427L34.8567 59.8232L36.8566 59.8371ZM83.1433 61.8371H36.8566V57.8371H83.1433V61.8371ZM60 38.8574C48.3726 38.8574 38.9372 48.2429 38.8566 59.851L34.8567 59.8232C34.9526 46.0184 46.1728 34.8574 60 34.8574V38.8574ZM81.1434 59.851C81.0627 48.2429 71.6273 38.8574 60 38.8574V34.8574C73.8271 34.8574 85.0473 46.0184 85.1433 59.8232L81.1434 59.851Z" fill="black" mask="url(#path-7-inside-4_15_34)"/>
<path d="M76.5015 55.3782L76.5016 55.3787L76.5016 55.379L76.5016 55.3791L76.6776 57.1236L75.0893 56.3873L75.0889 56.3871L75.0877 56.3866L75.0869 56.3862L75.086 56.3858L75.0833 56.3846C75.0762 56.3815 75.0629 56.3757 75.0438 56.3677C75.0056 56.3517 74.9439 56.3268 74.8608 56.296C74.6943 56.2344 74.4428 56.1497 74.1214 56.066C73.4767 55.8982 72.5629 55.7372 71.4956 55.7668C69.3945 55.8249 66.6281 56.6189 64.0797 59.7412C62.7721 61.3431 62.7199 63.4673 63.095 65.3661C63.2789 66.2969 63.5563 67.1212 63.7892 67.7143C63.8453 67.8572 63.8985 67.986 63.9468 68.0988L154.059 68.9924C154.109 68.7892 154.163 68.5467 154.216 68.2718C154.388 67.3781 154.541 66.164 154.478 64.8597C154.352 62.2599 153.392 59.436 150.121 57.8959C148.508 57.1367 146.006 57.1025 143.743 57.3226C142.642 57.4297 141.652 57.5906 140.937 57.725C140.58 57.7921 140.293 57.8523 140.097 57.8953C139.999 57.9168 139.924 57.934 139.874 57.9457L139.819 57.9587L139.806 57.9618L139.803 57.9624L139.803 57.9624L139.803 57.9625L139.803 57.9625L138.134 58.3716L138.603 56.7202L138.603 56.7197L138.603 56.7191L138.603 56.7187L138.603 56.7183L138.607 56.7055C138.61 56.6922 138.616 56.6702 138.623 56.6398C138.639 56.5791 138.661 56.4853 138.687 56.3624C138.739 56.1161 138.805 55.7546 138.858 55.3082C138.965 54.4114 139.017 53.195 138.807 51.8942C138.394 49.339 136.985 46.438 132.818 44.9225C128.545 43.3686 124.852 44.1404 122.201 45.313C120.872 45.9009 119.811 46.5876 119.084 47.1259C118.721 47.3945 118.444 47.6247 118.26 47.7847C118.169 47.8647 118.1 47.9269 118.057 47.9676C118.035 47.9879 118.02 48.0028 118.01 48.0117L118.001 48.0203L118.001 48.0207L118.001 48.0209L118 48.0213L118 48.0217L116.793 49.2185L116.335 47.5811L116.335 47.581L116.334 47.5806L116.334 47.58L116.334 47.5783L116.329 47.5614C116.324 47.5452 116.316 47.5191 116.305 47.4839C116.284 47.4134 116.249 47.3064 116.202 47.1683C116.107 46.8919 115.96 46.4922 115.754 46.012C115.341 45.0485 114.699 43.7777 113.784 42.5324C111.955 40.0431 109.119 37.7493 104.854 38.0223C100.515 38.3 97.8676 40.6409 96.2727 42.9608C95.4711 44.1268 94.9428 45.28 94.6153 46.143C94.4521 46.5732 94.3401 46.9277 94.2699 47.1708C94.2348 47.2923 94.2101 47.3856 94.1948 47.4463C94.1871 47.4767 94.1818 47.4988 94.1786 47.5123L94.1755 47.5257L94.1755 47.5258L94.1753 47.5264L94.1752 47.527L94.1751 47.5274L93.7374 49.5119L92.4329 47.953L92.4327 47.9528L92.4325 47.9525L92.4321 47.952L92.4317 47.9516L92.4232 47.9417C92.4149 47.932 92.4013 47.9162 92.3824 47.8948C92.3448 47.852 92.2866 47.7869 92.2089 47.7033C92.0534 47.536 91.8209 47.2956 91.521 47.0129C90.919 46.4454 90.0563 45.7176 89.0092 45.067C86.8973 43.7549 84.1905 42.8443 81.359 43.9333C78.5948 44.9965 77.3346 47.6792 76.7964 50.3727C76.5319 51.6965 76.4577 52.9555 76.4508 53.8877C76.4474 54.3522 76.4607 54.7313 76.4746 54.9916C76.4816 55.1216 76.4886 55.2217 76.4938 55.2876C76.4964 55.3205 76.4985 55.3449 76.4999 55.3602L76.5014 55.3762L76.5015 55.3782Z" fill="white" stroke="black" stroke-width="2"/>
</svg>
