<svg xmlns="http://www.w3.org/2000/svg" width="78" height="46" fill="none" viewBox="0 0 78 46">
  <mask id="a" fill="#fff">
    <path fill-rule="evenodd" d="M77.757 38.879 38.88 0 0 38.879 7.121 46l31.77-31.769L70.646 45.99l7.11-7.11Z" clip-rule="evenodd"/>
  </mask>
  <path fill="#FFF6E1" fill-rule="evenodd" d="M77.757 38.879 38.88 0 0 38.879 7.121 46l31.77-31.769L70.646 45.99l7.11-7.11Z" clip-rule="evenodd"/>
  <path fill="#000" d="m38.879 0 1.414-1.414-1.414-1.414-1.415 1.414L38.88 0Zm38.878 38.879 1.414 1.414 1.415-1.414-1.415-1.415-1.414 1.415ZM0 38.879l-1.414-1.415-1.414 1.415 1.414 1.414L0 38.879ZM7.121 46l-1.414 1.414 1.414 1.414 1.415-1.414L7.12 46Zm31.77-31.769 1.413-1.414-1.414-1.414-1.414 1.414 1.414 1.414ZM70.646 45.99l-1.414 1.414 1.414 1.414 1.414-1.414-1.414-1.414ZM37.464 1.413l38.879 38.879 2.828-2.829L40.293-1.414l-2.829 2.828Zm-36.05 38.88L40.293 1.414l-2.829-2.828-38.878 38.878 2.828 2.829Zm7.122 4.293-7.122-7.122-2.828 2.829 7.121 7.121 2.829-2.828Zm0 2.828 31.768-31.769-2.828-2.828L5.707 44.586l2.829 2.828Zm28.94-31.769 31.757 31.758 2.828-2.829-31.757-31.757-2.828 2.829Zm38.867 21.82-7.11 7.11 2.828 2.828 7.11-7.11-2.828-2.829Z" mask="url(#a)"/>
</svg>
