<svg width="98" height="97" viewBox="0 0 98 97" fill="none" xmlns="http://www.w3.org/2000/svg">
<rect x="23.5" y="17.5" width="61" height="61" fill="#B38ECA" stroke="black" stroke-width="3"/>
<rect x="13.5" y="5.5" width="61" height="61" fill="white" stroke="black" stroke-width="3"/>
<path d="M43.9999 49.6458C45.8767 49.6458 47.7352 49.2799 49.4691 48.5691C51.203 47.8582 52.7785 46.8162 54.1057 45.5026C55.4328 44.1891 56.4855 42.6296 57.2037 40.9134C57.9219 39.1971 58.2916 37.3577 58.2916 35.5C58.2916 33.6423 57.9219 31.8029 57.2037 30.0866C56.4855 28.3704 55.4328 26.811 54.1057 25.4974C52.7785 24.1838 51.203 23.1419 49.4691 22.431C47.7352 21.7201 45.8767 21.3542 43.9999 21.3542C40.2095 21.3542 36.5744 22.8445 33.8942 25.4974C31.214 28.1502 29.7083 31.7483 29.7083 35.5C29.7083 39.2517 31.214 42.8498 33.8942 45.5026C36.5744 48.1555 40.2095 49.6458 43.9999 49.6458Z" stroke="black" stroke-width="3" stroke-linecap="round" stroke-linejoin="round"/>
<path d="M67.0137 15.2917H67.0632" stroke="black" stroke-width="3" stroke-linecap="round" stroke-linejoin="round"/>
</svg>
