<svg width="1211" height="404" viewBox="0 0 1211 404" fill="none" xmlns="http://www.w3.org/2000/svg">
<path d="M1176.16 363.024L1176.16 363.023L1176.16 363.021L1176.17 362.997C1176.18 362.974 1176.2 362.938 1176.22 362.888C1176.27 362.79 1176.34 362.639 1176.42 362.441C1176.58 362.044 1176.81 361.459 1177.03 360.721C1177.48 359.243 1177.93 357.169 1177.93 354.783C1177.92 350.059 1176.15 344.022 1168.87 338.878C1161.62 333.761 1155.02 334.423 1150.19 336.343C1147.76 337.31 1145.78 338.601 1144.4 339.654C1143.71 340.179 1143.18 340.642 1142.82 340.971C1142.64 341.135 1142.5 341.266 1142.41 341.353C1142.39 341.378 1142.37 341.399 1142.35 341.417C1142.34 341.43 1142.33 341.442 1142.32 341.451L1142.29 341.474L1142.29 341.478L1142.29 341.478L1142.29 341.479L1142.29 341.479L1140.83 343.017L1140.57 340.914L1140.57 340.913L1140.57 340.913L1140.57 340.912L1140.57 340.907L1140.57 340.873C1140.56 340.84 1140.55 340.789 1140.54 340.72C1140.52 340.582 1140.48 340.374 1140.43 340.106C1140.31 339.57 1140.12 338.795 1139.8 337.86C1139.17 335.989 1138.07 333.494 1136.17 331.001C1132.4 326.057 1125.41 321 1112.42 321C1099.42 321 1091.28 326.069 1086.37 331.094C1083.91 333.615 1082.26 336.136 1081.22 338.023C1080.7 338.966 1080.34 339.748 1080.11 340.29C1079.99 340.561 1079.91 340.771 1079.86 340.911C1079.83 340.981 1079.81 341.033 1079.8 341.067L1079.79 341.102L1079.79 341.109L1079.79 341.109L1079.79 341.11L1079.79 341.11L1079.33 342.476L1078.21 341.567L1078.21 341.567L1078.21 341.566L1078.21 341.566L1078.2 341.563L1078.18 341.546C1078.16 341.529 1078.13 341.504 1078.08 341.469C1077.99 341.4 1077.85 341.298 1077.67 341.169C1077.3 340.911 1076.75 340.55 1076.04 340.147C1074.62 339.339 1072.57 338.37 1070.06 337.724C1065.08 336.441 1058.27 336.425 1050.9 341.608C1043.41 346.88 1039.73 352.407 1037.91 356.569C1037 358.654 1036.55 360.406 1036.33 361.624C1036.22 362.233 1036.17 362.709 1036.14 363.025C1036.13 363.184 1036.12 363.302 1036.12 363.378C1036.12 363.416 1036.12 363.443 1036.12 363.459L1036.12 363.475L1036.12 363.475V363.476L1036.13 364.575L1035.03 364.476L1035.03 364.476L1035.03 364.476L1035.03 364.476L1035.03 364.475L1035 364.473C1034.98 364.472 1034.95 364.47 1034.91 364.467C1034.82 364.461 1034.69 364.453 1034.52 364.446C1034.17 364.433 1033.66 364.422 1033.01 364.435C1031.71 364.461 1029.87 364.581 1027.72 364.963C1023.41 365.726 1017.89 367.527 1012.95 371.658C1008.48 375.403 1006.06 379.182 1004.9 382.711C1003.74 386.243 1003.82 389.591 1004.46 392.503C1005.09 395.421 1006.28 397.891 1007.31 399.637C1007.83 400.508 1008.3 401.193 1008.65 401.657C1008.74 401.787 1008.83 401.9 1008.9 401.995L1198.08 399.998C1198.19 399.883 1198.33 399.735 1198.49 399.555C1198.92 399.072 1199.54 398.363 1200.24 397.472C1201.64 395.687 1203.38 393.188 1204.74 390.314C1207.47 384.548 1208.61 377.537 1202.98 371.578C1197.15 365.398 1190.74 363.627 1185.8 363.384C1183.32 363.263 1181.2 363.526 1179.71 363.819C1178.96 363.965 1178.37 364.119 1177.97 364.234C1177.78 364.291 1177.63 364.339 1177.53 364.371C1177.5 364.381 1177.48 364.389 1177.46 364.396C1177.44 364.401 1177.43 364.405 1177.42 364.408L1177.4 364.417L1177.39 364.418L1177.39 364.418L1177.39 364.418L1174.99 365.308L1176.16 363.024ZM1176.16 363.024L1176.16 363.025L1176.16 363.024Z" fill="white" stroke="black" stroke-width="2"/>
<path d="M1001.16 200.024L1001.16 200.023L1001.16 200.021L1001.17 199.997C1001.18 199.974 1001.2 199.938 1001.22 199.888C1001.27 199.79 1001.34 199.639 1001.42 199.441C1001.58 199.044 1001.81 198.459 1002.03 197.721C1002.48 196.243 1002.93 194.169 1002.93 191.783C1002.92 187.059 1001.15 181.022 993.867 175.878C986.62 170.761 980.019 171.423 975.193 173.343C972.761 174.31 970.776 175.601 969.397 176.654C968.709 177.179 968.176 177.642 967.817 177.971C967.638 178.135 967.503 178.266 967.414 178.353C967.389 178.378 967.368 178.399 967.351 178.417C967.337 178.43 967.326 178.442 967.317 178.451L967.295 178.474L967.291 178.478L967.29 178.478L967.29 178.479L967.29 178.479L965.832 180.017L965.573 177.914L965.573 177.913L965.573 177.913L965.572 177.912L965.572 177.907L965.567 177.873C965.562 177.84 965.555 177.789 965.543 177.72C965.52 177.582 965.483 177.374 965.425 177.106C965.31 176.57 965.116 175.795 964.802 174.86C964.173 172.989 963.068 170.494 961.167 168.001C957.397 163.057 950.407 158 937.419 158C924.422 158 916.277 163.069 911.374 168.094C908.914 170.615 907.26 173.136 906.223 175.023C905.705 175.966 905.342 176.748 905.11 177.29C904.994 177.561 904.911 177.771 904.858 177.911C904.832 177.981 904.813 178.033 904.801 178.067L904.788 178.102L904.786 178.109L904.786 178.109L904.786 178.11L904.785 178.11L904.326 179.476L903.208 178.567L903.208 178.567L903.208 178.566L903.207 178.566L903.204 178.563L903.182 178.546C903.161 178.529 903.128 178.504 903.082 178.469C902.991 178.4 902.852 178.298 902.668 178.169C902.298 177.911 901.748 177.55 901.038 177.147C899.617 176.339 897.568 175.37 895.064 174.724C890.082 173.441 883.266 173.425 875.901 178.608C868.411 183.88 864.726 189.407 862.907 193.569C861.996 195.654 861.549 197.406 861.33 198.624C861.221 199.233 861.168 199.709 861.143 200.025C861.13 200.184 861.124 200.302 861.121 200.378C861.12 200.416 861.12 200.443 861.119 200.459L861.119 200.475L861.119 200.475V200.476L861.126 201.575L860.03 201.476L860.03 201.476L860.03 201.476L860.029 201.476L860.026 201.475L860.004 201.473C859.984 201.472 859.952 201.47 859.909 201.467C859.823 201.461 859.691 201.453 859.518 201.446C859.172 201.433 858.66 201.422 858.011 201.435C856.713 201.461 854.872 201.581 852.719 201.963C848.408 202.726 842.886 204.527 837.951 208.658C833.48 212.403 831.06 216.182 829.902 219.711C828.742 223.243 828.824 226.591 829.457 229.503C830.091 232.421 831.278 234.891 832.313 236.637C832.829 237.508 833.305 238.193 833.648 238.657C833.745 238.787 833.831 238.9 833.904 238.995L1023.08 236.998C1023.19 236.883 1023.33 236.735 1023.49 236.555C1023.92 236.072 1024.54 235.363 1025.24 234.472C1026.64 232.687 1028.38 230.188 1029.74 227.314C1032.47 221.548 1033.61 214.537 1027.98 208.578C1022.15 202.398 1015.74 200.627 1010.8 200.384C1008.32 200.263 1006.2 200.526 1004.71 200.819C1003.96 200.965 1003.37 201.119 1002.97 201.234C1002.78 201.291 1002.63 201.339 1002.53 201.371C1002.5 201.381 1002.48 201.389 1002.46 201.396C1002.44 201.401 1002.43 201.405 1002.42 201.408L1002.4 201.417L1002.39 201.418L1002.39 201.418L1002.39 201.418L999.986 202.308L1001.16 200.024ZM1001.16 200.024L1001.16 200.025L1001.16 200.024Z" fill="white" stroke="black" stroke-width="2"/>
<path d="M1178.16 43.0242L1178.16 43.0234L1178.16 43.0205L1178.17 42.9968C1178.18 42.9741 1178.2 42.9378 1178.22 42.8885C1178.27 42.7898 1178.34 42.6391 1178.42 42.4409C1178.58 42.0442 1178.81 41.4589 1179.03 40.7211C1179.48 39.2427 1179.93 37.1688 1179.93 34.7829C1179.92 30.0585 1178.15 24.0217 1170.87 18.8775C1163.62 13.7611 1157.02 14.4227 1152.19 16.343C1149.76 17.3103 1147.78 18.6015 1146.4 19.6541C1145.71 20.1794 1145.18 20.6424 1144.82 20.9711C1144.64 21.1353 1144.5 21.2657 1144.41 21.3533C1144.39 21.3779 1144.37 21.3991 1144.35 21.4167C1144.34 21.4304 1144.33 21.442 1144.32 21.4513L1144.29 21.474L1144.29 21.478L1144.29 21.4784L1144.29 21.4785L1144.29 21.4788L1142.83 23.0172L1142.57 20.9137L1142.57 20.9133L1142.57 20.9132L1142.57 20.9122L1142.57 20.907L1142.57 20.8726C1142.56 20.8402 1142.55 20.7889 1142.54 20.72C1142.52 20.5822 1142.48 20.3743 1142.43 20.1063C1142.31 19.57 1142.12 18.7947 1141.8 17.8602C1141.17 15.9891 1140.07 13.4939 1138.17 11.0012C1134.4 6.05661 1127.41 0.999801 1114.42 1C1101.42 1.0002 1093.28 6.06923 1088.37 11.0936C1085.91 13.615 1084.26 16.1364 1083.22 18.0233C1082.7 18.9661 1082.34 19.7484 1082.11 20.29C1081.99 20.5607 1081.91 20.7711 1081.86 20.911C1081.83 20.9809 1081.81 21.0332 1081.8 21.0666L1081.79 21.1024L1081.79 21.1089L1081.79 21.1094L1081.79 21.1097L1081.79 21.1101L1081.33 22.4757L1080.21 21.5667L1080.21 21.5665L1080.21 21.5664L1080.21 21.5659L1080.2 21.5633L1080.18 21.5459C1080.16 21.5295 1080.13 21.5036 1080.08 21.4692C1079.99 21.4004 1079.85 21.2977 1079.67 21.169C1079.3 20.9114 1078.75 20.55 1078.04 20.1467C1076.62 19.3391 1074.57 18.3699 1072.06 17.7245C1067.08 16.4405 1060.27 16.4247 1052.9 21.6078C1045.41 26.8798 1041.73 32.4071 1039.91 36.5691C1039 38.6543 1038.55 40.4062 1038.33 41.6242C1038.22 42.2333 1038.17 42.7088 1038.14 43.0255C1038.13 43.1838 1038.12 43.3024 1038.12 43.3781C1038.12 43.416 1038.12 43.4431 1038.12 43.459L1038.12 43.4746L1038.12 43.4751V43.476L1038.13 44.5749L1037.03 44.4756L1037.03 44.4756L1037.03 44.4756L1037.03 44.4755L1037.03 44.4752L1037 44.4735C1036.98 44.4719 1036.95 44.4695 1036.91 44.4667C1036.82 44.461 1036.69 44.4534 1036.52 44.4465C1036.17 44.4327 1035.66 44.4218 1035.01 44.4347C1033.71 44.4606 1031.87 44.5815 1029.72 44.9629C1025.41 45.7265 1019.89 47.5266 1014.95 51.6583C1010.48 55.4025 1008.06 59.1817 1006.9 62.7112C1005.74 66.2433 1005.82 69.5913 1006.46 72.5029C1007.09 75.4209 1008.28 77.891 1009.31 79.6367C1009.83 80.5076 1010.3 81.1926 1010.65 81.6567C1010.74 81.7874 1010.83 81.9004 1010.9 81.9949L1200.08 79.9979C1200.19 79.8829 1200.33 79.7346 1200.49 79.5555C1200.92 79.0716 1201.54 78.3631 1202.24 77.4723C1203.64 75.6869 1205.38 73.1884 1206.74 70.3142C1209.47 64.5476 1210.61 57.5373 1204.98 51.5781C1199.15 45.3977 1192.74 43.6269 1187.8 43.3842C1185.32 43.2625 1183.2 43.526 1181.71 43.819C1180.96 43.9653 1180.37 44.1185 1179.97 44.2335C1179.78 44.291 1179.63 44.3389 1179.53 44.3715C1179.5 44.3809 1179.48 44.3891 1179.46 44.3958C1179.44 44.4007 1179.43 44.4048 1179.42 44.4081L1179.4 44.4165L1179.39 44.4176L1179.39 44.4178L1179.39 44.418L1176.99 45.3075L1178.16 43.0242ZM1178.16 43.0242L1178.16 43.0247L1178.16 43.0242Z" fill="white" stroke="black" stroke-width="2"/>
<path d="M675.156 43.0242L675.157 43.0234L675.158 43.0205L675.17 42.9968C675.181 42.9741 675.199 42.9378 675.222 42.8885C675.268 42.7898 675.336 42.6391 675.419 42.4409C675.584 42.0442 675.808 41.4589 676.033 40.7211C676.482 39.2427 676.93 37.1688 676.927 34.7829C676.92 30.0585 675.152 24.0217 667.867 18.8775C660.62 13.7611 654.019 14.4227 649.193 16.343C646.761 17.3103 644.776 18.6015 643.397 19.6541C642.709 20.1794 642.176 20.6424 641.817 20.9711C641.638 21.1353 641.503 21.2657 641.414 21.3533C641.389 21.3779 641.368 21.3991 641.351 21.4167C641.337 21.4304 641.326 21.442 641.317 21.4513L641.295 21.474L641.291 21.478L641.29 21.4784L641.29 21.4785L641.29 21.4788L639.832 23.0172L639.573 20.9137L639.573 20.9133L639.573 20.9132L639.572 20.9122L639.572 20.907L639.567 20.8726C639.562 20.8402 639.555 20.7889 639.543 20.72C639.52 20.5822 639.483 20.3743 639.425 20.1063C639.31 19.57 639.116 18.7947 638.802 17.8602C638.173 15.9891 637.068 13.4939 635.167 11.0012C631.397 6.05661 624.407 0.999801 611.419 1C598.422 1.0002 590.277 6.06923 585.374 11.0936C582.914 13.615 581.26 16.1364 580.223 18.0233C579.705 18.9661 579.342 19.7484 579.11 20.29C578.994 20.5607 578.911 20.7711 578.858 20.911C578.832 20.9809 578.813 21.0332 578.801 21.0666L578.788 21.1024L578.786 21.1089L578.786 21.1094L578.786 21.1097L578.785 21.1101L578.326 22.4757L577.208 21.5667L577.208 21.5665L577.208 21.5664L577.207 21.5659L577.204 21.5633L577.182 21.5459C577.161 21.5295 577.128 21.5036 577.082 21.4692C576.991 21.4004 576.852 21.2977 576.668 21.169C576.298 20.9114 575.748 20.55 575.038 20.1467C573.617 19.3391 571.568 18.3699 569.064 17.7245C564.082 16.4405 557.266 16.4247 549.901 21.6078C542.411 26.8798 538.726 32.4071 536.907 36.5691C535.996 38.6543 535.549 40.4062 535.33 41.6242C535.221 42.2333 535.168 42.7088 535.143 43.0255C535.13 43.1838 535.124 43.3024 535.121 43.3781C535.12 43.416 535.12 43.4431 535.119 43.459L535.119 43.4746L535.119 43.4751V43.476L535.126 44.5749L534.03 44.4756L534.03 44.4756L534.03 44.4756L534.029 44.4755L534.026 44.4752L534.004 44.4735C533.984 44.4719 533.952 44.4695 533.909 44.4667C533.823 44.461 533.691 44.4534 533.518 44.4465C533.172 44.4327 532.66 44.4218 532.011 44.4347C530.713 44.4606 528.872 44.5815 526.719 44.9629C522.408 45.7265 516.886 47.5266 511.951 51.6583C507.48 55.4025 505.06 59.1817 503.902 62.7112C502.742 66.2433 502.824 69.5913 503.457 72.5029C504.091 75.4209 505.278 77.891 506.313 79.6367C506.829 80.5076 507.305 81.1926 507.648 81.6567C507.745 81.7874 507.831 81.9004 507.904 81.9949L697.082 79.9979C697.19 79.8829 697.327 79.7346 697.488 79.5555C697.925 79.0716 698.538 78.3631 699.237 77.4723C700.64 75.6869 702.376 73.1884 703.739 70.3142C706.474 64.5476 707.608 57.5373 701.982 51.5781C696.147 45.3977 689.741 43.6269 684.797 43.3842C682.316 43.2625 680.199 43.526 678.706 43.819C677.96 43.9653 677.372 44.1185 676.975 44.2335C676.777 44.291 676.626 44.3389 676.528 44.3715C676.499 44.3809 676.475 44.3891 676.455 44.3958C676.441 44.4007 676.429 44.4048 676.42 44.4081L676.396 44.4165L676.393 44.4176L676.393 44.4178L676.392 44.418L673.986 45.3075L675.156 43.0242ZM675.156 43.0242L675.156 43.0247L675.156 43.0242Z" fill="white" stroke="black" stroke-width="2"/>
<path d="M675.156 363.024L675.157 363.023L675.158 363.021L675.17 362.997C675.181 362.974 675.199 362.938 675.222 362.888C675.268 362.79 675.336 362.639 675.419 362.441C675.584 362.044 675.808 361.459 676.033 360.721C676.482 359.243 676.93 357.169 676.927 354.783C676.92 350.059 675.152 344.022 667.867 338.878C660.62 333.761 654.019 334.423 649.193 336.343C646.761 337.31 644.776 338.601 643.397 339.654C642.709 340.179 642.176 340.642 641.817 340.971C641.638 341.135 641.503 341.266 641.414 341.353C641.389 341.378 641.368 341.399 641.351 341.417C641.337 341.43 641.326 341.442 641.317 341.451L641.295 341.474L641.291 341.478L641.29 341.478L641.29 341.479L641.29 341.479L639.832 343.017L639.573 340.914L639.573 340.913L639.573 340.913L639.572 340.912L639.572 340.907L639.567 340.873C639.562 340.84 639.555 340.789 639.543 340.72C639.52 340.582 639.483 340.374 639.425 340.106C639.31 339.57 639.116 338.795 638.802 337.86C638.173 335.989 637.068 333.494 635.167 331.001C631.397 326.057 624.407 321 611.419 321C598.422 321 590.277 326.069 585.374 331.094C582.914 333.615 581.26 336.136 580.223 338.023C579.705 338.966 579.342 339.748 579.11 340.29C578.994 340.561 578.911 340.771 578.858 340.911C578.832 340.981 578.813 341.033 578.801 341.067L578.788 341.102L578.786 341.109L578.786 341.109L578.786 341.11L578.785 341.11L578.326 342.476L577.208 341.567L577.208 341.567L577.208 341.566L577.207 341.566L577.204 341.563L577.182 341.546C577.161 341.529 577.128 341.504 577.082 341.469C576.991 341.4 576.852 341.298 576.668 341.169C576.298 340.911 575.748 340.55 575.038 340.147C573.617 339.339 571.568 338.37 569.064 337.724C564.082 336.441 557.266 336.425 549.901 341.608C542.411 346.88 538.726 352.407 536.907 356.569C535.996 358.654 535.549 360.406 535.33 361.624C535.221 362.233 535.168 362.709 535.143 363.025C535.13 363.184 535.124 363.302 535.121 363.378C535.12 363.416 535.12 363.443 535.119 363.459L535.119 363.475L535.119 363.475V363.476L535.126 364.575L534.03 364.476L534.03 364.476L534.03 364.476L534.029 364.476L534.026 364.475L534.004 364.473C533.984 364.472 533.952 364.47 533.909 364.467C533.823 364.461 533.691 364.453 533.518 364.446C533.172 364.433 532.66 364.422 532.011 364.435C530.713 364.461 528.872 364.581 526.719 364.963C522.408 365.726 516.886 367.527 511.951 371.658C507.48 375.403 505.06 379.182 503.902 382.711C502.742 386.243 502.824 389.591 503.457 392.503C504.091 395.421 505.278 397.891 506.313 399.637C506.829 400.508 507.305 401.193 507.648 401.657C507.745 401.787 507.831 401.9 507.904 401.995L697.082 399.998C697.19 399.883 697.327 399.735 697.488 399.555C697.925 399.072 698.538 398.363 699.237 397.472C700.64 395.687 702.376 393.188 703.739 390.314C706.474 384.548 707.608 377.537 701.982 371.578C696.147 365.398 689.741 363.627 684.797 363.384C682.316 363.263 680.199 363.526 678.706 363.819C677.96 363.965 677.372 364.119 676.975 364.234C676.777 364.291 676.626 364.339 676.528 364.371C676.499 364.381 676.475 364.389 676.455 364.396C676.441 364.401 676.429 364.405 676.42 364.408L676.396 364.417L676.393 364.418L676.393 364.418L676.392 364.418L673.986 365.308L675.156 363.024ZM675.156 363.024L675.156 363.025L675.156 363.024Z" fill="white" stroke="black" stroke-width="2"/>
<path d="M173.156 346.024L173.157 346.023L173.158 346.021L173.17 345.997C173.181 345.974 173.199 345.938 173.222 345.888C173.268 345.79 173.336 345.639 173.419 345.441C173.584 345.044 173.808 344.459 174.033 343.721C174.482 342.243 174.93 340.169 174.927 337.783C174.92 333.059 173.152 327.022 165.867 321.878C158.62 316.761 152.019 317.423 147.193 319.343C144.761 320.31 142.776 321.601 141.397 322.654C140.709 323.179 140.176 323.642 139.817 323.971C139.638 324.135 139.503 324.266 139.414 324.353C139.389 324.378 139.368 324.399 139.351 324.417C139.337 324.43 139.326 324.442 139.317 324.451L139.295 324.474L139.291 324.478L139.29 324.478L139.29 324.479L139.29 324.479L137.832 326.017L137.573 323.914L137.573 323.913L137.573 323.913L137.572 323.912L137.572 323.907L137.567 323.873C137.562 323.84 137.555 323.789 137.543 323.72C137.52 323.582 137.483 323.374 137.425 323.106C137.31 322.57 137.116 321.795 136.802 320.86C136.173 318.989 135.068 316.494 133.167 314.001C129.397 309.057 122.407 304 109.419 304C96.4216 304 88.2772 309.069 83.3742 314.094C80.9137 316.615 79.2597 319.136 78.2227 321.023C77.7046 321.966 77.3416 322.748 77.11 323.29C76.9941 323.561 76.9112 323.771 76.8582 323.911C76.8317 323.981 76.8127 324.033 76.8007 324.067L76.7881 324.102L76.7859 324.109L76.7857 324.109L76.7856 324.11L76.7855 324.11L76.326 325.476L75.2082 324.567L75.208 324.567L75.2078 324.566L75.2072 324.566L75.204 324.563L75.182 324.546C75.161 324.529 75.1277 324.504 75.0823 324.469C74.9914 324.4 74.8523 324.298 74.6677 324.169C74.2984 323.911 73.748 323.55 73.0383 323.147C71.6169 322.339 69.5681 321.37 67.0638 320.724C62.0816 319.441 55.2655 319.425 47.9014 324.608C40.4109 329.88 36.7262 335.407 34.9075 339.569C33.9962 341.654 33.5494 343.406 33.3301 344.624C33.2205 345.233 33.1678 345.709 33.1425 346.025C33.1299 346.184 33.1241 346.302 33.1214 346.378C33.1201 346.416 33.1195 346.443 33.1193 346.459L33.1192 346.475L33.1192 346.475V346.476L33.1263 347.575L32.0298 347.476L32.0296 347.476L32.0295 347.476L32.0289 347.476L32.0256 347.475L32.0044 347.473C31.9842 347.472 31.9524 347.47 31.9092 347.467C31.8229 347.461 31.6913 347.453 31.5183 347.446C31.1721 347.433 30.6602 347.422 30.0115 347.435C28.7134 347.461 26.8724 347.581 24.7193 347.963C20.408 348.726 14.8858 350.527 9.95138 354.658C5.47973 358.403 3.06029 362.182 1.90163 365.711C0.74213 369.243 0.823681 372.591 1.45678 375.503C2.09127 378.421 3.2783 380.891 4.31319 382.637C4.82947 383.508 5.30457 384.193 5.64787 384.657C5.74454 384.787 5.83066 384.9 5.90418 384.995L195.082 382.998C195.19 382.883 195.327 382.735 195.488 382.555C195.925 382.072 196.538 381.363 197.237 380.472C198.64 378.687 200.376 376.188 201.739 373.314C204.474 367.548 205.608 360.537 199.982 354.578C194.147 348.398 187.741 346.627 182.797 346.384C180.316 346.263 178.199 346.526 176.706 346.819C175.96 346.965 175.372 347.119 174.975 347.234C174.777 347.291 174.626 347.339 174.528 347.371C174.499 347.381 174.475 347.389 174.455 347.396C174.441 347.401 174.429 347.405 174.42 347.408L174.396 347.417L174.393 347.418L174.393 347.418L174.392 347.418L171.986 348.308L173.156 346.024ZM173.156 346.024L173.156 346.025L173.156 346.024Z" fill="white" stroke="black" stroke-width="2"/>
<path d="M330.156 208.024L330.157 208.023L330.158 208.021L330.17 207.997C330.181 207.974 330.199 207.938 330.222 207.888C330.268 207.79 330.336 207.639 330.419 207.441C330.584 207.044 330.808 206.459 331.033 205.721C331.482 204.243 331.93 202.169 331.927 199.783C331.92 195.059 330.152 189.022 322.867 183.878C315.62 178.761 309.019 179.423 304.193 181.343C301.761 182.31 299.776 183.601 298.397 184.654C297.709 185.179 297.176 185.642 296.817 185.971C296.638 186.135 296.503 186.266 296.414 186.353C296.389 186.378 296.368 186.399 296.351 186.417C296.337 186.43 296.326 186.442 296.317 186.451L296.295 186.474L296.291 186.478L296.29 186.478L296.29 186.479L296.29 186.479L294.832 188.017L294.573 185.914L294.573 185.913L294.573 185.913L294.572 185.912L294.572 185.907L294.567 185.873C294.562 185.84 294.555 185.789 294.543 185.72C294.52 185.582 294.483 185.374 294.425 185.106C294.31 184.57 294.116 183.795 293.802 182.86C293.173 180.989 292.068 178.494 290.167 176.001C286.397 171.057 279.407 166 266.419 166C253.422 166 245.277 171.069 240.374 176.094C237.914 178.615 236.26 181.136 235.223 183.023C234.705 183.966 234.342 184.748 234.11 185.29C233.994 185.561 233.911 185.771 233.858 185.911C233.832 185.981 233.813 186.033 233.801 186.067L233.788 186.102L233.786 186.109L233.786 186.109L233.786 186.11L233.785 186.11L233.326 187.476L232.208 186.567L232.208 186.567L232.208 186.566L232.207 186.566L232.204 186.563L232.182 186.546C232.161 186.529 232.128 186.504 232.082 186.469C231.991 186.4 231.852 186.298 231.668 186.169C231.298 185.911 230.748 185.55 230.038 185.147C228.617 184.339 226.568 183.37 224.064 182.724C219.082 181.441 212.266 181.425 204.901 186.608C197.411 191.88 193.726 197.407 191.907 201.569C190.996 203.654 190.549 205.406 190.33 206.624C190.221 207.233 190.168 207.709 190.143 208.025C190.13 208.184 190.124 208.302 190.121 208.378C190.12 208.416 190.12 208.443 190.119 208.459L190.119 208.475L190.119 208.475V208.476L190.126 209.575L189.03 209.476L189.03 209.476L189.03 209.476L189.029 209.476L189.026 209.475L189.004 209.473C188.984 209.472 188.952 209.47 188.909 209.467C188.823 209.461 188.691 209.453 188.518 209.446C188.172 209.433 187.66 209.422 187.011 209.435C185.713 209.461 183.872 209.581 181.719 209.963C177.408 210.726 171.886 212.527 166.951 216.658C162.48 220.403 160.06 224.182 158.902 227.711C157.742 231.243 157.824 234.591 158.457 237.503C159.091 240.421 160.278 242.891 161.313 244.637C161.829 245.508 162.305 246.193 162.648 246.657C162.745 246.787 162.831 246.9 162.904 246.995L352.082 244.998C352.19 244.883 352.327 244.735 352.488 244.555C352.925 244.072 353.538 243.363 354.237 242.472C355.64 240.687 357.376 238.188 358.739 235.314C361.474 229.548 362.608 222.537 356.982 216.578C351.147 210.398 344.741 208.627 339.797 208.384C337.316 208.263 335.199 208.526 333.706 208.819C332.96 208.965 332.372 209.119 331.975 209.234C331.777 209.291 331.626 209.339 331.528 209.371C331.499 209.381 331.475 209.389 331.455 209.396C331.441 209.401 331.429 209.405 331.42 209.408L331.396 209.417L331.393 209.418L331.393 209.418L331.392 209.418L328.986 210.308L330.156 208.024ZM330.156 208.024L330.156 208.025L330.156 208.024Z" fill="white" stroke="black" stroke-width="2"/>
<path d="M175.156 45.0242L175.157 45.0234L175.158 45.0205L175.17 44.9968C175.181 44.9741 175.199 44.9378 175.222 44.8885C175.268 44.7898 175.336 44.6391 175.419 44.4409C175.584 44.0442 175.808 43.4589 176.033 42.7211C176.482 41.2427 176.93 39.1688 176.927 36.7829C176.92 32.0585 175.152 26.0217 167.867 20.8775C160.62 15.7611 154.019 16.4227 149.193 18.343C146.761 19.3103 144.776 20.6015 143.397 21.6541C142.709 22.1794 142.176 22.6424 141.817 22.9711C141.638 23.1353 141.503 23.2657 141.414 23.3533C141.389 23.3779 141.368 23.3991 141.351 23.4167C141.337 23.4304 141.326 23.442 141.317 23.4513L141.295 23.474L141.291 23.478L141.29 23.4784L141.29 23.4785L141.29 23.4788L139.832 25.0172L139.573 22.9137L139.573 22.9133L139.573 22.9132L139.572 22.9122L139.572 22.907L139.567 22.8726C139.562 22.8402 139.555 22.7889 139.543 22.72C139.52 22.5822 139.483 22.3743 139.425 22.1063C139.31 21.57 139.116 20.7947 138.802 19.8602C138.173 17.9891 137.068 15.4939 135.167 13.0012C131.397 8.05661 124.407 2.9998 111.419 3C98.4216 3.0002 90.2772 8.06923 85.3742 13.0936C82.9137 15.615 81.2597 18.1364 80.2227 20.0233C79.7046 20.9661 79.3416 21.7484 79.11 22.29C78.9941 22.5607 78.9112 22.7711 78.8582 22.911C78.8317 22.9809 78.8127 23.0332 78.8007 23.0666L78.7881 23.1024L78.7859 23.1089L78.7857 23.1094L78.7856 23.1097L78.7855 23.1101L78.326 24.4757L77.2082 23.5667L77.208 23.5665L77.2078 23.5664L77.2072 23.5659L77.204 23.5633L77.182 23.5459C77.161 23.5295 77.1277 23.5036 77.0823 23.4692C76.9914 23.4004 76.8523 23.2977 76.6677 23.169C76.2984 22.9114 75.748 22.55 75.0383 22.1467C73.6169 21.3391 71.5681 20.3699 69.0638 19.7245C64.0816 18.4405 57.2655 18.4247 49.9014 23.6078C42.4109 28.8798 38.7262 34.4071 36.9075 38.5691C35.9962 40.6543 35.5494 42.4062 35.3301 43.6242C35.2205 44.2333 35.1678 44.7088 35.1425 45.0255C35.1299 45.1838 35.1241 45.3024 35.1214 45.3781C35.1201 45.416 35.1195 45.4431 35.1193 45.459L35.1192 45.4746L35.1192 45.4751V45.476L35.1263 46.5749L34.0298 46.4756L34.0296 46.4756L34.0295 46.4756L34.0289 46.4755L34.0256 46.4752L34.0044 46.4735C33.9842 46.4719 33.9524 46.4695 33.9092 46.4667C33.8229 46.461 33.6913 46.4534 33.5183 46.4465C33.1721 46.4327 32.6602 46.4218 32.0115 46.4347C30.7134 46.4606 28.8724 46.5815 26.7193 46.9629C22.408 47.7265 16.8858 49.5266 11.9514 53.6583C7.47973 57.4025 5.06029 61.1817 3.90163 64.7112C2.74213 68.2433 2.82368 71.5913 3.45678 74.5029C4.09127 77.4209 5.2783 79.891 6.31319 81.6367C6.82947 82.5076 7.30457 83.1926 7.64787 83.6567C7.74454 83.7874 7.83066 83.9004 7.90418 83.9949L197.082 81.9979C197.19 81.8829 197.327 81.7346 197.488 81.5555C197.925 81.0716 198.538 80.3631 199.237 79.4723C200.64 77.6869 202.376 75.1884 203.739 72.3142C206.474 66.5476 207.608 59.5373 201.982 53.5781C196.147 47.3977 189.741 45.6269 184.797 45.3842C182.316 45.2625 180.199 45.526 178.706 45.819C177.96 45.9653 177.372 46.1185 176.975 46.2335C176.777 46.291 176.626 46.3389 176.528 46.3715C176.499 46.3809 176.475 46.3891 176.455 46.3958C176.441 46.4007 176.429 46.4048 176.42 46.4081L176.396 46.4165L176.393 46.4176L176.393 46.4178L176.392 46.418L173.986 47.3075L175.156 45.0242ZM175.156 45.0242L175.156 45.0247L175.156 45.0242Z" fill="white" stroke="black" stroke-width="2"/>
</svg>
