<svg width="74" height="74" viewBox="0 0 74 74" fill="none" xmlns="http://www.w3.org/2000/svg">
<path d="M46.3183 23.6961C46.476 27.0528 48.7773 29.9261 52.0184 30.8133C57.3971 32.2856 57.7494 39.7806 52.5325 41.751C49.3889 42.9383 47.3673 46.0148 47.5251 49.3714C47.7869 54.9419 40.7677 57.593 37.2816 53.2403C35.181 50.6174 31.6304 49.6455 28.4868 50.8328C23.2699 52.8032 18.5795 46.9467 21.6418 42.2863C23.4872 39.4779 23.3144 35.8007 21.2137 33.1779C17.7277 28.8252 21.8481 22.5546 27.2268 24.0269C30.4679 24.9142 33.9117 23.6135 35.7571 20.8051C38.8195 16.1447 46.0564 18.1257 46.3183 23.6961Z" fill="#FF88BA" stroke="black" stroke-width="2"/>
<circle cx="37.6763" cy="36.1376" r="5.53725" transform="rotate(45 37.6763 36.1376)" fill="#FBFF3F" stroke="black" stroke-width="2"/>
</svg>
