<svg width="74" height="75" viewBox="0 0 74 75" fill="none" xmlns="http://www.w3.org/2000/svg">
<path d="M46.3182 24.3875C46.476 27.7442 48.7772 30.6175 52.0183 31.5047C57.397 32.977 57.7493 40.472 52.5324 42.4424C49.3888 43.6297 47.3672 46.7062 47.525 50.0628C47.7868 55.6333 40.7676 58.2844 37.2816 53.9317C35.1809 51.3089 31.6303 50.3369 28.4867 51.5242C23.2698 53.4946 18.5794 47.6381 21.6418 42.9777C23.4871 40.1693 23.3143 36.4921 21.2136 33.8693C17.7276 29.5166 21.848 23.246 27.2267 24.7184C30.4678 25.6056 33.9116 24.3049 35.757 21.4965C38.8194 16.8361 46.0564 18.8171 46.3182 24.3875Z" fill="#FF88BA" stroke="black" stroke-width="2"/>
<circle cx="37.6762" cy="36.8291" r="5.53725" transform="rotate(45 37.6762 36.8291)" fill="#FBFF3F" stroke="black" stroke-width="2"/>
</svg>
