<svg width="83" height="84" viewBox="0 0 83 84" fill="none" xmlns="http://www.w3.org/2000/svg">
<path d="M38.0702 29.1644C40.3355 30.941 43.4872 31.0568 45.8768 29.4514C49.612 26.9419 54.3763 30.6782 52.8295 34.9039C51.8399 37.6074 52.7037 40.6406 54.969 42.4171C58.5099 45.194 56.4287 50.8797 51.9318 50.7144C49.0549 50.6087 46.4371 52.3675 45.4475 55.071C43.9007 59.2967 37.8502 59.0743 36.6177 54.7464C35.8293 51.9776 33.3476 50.0314 30.4707 49.9257C25.9738 49.7604 24.3155 43.9373 28.0507 41.4278C30.4404 39.8223 31.5245 36.8607 30.736 34.0919C29.5036 29.764 34.5293 26.3875 38.0702 29.1644Z" fill="white" stroke="black" stroke-width="2"/>
<circle cx="42.3199" cy="42.0154" r="5.47243" fill="#FFA73F" stroke="black" stroke-width="2"/>
</svg>
