<svg width="84" height="84" viewBox="0 0 84 84" fill="none" xmlns="http://www.w3.org/2000/svg">
<path d="M38.2348 28.591C40.5083 30.3739 43.6714 30.4902 46.0697 28.8789C49.8242 26.3564 54.6132 30.1121 53.0584 34.3597C52.0652 37.0729 52.9321 40.1171 55.2056 41.9001C58.7649 44.6914 56.6729 50.4065 52.1527 50.2403C49.2654 50.1342 46.6381 51.8994 45.6449 54.6126C44.0901 58.8602 38.0083 58.6367 36.7694 54.2864C35.9781 51.5076 33.4875 49.5543 30.6001 49.4482C26.08 49.2821 24.4132 43.4288 28.1677 40.9064C30.566 39.2951 31.654 36.3227 30.8627 33.5439C29.6239 29.1937 34.6756 25.7997 38.2348 28.591Z" fill="white" stroke="black" stroke-width="2"/>
<circle cx="42.5" cy="41.5" r="5.5" fill="#FFA73F" stroke="black" stroke-width="2"/>
</svg>
