<svg width="98" height="98" viewBox="0 0 98 98" fill="none" xmlns="http://www.w3.org/2000/svg">
<path d="M45.0615 33.4765C47.6747 35.5258 51.3102 35.6594 54.0667 33.8074C58.6222 30.7468 64.4329 35.3037 62.5464 40.4575C61.4048 43.576 62.4012 47.0749 65.0143 49.1242C69.3329 52.511 66.7946 59.4453 61.3101 59.2438C57.9915 59.1218 54.9718 61.1506 53.8303 64.2691C51.9437 69.4229 44.5644 69.1517 43.0613 63.8733C42.1518 60.6795 39.2891 58.4344 35.9705 58.3125C30.486 58.1109 28.4636 51.0089 33.0191 47.9483C35.7756 46.0963 37.0261 42.68 36.1166 39.4861C34.6135 34.2077 40.743 30.0897 45.0615 33.4765Z" fill="#FFEC88" stroke="black" stroke-width="2"/>
<circle cx="49.5" cy="48.5" r="5.5" fill="#FFA73F" stroke="black" stroke-width="2"/>
</svg>
