<svg width="79" height="55" viewBox="0 0 79 55" fill="none" xmlns="http://www.w3.org/2000/svg">
<mask id="path-1-inside-1_1_238" fill="white">
<path fill-rule="evenodd" clip-rule="evenodd" d="M52.6567 0H26.3302L22.8458 7.18182H0.302734V54.2626H78.7018V7.18182H55.5604L52.6567 0Z"/>
</mask>
<path fill-rule="evenodd" clip-rule="evenodd" d="M52.6567 0H26.3302L22.8458 7.18182H0.302734V54.2626H78.7018V7.18182H55.5604L52.6567 0Z" fill="#E8C2FF"/>
<path d="M26.3302 0V-2H25.0775L24.5308 -0.873015L26.3302 0ZM52.6567 0L54.5109 -0.749663L54.0054 -2H52.6567V0ZM22.8458 7.18182V9.18182H24.0984L24.6452 8.05483L22.8458 7.18182ZM0.302734 7.18182V5.18182H-1.69727V7.18182H0.302734ZM0.302734 54.2626H-1.69727V56.2626H0.302734V54.2626ZM78.7018 54.2626V56.2626H80.7018V54.2626H78.7018ZM78.7018 7.18182H80.7018V5.18182H78.7018V7.18182ZM55.5604 7.18182L53.7062 7.93148L54.2117 9.18182H55.5604V7.18182ZM26.3302 2H52.6567V-2H26.3302V2ZM24.6452 8.05483L28.1296 0.873015L24.5308 -0.873015L21.0464 6.3088L24.6452 8.05483ZM0.302734 9.18182H22.8458V5.18182H0.302734V9.18182ZM2.30273 54.2626V7.18182H-1.69727V54.2626H2.30273ZM78.7018 52.2626H0.302734V56.2626H78.7018V52.2626ZM76.7018 7.18182V54.2626H80.7018V7.18182H76.7018ZM55.5604 9.18182H78.7018V5.18182H55.5604V9.18182ZM50.8026 0.749663L53.7062 7.93148L57.4146 6.43216L54.5109 -0.749663L50.8026 0.749663Z" fill="black" mask="url(#path-1-inside-1_1_238)"/>
<path d="M51.8995 30.7617C51.8995 38.2583 46.0871 44.2617 39.006 44.2617C31.925 44.2617 26.1125 38.2583 26.1125 30.7617C26.1125 23.2652 31.925 17.2617 39.006 17.2617C46.0871 17.2617 51.8995 23.2652 51.8995 30.7617Z" fill="#E8C2FF" stroke="black" stroke-width="2"/>
<path d="M12.7038 15.5C12.7038 17.1605 11.369 18.5 9.73047 18.5C8.09191 18.5 6.7571 17.1605 6.7571 15.5C6.7571 13.8395 8.09191 12.5 9.73047 12.5C11.369 12.5 12.7038 13.8395 12.7038 15.5Z" fill="#E8C2FF" stroke="black"/>
<rect x="57.3691" y="13.7617" width="14.8783" height="2" fill="#E8C2FF" stroke="black"/>
</svg>
