<svg width="98" height="99" viewBox="0 0 98 99" fill="none" xmlns="http://www.w3.org/2000/svg">
<path d="M45.0619 34.168C47.675 36.2173 51.3105 36.3509 54.067 34.4989C58.6226 31.4383 64.4332 35.9952 62.5467 41.149C61.4052 44.2675 62.4016 47.7664 65.0147 49.8157C69.3333 53.2025 66.795 60.1369 61.3105 59.9353C57.9918 59.8134 54.9721 61.8422 53.8306 64.9607C51.9441 70.1145 44.5647 69.8433 43.0616 64.5649C42.1521 61.371 39.2894 59.126 35.9708 59.0041C30.4862 58.8025 28.4638 51.7005 33.0194 48.6398C35.7759 46.7878 37.0264 43.3715 36.1169 40.1776C34.6138 34.8993 40.7433 30.7812 45.0619 34.168Z" fill="#FFEC88" stroke="black" stroke-width="2"/>
<circle cx="49.5002" cy="49.1914" r="5.5" fill="#FFA73F" stroke="black" stroke-width="2"/>
</svg>
