<svg width="163" height="74" viewBox="0 0 163 74" fill="none" xmlns="http://www.w3.org/2000/svg">
<mask id="path-1-inside-1_1_198" fill="white">
<path fill-rule="evenodd" clip-rule="evenodd" d="M126.28 63.4299H-1.71593e-05C0.240789 28.3568 28.4172 0 63.1398 0C97.8623 0 126.039 28.3568 126.28 63.4299Z"/>
</mask>
<path fill-rule="evenodd" clip-rule="evenodd" d="M126.28 63.4299H-1.71593e-05C0.240789 28.3568 28.4172 0 63.1398 0C97.8623 0 126.039 28.3568 126.28 63.4299Z" fill="#FF9B52"/>
<path d="M126.28 63.4299L128.279 63.4161L128.293 65.4299H126.28V63.4299ZM-1.71593e-05 63.4299V65.4299H-2.0138L-1.99997 63.4161L-1.71593e-05 63.4299ZM126.28 65.4299H-1.71593e-05V61.4299H126.28V65.4299ZM63.1398 2C29.5389 2 2.23335 29.4471 1.99994 63.4436L-1.99997 63.4161C-1.75177 27.2665 27.2955 -2 63.1398 -2V2ZM124.28 63.4436C124.046 29.4471 96.7406 2 63.1398 2V-2C98.9841 -2 128.031 27.2665 128.279 63.4161L124.28 63.4436Z" fill="black" mask="url(#path-1-inside-1_1_198)"/>
<mask id="path-3-inside-2_1_198" fill="white">
<path fill-rule="evenodd" clip-rule="evenodd" d="M111.056 63.5328H13.435C13.6211 36.4194 35.403 14.498 62.2455 14.498C89.0879 14.498 110.87 36.4194 111.056 63.5328Z"/>
</mask>
<path fill-rule="evenodd" clip-rule="evenodd" d="M111.056 63.5328H13.435C13.6211 36.4194 35.403 14.498 62.2455 14.498C89.0879 14.498 110.87 36.4194 111.056 63.5328Z" fill="#C76BFF"/>
<path d="M111.056 63.5328L113.056 63.5191L113.07 65.5328H111.056V63.5328ZM13.435 63.5328V65.5328H11.4212L11.435 63.5191L13.435 63.5328ZM111.056 65.5328H13.435V61.5328H111.056V65.5328ZM62.2455 16.498C36.5247 16.498 15.6137 37.5097 15.4349 63.5465L11.435 63.5191C11.6286 35.3291 34.2813 12.498 62.2455 12.498V16.498ZM109.056 63.5465C108.877 37.5097 87.9662 16.498 62.2455 16.498V12.498C90.2096 12.498 112.862 35.3291 113.056 63.5191L109.056 63.5465Z" fill="black" mask="url(#path-3-inside-2_1_198)"/>
<mask id="path-5-inside-3_1_198" fill="white">
<path fill-rule="evenodd" clip-rule="evenodd" d="M99.4124 63.6169H25.0758C25.2176 42.9705 41.8041 26.2778 62.2441 26.2778C82.6841 26.2778 99.2706 42.9705 99.4124 63.6169Z"/>
</mask>
<path fill-rule="evenodd" clip-rule="evenodd" d="M99.4124 63.6169H25.0758C25.2176 42.9705 41.8041 26.2778 62.2441 26.2778C82.6841 26.2778 99.2706 42.9705 99.4124 63.6169Z" fill="#41BC64"/>
<path d="M99.4124 63.6169L101.412 63.6031L101.426 65.6169H99.4124V63.6169ZM25.0758 63.6169V65.6169H23.062L23.0759 63.6031L25.0758 63.6169ZM99.4124 65.6169H25.0758V61.6169H99.4124V65.6169ZM62.2441 28.2778C42.9258 28.2778 27.2101 44.0608 27.0758 63.6306L23.0759 63.6031C23.225 41.8803 40.6824 24.2778 62.2441 24.2778V28.2778ZM97.4125 63.6306C97.2781 44.0608 81.5624 28.2778 62.2441 28.2778V24.2778C83.8058 24.2778 101.263 41.8803 101.412 63.6031L97.4125 63.6306Z" fill="black" mask="url(#path-5-inside-3_1_198)"/>
<mask id="path-7-inside-4_1_198" fill="white">
<path fill-rule="evenodd" clip-rule="evenodd" d="M86.874 63.2569H38.5104C38.6026 49.8244 49.3939 38.9641 62.6922 38.9641C75.9905 38.9641 86.7817 49.8244 86.874 63.2569Z"/>
</mask>
<path fill-rule="evenodd" clip-rule="evenodd" d="M86.874 63.2569H38.5104C38.6026 49.8244 49.3939 38.9641 62.6922 38.9641C75.9905 38.9641 86.7817 49.8244 86.874 63.2569Z" fill="#FFC553"/>
<path d="M86.874 63.2569L88.8739 63.2432L88.8877 65.2569H86.874V63.2569ZM38.5104 63.2569V65.2569H36.4966L36.5104 63.2432L38.5104 63.2569ZM86.874 65.2569H38.5104V61.2569H86.874V65.2569ZM62.6922 40.9641C50.5156 40.9641 40.5952 50.9147 40.5103 63.2707L36.5104 63.2432C36.6101 48.7341 48.2721 36.9641 62.6922 36.9641V40.9641ZM84.874 63.2707C84.7891 50.9147 74.8688 40.9641 62.6922 40.9641V36.9641C77.1122 36.9641 88.7743 48.7341 88.8739 63.2432L84.874 63.2707Z" fill="black" mask="url(#path-7-inside-4_1_198)"/>
<path d="M79.8782 58.4682L79.8783 58.4687L79.8783 58.4689L80.229 60.3791L78.4731 59.5556L78.4728 59.5554L78.4717 59.5549L78.4709 59.5545L78.47 59.5541L78.4665 59.5526C78.4588 59.5491 78.4448 59.5429 78.4246 59.5344C78.3841 59.5173 78.3192 59.4907 78.2318 59.458C78.0568 59.3925 77.7929 59.3026 77.4558 59.2138C76.7797 59.0356 75.8216 58.865 74.7028 58.8963C72.4998 58.958 69.5971 59.8006 66.9238 63.1144C64.4044 66.2373 64.5144 68.5084 65.0495 69.9299C65.3321 70.6805 65.7598 71.2641 66.1228 71.6626C66.2691 71.8232 66.4022 71.9508 66.5066 72.0442L161.207 72.9943C161.28 72.8583 161.363 72.6908 161.446 72.4944C161.711 71.8718 161.982 70.9704 161.999 69.8665C162.033 67.7139 161.105 64.5526 156.679 61.0303C156.034 60.5169 155.104 60.2138 153.966 60.0966C152.839 59.9804 151.598 60.0561 150.422 60.2196C149.251 60.3824 148.177 60.6276 147.394 60.8331C147.003 60.9356 146.688 61.0275 146.471 61.0932C146.363 61.1261 146.28 61.1523 146.225 61.17L146.164 61.1899L146.149 61.1946L146.147 61.1954L146.147 61.1955L146.147 61.1955L146.146 61.1956L144.354 61.7996L144.864 59.9797L144.864 59.9792L144.864 59.9787L144.865 59.9779L144.865 59.9778L144.869 59.9633C144.872 59.9489 144.878 59.9253 144.886 59.8928C144.902 59.8279 144.926 59.728 144.953 59.5971C145.008 59.3351 145.077 58.9509 145.133 58.4768C145.245 57.5244 145.3 56.2318 145.079 54.8487C144.645 52.1262 143.159 49.0424 138.789 47.4344C134.314 45.788 130.447 46.6058 127.67 47.8483C126.278 48.4712 125.166 49.1989 124.405 49.7695C124.025 50.0543 123.734 50.2984 123.542 50.4683C123.445 50.5532 123.374 50.6195 123.328 50.6628C123.305 50.6844 123.288 50.7004 123.278 50.71L123.269 50.7196L123.269 50.7197L123.268 50.7202L123.268 50.7206L123.267 50.7209L122.055 51.9372L121.597 50.2815L121.597 50.2815L121.597 50.2811L121.597 50.2805L121.596 50.2783L121.591 50.26C121.588 50.2512 121.585 50.2398 121.581 50.2258C121.576 50.212 121.572 50.1958 121.566 50.1772C121.543 50.102 121.507 49.9883 121.457 49.8417C121.358 49.5482 121.203 49.1241 120.987 48.6149C120.554 47.5931 119.882 46.2455 118.922 44.9244C117.004 42.2824 114.028 39.8483 109.557 40.1379C105.01 40.4323 102.233 42.9152 100.559 45.3788C99.7178 46.6162 99.1636 47.84 98.8202 48.7558C98.6489 49.2124 98.5314 49.5889 98.4575 49.8474C98.4206 49.9766 98.3947 50.076 98.3785 50.1408C98.3704 50.1733 98.3648 50.197 98.3614 50.2116L98.358 50.2263L98.3579 50.2267L98.3577 50.2275L98.3576 50.228L98.3575 50.2283L97.7677 52.9337L96.4939 50.4756L96.4936 50.4751L96.4934 50.4746L96.493 50.4738L96.4878 50.4642C96.4822 50.4536 96.4726 50.436 96.459 50.4117C96.4319 50.3632 96.3892 50.2884 96.3308 50.1917C96.2138 49.9982 96.0349 49.7182 95.7942 49.3862C95.3112 48.7197 94.5897 47.8578 93.6347 47.0653C91.7417 45.4947 88.961 44.2093 85.2113 45.2224C81.6494 46.1847 80.262 49.2619 79.8047 52.4351C79.5788 54.0029 79.5965 55.5172 79.6732 56.6472C79.7114 57.2099 79.7638 57.6717 79.8062 57.9902C79.8274 58.1493 79.846 58.2723 79.859 58.3538L79.8621 58.3728C79.8672 58.4041 79.8712 58.4281 79.874 58.4442L79.8776 58.4647L79.8782 58.4682Z" fill="white" stroke="black" stroke-width="2"/>
</svg>
