<svg width="156" height="71" viewBox="0 0 156 71" fill="none" xmlns="http://www.w3.org/2000/svg">
<mask id="path-1-inside-1_1_197" fill="white">
<path fill-rule="evenodd" clip-rule="evenodd" d="M156 60.3088H35.1436C35.374 27.1316 62.3404 0.307617 95.5719 0.307617C128.803 0.307617 155.77 27.1316 156 60.3088Z"/>
</mask>
<path fill-rule="evenodd" clip-rule="evenodd" d="M156 60.3088H35.1436C35.374 27.1316 62.3404 0.307617 95.5719 0.307617C128.803 0.307617 155.77 27.1316 156 60.3088Z" fill="#FF9B52"/>
<path d="M35.1436 60.3088L33.1436 60.2949L33.1296 62.3088H35.1436V60.3088ZM156 60.3088V62.3088H158.014L158 60.2949L156 60.3088ZM35.1436 62.3088H156V58.3088H35.1436V62.3088ZM37.1435 60.3227C37.3663 28.2439 63.4403 2.30762 95.5719 2.30762V-1.69238C61.2405 -1.69238 33.3817 26.0194 33.1436 60.2949L37.1435 60.3227ZM95.5719 2.30762C127.703 2.30762 153.777 28.2439 154 60.3227L158 60.2949C157.762 26.0194 129.903 -1.69238 95.5719 -1.69238V2.30762Z" fill="black" mask="url(#path-1-inside-1_1_197)"/>
<mask id="path-3-inside-2_1_197" fill="white">
<path fill-rule="evenodd" clip-rule="evenodd" d="M143.142 60.4062H49.7134C49.8915 34.7584 70.738 14.022 96.4278 14.022C122.118 14.022 142.964 34.7584 143.142 60.4062Z"/>
</mask>
<path fill-rule="evenodd" clip-rule="evenodd" d="M143.142 60.4062H49.7134C49.8915 34.7584 70.738 14.022 96.4278 14.022C122.118 14.022 142.964 34.7584 143.142 60.4062Z" fill="#C76BFF"/>
<path d="M49.7134 60.4062L47.7134 60.3923L47.6994 62.4062H49.7134V60.4062ZM143.142 60.4062V62.4062H145.156L145.142 60.3923L143.142 60.4062ZM49.7134 62.4062H143.142V58.4062H49.7134V62.4062ZM51.7133 60.4201C51.8839 35.8707 71.838 16.022 96.4278 16.022V12.022C69.6381 12.022 47.8992 33.6462 47.7134 60.3923L51.7133 60.4201ZM96.4278 16.022C121.018 16.022 140.972 35.8707 141.142 60.4201L145.142 60.3923C144.956 33.6462 123.217 12.022 96.4278 12.022V16.022Z" fill="black" mask="url(#path-3-inside-2_1_197)"/>
<mask id="path-5-inside-3_1_197" fill="white">
<path fill-rule="evenodd" clip-rule="evenodd" d="M132.001 60.4858H60.8569C60.9926 40.9554 76.8668 25.165 96.4291 25.165C115.991 25.165 131.866 40.9554 132.001 60.4858Z"/>
</mask>
<path fill-rule="evenodd" clip-rule="evenodd" d="M132.001 60.4858H60.8569C60.9926 40.9554 76.8668 25.165 96.4291 25.165C115.991 25.165 131.866 40.9554 132.001 60.4858Z" fill="#41BC64"/>
<path d="M60.8569 60.4858L58.857 60.4719L58.843 62.4858H60.8569V60.4858ZM132.001 60.4858V62.4858H134.015L134.001 60.4719L132.001 60.4858ZM60.8569 62.4858H132.001V58.4858H60.8569V62.4858ZM62.8569 60.4996C62.9849 42.0677 77.9668 27.165 96.4291 27.165V23.165C75.7669 23.165 59.0003 39.8432 58.857 60.4719L62.8569 60.4996ZM96.4291 27.165C114.891 27.165 129.873 42.0677 130.001 60.4996L134.001 60.4719C133.858 39.8432 117.091 23.165 96.4291 23.165V27.165Z" fill="black" mask="url(#path-5-inside-3_1_197)"/>
<mask id="path-7-inside-4_1_197" fill="white">
<path fill-rule="evenodd" clip-rule="evenodd" d="M72.8569 60.1452H119.144C119.055 47.4388 108.728 37.1655 96.0003 37.1655C83.273 37.1655 72.9452 47.4388 72.8569 60.1452Z"/>
</mask>
<path fill-rule="evenodd" clip-rule="evenodd" d="M72.8569 60.1452H119.144C119.055 47.4388 108.728 37.1655 96.0003 37.1655C83.273 37.1655 72.9452 47.4388 72.8569 60.1452Z" fill="#FFC553"/>
<path d="M72.8569 60.1452L70.857 60.1313L70.843 62.1452H72.8569V60.1452ZM119.144 60.1452V62.1452H121.158L121.144 60.1313L119.144 60.1452ZM72.8569 62.1452H119.144V58.1452H72.8569V62.1452ZM96.0003 39.1655C107.628 39.1655 117.063 48.551 117.144 60.1591L121.144 60.1313C121.048 46.3265 109.827 35.1655 96.0003 35.1655V39.1655ZM74.8569 60.1591C74.9375 48.551 84.3729 39.1655 96.0003 39.1655V35.1655C82.1731 35.1655 70.9529 46.3265 70.857 60.1313L74.8569 60.1591Z" fill="black" mask="url(#path-7-inside-4_1_197)"/>
<path d="M79.5105 55.6035L79.5104 55.6041L79.5103 55.6042L79.5103 55.6044L79.1567 57.5082L80.9109 56.6949L80.9114 56.6947L80.9125 56.6942L80.9133 56.6938L80.9142 56.6934L80.9169 56.6923C80.9241 56.6891 80.9373 56.6833 80.9564 56.6753C80.9947 56.6593 81.0563 56.6344 81.1395 56.6036C81.306 56.542 81.5574 56.4574 81.8788 56.3737C82.5235 56.2058 83.4374 56.0449 84.5046 56.0744C86.6057 56.1325 89.3721 56.9266 91.9206 60.0488C94.3215 62.9904 94.2081 65.1152 93.7054 66.4348C93.4383 67.1359 93.0336 67.6821 92.6891 68.0559C92.5555 68.2009 92.4335 68.3172 92.3364 68.4036L1.73796 69.3021C1.67238 69.1794 1.59914 69.0308 1.52497 68.8584C1.27402 68.2749 1.01741 67.4305 1.00085 66.3966C0.968621 64.385 1.8441 61.4102 6.07182 58.0848C6.68053 57.606 7.56296 57.3202 8.6489 57.2096C9.72422 57.1001 10.9091 57.1714 12.0332 57.3259C13.1522 57.4797 14.1788 57.7113 14.9276 57.9055C15.301 58.0023 15.6029 58.0891 15.8097 58.1512C15.913 58.1822 15.9924 58.207 16.045 58.2237L16.1033 58.2424L16.1167 58.2468L16.1191 58.2476L16.1192 58.2476L16.1194 58.2477L16.1195 58.2477L17.913 58.8451L17.3976 57.0279L17.3975 57.0273L17.3973 57.0268L17.3972 57.0263L17.3971 57.026L17.3936 57.0131C17.3901 56.9998 17.3843 56.9778 17.3768 56.9474C17.3616 56.8867 17.3394 56.793 17.3134 56.67C17.2615 56.4237 17.1953 56.0622 17.142 55.6158C17.0351 54.719 16.9836 53.5026 17.1935 52.2018C17.6057 49.6466 19.0153 46.7456 23.1827 45.2301C27.4554 43.6762 31.1478 44.448 33.7992 45.6206C35.1284 46.2085 36.1896 46.8952 36.9162 47.4335C37.2789 47.7021 37.5562 47.9323 37.7398 48.0923C37.8316 48.1723 37.8998 48.2346 37.9433 48.2752C37.9651 48.2955 37.9807 48.3104 37.99 48.3194L37.9989 48.3279L37.9992 48.3283L37.9994 48.3285L37.9999 48.3289L38.0002 48.3293L39.2071 49.5262L39.6657 47.8887L39.6657 47.8886L39.6658 47.8882L39.666 47.8876L39.6665 47.886L39.6714 47.869C39.6762 47.8528 39.684 47.8267 39.6949 47.7915C39.7167 47.721 39.7509 47.614 39.7984 47.4759C39.8933 47.1995 40.0406 46.7998 40.2465 46.3197C40.6596 45.3561 41.3013 44.0854 42.2162 42.84C44.0449 40.3507 46.8809 38.0569 51.1458 38.3299C55.4855 38.6077 58.1327 40.9485 59.7275 43.2684C60.5291 44.4344 61.0575 45.5876 61.3849 46.4506C61.5481 46.8808 61.6601 47.2353 61.7304 47.4784C61.7655 47.5999 61.7901 47.6932 61.8054 47.7539C61.8131 47.7843 61.8184 47.8065 61.8216 47.8199L61.8247 47.8333L61.8247 47.8334L61.8249 47.8341L61.825 47.8346L61.8251 47.8351L62.4148 50.5085L63.6859 48.0841L63.6862 48.0835L63.6863 48.0833L63.6865 48.083L63.6869 48.0823L63.6914 48.0739C63.6935 48.0701 63.6962 48.0652 63.6995 48.0593C63.7045 48.0502 63.7108 48.0388 63.7186 48.0251C63.7442 47.9797 63.7848 47.9095 63.8403 47.8187C63.9515 47.6368 64.1219 47.3732 64.3512 47.0606C64.8116 46.4327 65.4993 45.6207 66.4096 44.8742C68.2128 43.3953 70.8631 42.1834 74.4399 43.1385C77.8265 44.0429 79.1448 46.9301 79.5803 49.9177C79.7957 51.3948 79.7789 52.8224 79.7057 53.8884C79.6693 54.419 79.6193 54.8545 79.5788 55.1546C79.5587 55.3045 79.5409 55.4203 79.5285 55.4969C79.5265 55.5096 79.5245 55.5213 79.5228 55.5319C79.5193 55.553 79.5164 55.5696 79.5143 55.5816L79.511 55.6007L79.5105 55.6035ZM1.98446 69.7094C1.98466 69.7097 1.98383 69.7086 1.98203 69.7061L1.98224 69.7065L1.98337 69.708L1.98446 69.7094Z" fill="white" stroke="black" stroke-width="2"/>
</svg>
