<svg width="79" height="55" viewBox="0 0 79 55" fill="none" xmlns="http://www.w3.org/2000/svg">
<mask id="path-1-inside-1_10_116" fill="white">
<path fill-rule="evenodd" clip-rule="evenodd" d="M52.354 0H26.0274L22.543 7.18182H0V54.2626H78.399V7.18182H55.2577L52.354 0Z"/>
</mask>
<path fill-rule="evenodd" clip-rule="evenodd" d="M52.354 0H26.0274L22.543 7.18182H0V54.2626H78.399V7.18182H55.2577L52.354 0Z" fill="#E8C2FF"/>
<path d="M26.0274 0V-2H24.7748L24.228 -0.873015L26.0274 0ZM52.354 0L54.2082 -0.749663L53.7027 -2H52.354V0ZM22.543 7.18182V9.18182H23.7956L24.3424 8.05483L22.543 7.18182ZM0 7.18182V5.18182H-2V7.18182H0ZM0 54.2626H-2V56.2626H0V54.2626ZM78.399 54.2626V56.2626H80.399V54.2626H78.399ZM78.399 7.18182H80.399V5.18182H78.399V7.18182ZM55.2577 7.18182L53.4035 7.93148L53.909 9.18182H55.2577V7.18182ZM26.0274 2H52.354V-2H26.0274V2ZM24.3424 8.05483L27.8268 0.873015L24.228 -0.873015L20.7436 6.3088L24.3424 8.05483ZM0 9.18182H22.543V5.18182H0V9.18182ZM2 54.2626V7.18182H-2V54.2626H2ZM78.399 52.2626H0V56.2626H78.399V52.2626ZM76.399 7.18182V54.2626H80.399V7.18182H76.399ZM55.2577 9.18182H78.399V5.18182H55.2577V9.18182ZM50.4998 0.749663L53.4035 7.93148L57.1119 6.43216L54.2082 -0.749663L50.4998 0.749663Z" fill="black" mask="url(#path-1-inside-1_10_116)"/>
<rect x="57.0664" y="13.7617" width="14.8783" height="2" fill="#E8C2FF" stroke="black"/>
<path d="M12.4011 15.5C12.4011 17.1605 11.0663 18.5 9.42772 18.5C7.78916 18.5 6.45435 17.1605 6.45435 15.5C6.45435 13.8395 7.78916 12.5 9.42772 12.5C11.0663 12.5 12.4011 13.8395 12.4011 15.5Z" fill="#E8C2FF" stroke="black"/>
<path d="M51.5968 30.7617C51.5968 38.2583 45.7844 44.2617 38.7033 44.2617C31.6223 44.2617 25.8098 38.2583 25.8098 30.7617C25.8098 23.2652 31.6223 17.2617 38.7033 17.2617C45.7844 17.2617 51.5968 23.2652 51.5968 30.7617Z" fill="#E8C2FF" stroke="black" stroke-width="2"/>
</svg>
