<svg width="78" height="54" viewBox="0 0 78 54" fill="none" xmlns="http://www.w3.org/2000/svg">
<mask id="path-1-inside-1_10_123" fill="white">
<path fill-rule="evenodd" clip-rule="evenodd" d="M52.8207 0H23.8736L20.0423 7.09091H0V53.5758H77.4066V7.09091H56.0134L52.8207 0Z"/>
</mask>
<path fill-rule="evenodd" clip-rule="evenodd" d="M52.8207 0H23.8736L20.0423 7.09091H0V53.5758H77.4066V7.09091H56.0134L52.8207 0Z" fill="#E8C2FF"/>
<path d="M23.8736 0V-2H22.6809L22.114 -0.95071L23.8736 0ZM52.8207 0L54.6444 -0.821112L54.1136 -2H52.8207V0ZM20.0423 7.09091V9.09091H21.235L21.8019 8.04162L20.0423 7.09091ZM0 7.09091V5.09091H-2V7.09091H0ZM0 53.5758H-2V55.5758H0V53.5758ZM77.4066 53.5758V55.5758H79.4066V53.5758H77.4066ZM77.4066 7.09091H79.4066V5.09091H77.4066V7.09091ZM56.0134 7.09091L54.1897 7.91202L54.7205 9.09091H56.0134V7.09091ZM23.8736 2H52.8207V-2H23.8736V2ZM21.8019 8.04162L25.6332 0.95071L22.114 -0.95071L18.2827 6.1402L21.8019 8.04162ZM0 9.09091H20.0423V5.09091H0V9.09091ZM2 53.5758V7.09091H-2V53.5758H2ZM77.4066 51.5758H0V55.5758H77.4066V51.5758ZM75.4066 7.09091V53.5758H79.4066V7.09091H75.4066ZM56.0134 9.09091H77.4066V5.09091H56.0134V9.09091ZM50.997 0.821112L54.1897 7.91202L57.8371 6.2698L54.6444 -0.821112L50.997 0.821112Z" fill="black" mask="url(#path-1-inside-1_10_123)"/>
<rect x="7.44675" y="14.5" width="15.8707" height="2" fill="#E8C2FF" stroke="black"/>
<path d="M70.9523 16.5C70.9523 18.1605 69.6175 19.5 67.9789 19.5C66.3403 19.5 65.0055 18.1605 65.0055 16.5C65.0055 14.8395 66.3403 13.5 67.9789 13.5C69.6175 13.5 70.9523 14.8395 70.9523 16.5Z" fill="#E8C2FF" stroke="black"/>
<path d="M51.5968 31.5C51.5968 38.9631 45.5948 45 38.2071 45C30.8194 45 24.8174 38.9631 24.8174 31.5C24.8174 24.0369 30.8194 18 38.2071 18C45.5948 18 51.5968 24.0369 51.5968 31.5Z" fill="#E8C2FF" stroke="black" stroke-width="2"/>
</svg>
