<svg width="95" height="33" viewBox="0 0 95 33" fill="none" xmlns="http://www.w3.org/2000/svg">
<path d="M1.98187 32.4028C1.98158 32.4024 1.9808 32.4013 1.97955 32.3995L1.97975 32.3999L1.98089 32.4014L1.98187 32.4028ZM1.98187 32.4028C1.98199 32.4029 1.98203 32.403 1.98197 32.4029L1.98187 32.4028ZM79.2868 18.2964L79.2867 18.297L79.2867 18.297L79.2866 18.2972L78.9337 20.2025L80.6882 19.3869L80.6887 19.3867L80.6899 19.3861L80.6907 19.3858L80.6916 19.3853L80.6942 19.3842C80.7013 19.3811 80.7145 19.3753 80.7335 19.3673C80.7716 19.3514 80.833 19.3265 80.9159 19.2957C81.0818 19.2341 81.3324 19.1495 81.6528 19.0659C82.2953 18.8981 83.2061 18.7373 84.2697 18.7668C86.3633 18.8249 89.1211 19.6181 91.6622 22.7401C94.0564 25.6817 93.9438 27.8073 93.4422 29.1281C93.1758 29.8294 92.7721 30.3756 92.4287 30.7493C92.2959 30.8938 92.1747 31.0097 92.0781 31.096L1.73557 31.9944C1.6703 31.8719 1.59746 31.7237 1.52369 31.5517C1.27337 30.9681 1.01737 30.1234 1.00085 29.089C0.968689 27.0762 1.84234 24.1013 6.05774 20.7763C6.66411 20.298 7.54318 20.0125 8.62543 19.902C9.69718 19.7925 10.8783 19.8638 11.999 20.0182C13.1146 20.172 14.1382 20.4036 14.8848 20.5977C15.2571 20.6945 15.558 20.7813 15.7642 20.8433C15.8672 20.8744 15.9464 20.8991 15.9988 20.9158L16.057 20.9345L16.0702 20.9389L16.0726 20.9397L16.0728 20.9397L16.0729 20.9398L16.0731 20.9398L17.8663 21.5388L17.3522 19.7209L17.352 19.7204L17.3519 19.7198L17.3518 19.7194L17.3517 19.719L17.3482 19.7061C17.347 19.7015 17.3455 19.6958 17.3437 19.6891C17.3404 19.6765 17.3363 19.6602 17.3314 19.6405C17.3163 19.5797 17.2941 19.4859 17.2682 19.3629C17.2164 19.1166 17.1503 18.755 17.0972 18.3086C16.9906 17.4116 16.9392 16.1949 17.1486 14.8938C17.5599 12.3373 18.966 9.43706 23.1201 7.92215C27.3793 6.36889 31.0599 7.1403 33.7033 8.31261C35.0285 8.90033 36.0864 9.58691 36.811 10.1251C37.1725 10.3937 37.449 10.6238 37.6321 10.7838C37.7236 10.8637 37.7916 10.926 37.835 10.9666C37.8567 10.9869 37.8723 11.0018 37.8816 11.0108L37.8904 11.0193L37.8907 11.0197L37.8909 11.0199L37.8914 11.0203L37.8918 11.0207L39.0998 12.2222L39.5584 10.5804L39.5584 10.5803L39.5585 10.5799L39.5587 10.5793L39.5592 10.5776L39.5641 10.5607C39.5688 10.5444 39.5766 10.5184 39.5875 10.4831C39.6093 10.4126 39.6434 10.3056 39.6907 10.1675C39.7854 9.89108 39.9323 9.49135 40.1377 9.01112C40.5497 8.04745 41.1896 6.77668 42.1019 5.5313C43.9258 3.04166 46.753 0.749462 51.0034 1.02227C55.3288 1.29989 57.968 3.63958 59.5586 5.95973C60.358 7.12573 60.8849 8.27904 61.2115 9.1421C61.3743 9.57236 61.4859 9.92694 61.556 10.1701C61.591 10.2916 61.6156 10.3849 61.6309 10.4457C61.6385 10.476 61.6439 10.4982 61.647 10.5117L61.6502 10.5251L61.6502 10.5252L61.6503 10.5259L61.6505 10.5264L61.6506 10.5269L62.2403 13.2078L63.512 10.7755L63.5123 10.7749L63.5124 10.7747L63.5126 10.7744L63.513 10.7736L63.5175 10.7653C63.5228 10.7556 63.5318 10.7391 63.5446 10.7164C63.5701 10.6711 63.6106 10.6009 63.666 10.51C63.7769 10.3281 63.9468 10.0645 64.1755 9.75187C64.6346 9.12404 65.3204 8.31205 66.2279 7.56567C68.0258 6.08706 70.6672 4.87621 74.2317 5.83074C77.6067 6.7345 78.9219 9.62064 79.3565 12.6097C79.5712 14.087 79.5545 15.5149 79.4815 16.5809C79.4452 17.1117 79.3953 17.5472 79.355 17.8473C79.3349 17.9973 79.3171 18.1131 79.3048 18.1897C79.2986 18.228 79.2938 18.2564 79.2906 18.2744L79.2873 18.2935L79.2868 18.2964Z" fill="white" stroke="black" stroke-width="2"/>
</svg>
