<svg width="78" height="27" viewBox="0 0 78 27" fill="none" xmlns="http://www.w3.org/2000/svg">
<path d="M64.7634 14.9383L64.7633 14.9389L64.7633 14.9392L64.7633 14.9393L64.4128 16.8496L66.1675 16.0261L66.1687 16.0255L66.17 16.0249L66.1707 16.0246C66.1754 16.0226 66.1849 16.0184 66.1991 16.0123C66.2276 16.0003 66.2748 15.9809 66.3393 15.9568C66.4684 15.9084 66.6653 15.8413 66.9179 15.7747C67.4249 15.641 68.1441 15.5129 68.9833 15.5364C70.6271 15.5824 72.808 16.2081 74.8308 18.7168C76.7368 21.0806 76.6271 22.7554 76.2451 23.7704C76.0392 24.3178 75.7264 24.7455 75.4593 25.039C75.3793 25.1268 75.3048 25.201 75.2408 25.2612L2.21021 25.9942C2.17376 25.9206 2.13532 25.8378 2.09649 25.7465C1.90055 25.2854 1.69967 24.6167 1.6867 23.7973C1.66164 22.2138 2.33737 19.8296 5.71692 17.1387C6.16877 16.779 6.83995 16.5526 7.69738 16.4642C8.54465 16.3769 9.48487 16.4334 10.3844 16.5585C11.2788 16.6829 12.1005 16.8705 12.7007 17.028C12.9997 17.1065 13.2412 17.1768 13.4062 17.227C13.4887 17.252 13.5519 17.272 13.5934 17.2854L13.6392 17.3002L13.6493 17.3036L13.6506 17.304L13.6509 17.3041L13.6511 17.3042L13.6511 17.3042L15.4434 17.9085L14.9336 16.0888L14.9334 16.0882L14.9334 16.0881L14.9332 16.0875L14.933 16.0866L14.9309 16.0787C14.9283 16.0687 14.9238 16.0516 14.918 16.0277C14.9062 15.98 14.8887 15.9053 14.8682 15.8068C14.8271 15.6096 14.7744 15.3188 14.7321 14.9594C14.6469 14.2362 14.6062 13.2576 14.7727 12.2132C15.0986 10.1683 16.2057 7.86176 19.4932 6.65153C22.8854 5.4028 25.8142 6.02174 27.9234 6.96601C28.9817 7.43978 29.827 7.9935 30.4057 8.42743C30.6943 8.64387 30.9146 8.82895 31.0597 8.95693C31.1322 9.02087 31.1857 9.0704 31.2195 9.10227C31.2363 9.1182 31.2482 9.1297 31.2551 9.13636L31.2602 9.14141L31.2608 9.14199L31.2613 9.14245L31.2615 9.14267L31.2618 9.14301L32.4739 10.3598L32.9321 8.7038L32.9322 8.70348L32.9323 8.70302L32.9325 8.70235L32.9326 8.70209L32.9363 8.68935C32.9381 8.68317 32.9405 8.67504 32.9434 8.66502C32.9465 8.65472 32.9502 8.64242 32.9546 8.6282C32.9717 8.57211 32.9988 8.48627 33.0366 8.37507C33.1121 8.15244 33.2297 7.82949 33.3942 7.4411C33.7246 6.66105 34.2371 5.6342 34.9663 4.62944C36.4246 2.61988 38.6606 0.800613 42.0129 1.01781C45.4412 1.23993 47.5329 3.10804 48.8011 4.97533C49.439 5.91453 49.8601 6.84464 50.1212 7.54134C50.2513 7.8884 50.3404 8.17397 50.3961 8.36896C50.4239 8.46635 50.4433 8.54083 50.4552 8.58873C50.4612 8.61267 50.4653 8.62994 50.4677 8.64008L50.4696 8.64859L50.4698 8.64937L50.4699 8.64987L50.4699 8.64997L50.4701 8.65063L51.0598 11.3569L52.3336 8.89774L52.3336 8.89768L52.334 8.89695L52.3343 8.89635L52.3347 8.89561L52.3371 8.89116C52.3409 8.88402 52.3478 8.87139 52.3576 8.85369C52.3774 8.81826 52.4092 8.76265 52.4529 8.6902C52.5406 8.54511 52.6756 8.33373 52.8575 8.08251C53.2234 7.57753 53.769 6.92569 54.4894 6.32758C55.9132 5.14557 57.9902 4.18569 60.8015 4.94562C63.425 5.65481 64.4698 7.91848 64.8188 10.3419C64.9906 11.5347 64.9774 12.6899 64.9188 13.5544C64.8897 13.9844 64.8496 14.337 64.8174 14.5794C64.8013 14.7005 64.7872 14.7937 64.7774 14.855C64.7725 14.8856 64.7687 14.9082 64.7662 14.9223L64.7637 14.9369L64.7634 14.9383ZM2.44773 26.4073C2.44831 26.4081 2.44807 26.4078 2.44705 26.4064L2.44773 26.4073Z" fill="white" stroke="black" stroke-width="2"/>
</svg>
