<svg width="98" height="98" viewBox="0 0 98 98" fill="none" xmlns="http://www.w3.org/2000/svg">
<path d="M45.0619 33.4766C47.675 35.5259 51.3105 35.6595 54.067 33.8075C58.6226 30.7469 64.4332 35.3038 62.5467 40.4576C61.4052 43.5761 62.4016 47.075 65.0147 49.1243C69.3333 52.5111 66.795 59.4455 61.3105 59.2439C57.9918 59.122 54.9721 61.1508 53.8306 64.2693C51.9441 69.4231 44.5647 69.1519 43.0616 63.8735C42.1521 60.6796 39.2894 58.4346 35.9708 58.3126C30.4862 58.1111 28.4638 51.009 33.0194 47.9484C35.7759 46.0964 37.0264 42.6801 36.1169 39.4862C34.6138 34.2078 40.7433 30.0898 45.0619 33.4766Z" fill="#FFEC88" stroke="black" stroke-width="2"/>
<circle cx="49.5002" cy="48.5" r="5.5" fill="#FFA73F" stroke="black" stroke-width="2"/>
</svg>
