<svg width="83" height="83" viewBox="0 0 83 83" fill="none" xmlns="http://www.w3.org/2000/svg">
<path d="M38.0701 28.473C40.3354 30.2496 43.4871 30.3654 45.8768 28.76C49.612 26.2505 54.3762 29.9868 52.8294 34.2125C51.8399 36.916 52.7036 39.9492 54.9689 41.7257C58.5099 44.5026 56.4287 50.1883 51.9318 50.023C49.0548 49.9173 46.437 51.6761 45.4474 54.3795C43.9006 58.6053 37.8501 58.3829 36.6177 54.055C35.8292 51.2862 33.3475 49.34 30.4706 49.2343C25.9737 49.069 24.3155 43.2459 28.0507 40.7364C30.4403 39.1309 31.5244 36.1693 30.7359 33.4005C29.5035 29.0726 34.5292 25.6961 38.0701 28.473Z" fill="white" stroke="black" stroke-width="2"/>
<circle cx="42.3199" cy="41.324" r="5.47243" fill="#FFA73F" stroke="black" stroke-width="2"/>
</svg>
