<svg width="74" height="74" viewBox="0 0 74 74" fill="none" xmlns="http://www.w3.org/2000/svg">
<path d="M46.3182 23.6961C46.476 27.0528 48.7772 29.9261 52.0183 30.8133C57.397 32.2856 57.7493 39.7806 52.5324 41.751C49.3888 42.9383 47.3672 46.0148 47.525 49.3714C47.7868 54.9419 40.7676 57.593 37.2816 53.2403C35.1809 50.6174 31.6303 49.6455 28.4867 50.8328C23.2698 52.8032 18.5794 46.9467 21.6418 42.2863C23.4871 39.4779 23.3143 35.8007 21.2136 33.1779C17.7276 28.8252 21.848 22.5546 27.2267 24.0269C30.4678 24.9142 33.9116 23.6135 35.757 20.8051C38.8194 16.1447 46.0564 18.1257 46.3182 23.6961Z" fill="#FF88BA" stroke="black" stroke-width="2"/>
<circle cx="37.6762" cy="36.1376" r="5.53725" transform="rotate(45 37.6762 36.1376)" fill="#FBFF3F" stroke="black" stroke-width="2"/>
</svg>
