<svg width="1213" height="404" viewBox="0 0 1213 404" fill="none" xmlns="http://www.w3.org/2000/svg">
<path d="M1172.68 367.844L1172.68 367.844L1174.01 369.175L1174.01 369.175L1174.01 369.172L1174.04 369.159C1174.07 369.147 1174.11 369.128 1174.17 369.104C1174.28 369.056 1174.44 368.985 1174.66 368.897C1175.09 368.72 1175.73 368.474 1176.52 368.199C1178.11 367.649 1180.33 366.99 1182.85 366.552C1187.94 365.668 1194.04 365.715 1198.75 369.08C1207.53 375.35 1209.33 383.171 1208.96 389.454C1208.77 392.616 1208.03 395.395 1207.34 397.387C1206.99 398.381 1206.66 399.174 1206.41 399.715C1206.37 399.819 1206.32 399.915 1206.28 400H1005.69C1005.65 399.93 1005.61 399.853 1005.56 399.767C1005.31 399.31 1004.96 398.635 1004.61 397.779C1003.9 396.064 1003.16 393.646 1003.02 390.819C1002.76 385.239 1004.84 377.869 1014.74 371.053C1020.02 367.42 1025.98 366.932 1030.69 367.383C1033.04 367.607 1035.05 368.063 1036.48 368.463C1037.19 368.663 1037.75 368.848 1038.14 368.981C1038.33 369.048 1038.47 369.102 1038.57 369.139C1038.59 369.147 1038.61 369.155 1038.63 369.161C1038.65 369.169 1038.66 369.175 1038.67 369.18L1038.7 369.19L1038.7 369.192L1038.7 369.192L1038.7 369.192L1038.7 369.192L1040.43 369.898L1040.06 368.071L1040.06 368.071L1040.06 368.071L1040.06 368.07L1040.06 368.064L1040.06 368.031C1040.05 367.999 1040.04 367.951 1040.03 367.886C1040.01 367.756 1039.98 367.56 1039.94 367.305C1039.88 366.795 1039.79 366.05 1039.75 365.126C1039.65 363.276 1039.69 360.722 1040.22 357.908C1041.28 352.292 1044.29 345.674 1052.13 341.449C1059.95 337.229 1067.47 338.418 1073.1 340.708C1075.92 341.854 1078.25 343.269 1079.87 344.399C1080.68 344.963 1081.32 345.454 1081.74 345.802C1081.96 345.976 1082.12 346.113 1082.22 346.206C1082.28 346.252 1082.32 346.287 1082.34 346.31L1082.37 346.335L1082.38 346.34L1082.38 346.34L1082.38 346.341L1082.38 346.341L1083.65 347.514L1084.03 345.822L1084.03 345.822L1084.03 345.822L1084.03 345.821L1084.03 345.813L1084.04 345.772C1084.05 345.734 1084.06 345.676 1084.08 345.599C1084.12 345.444 1084.19 345.213 1084.27 344.916C1084.45 344.322 1084.73 343.467 1085.13 342.437C1085.94 340.376 1087.25 337.631 1089.25 334.892C1093.23 329.435 1099.96 324 1111.05 324C1122.12 324 1127.86 329.407 1130.89 334.793C1132.42 337.51 1133.26 340.237 1133.72 342.291C1133.95 343.316 1134.08 344.168 1134.16 344.759C1134.2 345.055 1134.22 345.285 1134.23 345.439C1134.24 345.516 1134.24 345.573 1134.25 345.61L1134.25 345.651L1134.25 345.659L1134.25 345.66L1134.25 345.66L1134.37 347.786L1135.93 346.339L1135.93 346.339L1135.93 346.338L1135.93 346.338L1135.93 346.336L1135.95 346.32C1135.97 346.305 1135.99 346.281 1136.03 346.248C1136.1 346.184 1136.22 346.086 1136.37 345.962C1136.68 345.712 1137.15 345.356 1137.76 344.942C1138.99 344.112 1140.81 343.05 1143.13 342.139C1147.77 340.32 1154.45 339.097 1162.59 341.527C1167.6 343.019 1170.65 345.403 1172.48 348.072C1174.31 350.752 1174.97 353.811 1175.01 356.752C1175.05 359.695 1174.47 362.473 1173.87 364.529C1173.57 365.553 1173.27 366.39 1173.05 366.967C1172.94 367.256 1172.84 367.479 1172.78 367.628C1172.75 367.703 1172.72 367.759 1172.71 367.795L1172.69 367.835L1172.68 367.843L1172.68 367.844ZM1171.53 370.313L1174.01 369.175L1171.53 370.313Z" fill="white" stroke="black" stroke-width="2"/>
<path d="M997.684 204.844L997.684 204.844L999.008 206.175L999.008 206.175L999.015 206.172L999.044 206.159C999.071 206.147 999.112 206.128 999.167 206.104C999.278 206.056 999.444 205.985 999.661 205.897C1000.09 205.72 1000.73 205.474 1001.52 205.199C1003.11 204.649 1005.33 203.99 1007.85 203.552C1012.94 202.668 1019.04 202.715 1023.75 206.08C1032.53 212.35 1034.33 220.171 1033.96 226.454C1033.77 229.616 1033.03 232.395 1032.34 234.387C1031.99 235.381 1031.66 236.174 1031.41 236.715C1031.37 236.819 1031.32 236.915 1031.28 237H830.692C830.652 236.93 830.608 236.853 830.56 236.767C830.307 236.31 829.962 235.635 829.607 234.779C828.897 233.064 828.156 230.646 828.022 227.819C827.756 222.239 829.839 214.869 839.74 208.053C845.017 204.42 850.978 203.932 855.688 204.383C858.037 204.607 860.052 205.063 861.479 205.463C862.191 205.663 862.754 205.848 863.136 205.981C863.327 206.048 863.472 206.102 863.568 206.139C863.59 206.147 863.609 206.155 863.626 206.161C863.646 206.169 863.662 206.175 863.674 206.18L863.699 206.19L863.703 206.192L863.703 206.192L863.704 206.192L863.704 206.192L865.428 206.898L865.063 205.071L865.063 205.071L865.063 205.071L865.063 205.07L865.062 205.064L865.055 205.031C865.05 204.999 865.041 204.951 865.03 204.886C865.008 204.756 864.977 204.56 864.943 204.305C864.875 203.795 864.795 203.05 864.747 202.126C864.652 200.276 864.69 197.722 865.222 194.908C866.283 189.292 869.293 182.674 877.128 178.449C884.952 174.229 892.471 175.418 898.105 177.708C900.923 178.854 903.251 180.269 904.874 181.399C905.684 181.963 906.316 182.454 906.743 182.802C906.956 182.976 907.118 183.113 907.225 183.206C907.278 183.252 907.318 183.287 907.343 183.31L907.371 183.335L907.376 183.34L907.377 183.34L907.377 183.341L907.377 183.341L908.653 184.514L909.029 182.822L909.029 182.822L909.03 182.822L909.03 182.821L909.032 182.813L909.041 182.772C909.05 182.734 909.064 182.676 909.084 182.599C909.124 182.444 909.186 182.213 909.274 181.916C909.449 181.322 909.726 180.467 910.129 179.437C910.937 177.376 912.245 174.631 914.246 171.892C918.232 166.435 924.955 161 936.048 161C947.116 161 952.859 166.407 955.889 171.793C957.418 174.51 958.261 177.237 958.721 179.291C958.951 180.316 959.084 181.168 959.159 181.759C959.197 182.055 959.22 182.285 959.233 182.439C959.24 182.516 959.245 182.573 959.247 182.61L959.25 182.651L959.251 182.659L959.251 182.66L959.251 182.66L959.367 184.786L960.928 183.339L960.928 183.339L960.928 183.338L960.929 183.338L960.931 183.336L960.948 183.32C960.965 183.305 960.992 183.281 961.03 183.248C961.105 183.184 961.22 183.086 961.375 182.962C961.684 182.712 962.151 182.356 962.765 181.942C963.993 181.112 965.808 180.05 968.132 179.139C972.771 177.32 979.447 176.097 987.592 178.527C992.595 180.019 995.65 182.403 997.477 185.072C999.312 187.752 999.972 190.811 1000.01 193.752C1000.05 196.695 999.473 199.473 998.873 201.529C998.574 202.553 998.274 203.39 998.049 203.967C997.936 204.256 997.843 204.479 997.779 204.628C997.747 204.703 997.722 204.759 997.706 204.795L997.688 204.835L997.684 204.843L997.684 204.844ZM996.532 207.313L999.007 206.175L996.532 207.313Z" fill="white" stroke="black" stroke-width="2"/>
<path d="M1175.68 49.8436L1175.68 49.8442L1177.01 51.1749L1177.01 51.1746L1177.01 51.1717L1177.04 51.1586C1177.07 51.1465 1177.11 51.1282 1177.17 51.1041C1177.28 51.0561 1177.44 50.9852 1177.66 50.8969C1178.09 50.7201 1178.73 50.4736 1179.52 50.199C1181.11 49.6491 1183.33 48.9904 1185.85 48.5519C1190.94 47.6679 1197.04 47.7148 1201.75 51.0801C1210.53 57.3495 1212.33 65.1712 1211.96 71.4543C1211.77 74.6164 1211.03 77.3952 1210.34 79.3865C1209.99 80.3805 1209.66 81.1736 1209.41 81.7145C1209.37 81.8193 1209.32 81.9146 1209.28 82H1008.69C1008.65 81.9303 1008.61 81.8526 1008.56 81.7673C1008.31 81.31 1007.96 80.6346 1007.61 79.7789C1006.9 78.0644 1006.16 75.6462 1006.02 72.8195C1005.76 67.2388 1007.84 59.869 1017.74 53.0529C1023.02 49.4204 1028.98 48.9323 1033.69 49.3825C1036.04 49.6071 1038.05 50.0633 1039.48 50.4631C1040.19 50.6628 1040.75 50.8477 1041.14 50.9815C1041.33 51.0483 1041.47 51.1024 1041.57 51.1389C1041.59 51.1473 1041.61 51.1547 1041.63 51.1612C1041.65 51.1689 1041.66 51.1752 1041.67 51.1801L1041.7 51.1898L1041.7 51.1916L1041.7 51.1917L1041.7 51.1918L1041.7 51.1919L1043.43 51.8983L1043.06 50.0713L1043.06 50.0711L1043.06 50.0705L1043.06 50.0704L1043.06 50.0639L1043.06 50.0305C1043.05 49.9995 1043.04 49.9511 1043.03 49.8861C1043.01 49.7562 1042.98 49.5602 1042.94 49.3053C1042.88 48.7953 1042.79 48.0503 1042.75 47.1264C1042.65 45.276 1042.69 42.7224 1043.22 39.9078C1044.28 34.2922 1047.29 27.6739 1055.13 23.4485C1062.95 19.2291 1070.47 20.4178 1076.1 22.7079C1078.92 23.8535 1081.25 25.2688 1082.87 26.3989C1083.68 26.9631 1084.32 27.4543 1084.74 27.8018C1084.96 27.9755 1085.12 28.1132 1085.22 28.2059C1085.28 28.2523 1085.32 28.2874 1085.34 28.3102L1085.37 28.335L1085.38 28.3402L1085.38 28.3404L1085.38 28.3408L1085.38 28.3409L1086.65 29.5144L1087.03 27.8224L1087.03 27.8222L1087.03 27.8215L1087.03 27.8211L1087.03 27.8126L1087.04 27.7718C1087.05 27.7343 1087.06 27.6761 1087.08 27.5988C1087.12 27.4442 1087.19 27.2129 1087.27 26.9161C1087.45 26.3221 1087.73 25.4667 1088.13 24.4372C1088.94 22.3755 1090.25 19.631 1092.25 16.892C1096.23 11.4353 1102.96 6 1114.05 6C1125.12 6 1130.86 11.407 1133.89 16.7926C1135.42 19.5098 1136.26 22.2369 1136.72 24.291C1136.95 25.316 1137.08 26.1678 1137.16 26.7593C1137.2 27.0549 1137.22 27.285 1137.23 27.4387C1137.24 27.5155 1137.24 27.5732 1137.25 27.6104L1137.25 27.6506L1137.25 27.659L1137.25 27.6597L1137.25 27.6599L1137.37 29.7857L1138.93 28.3388L1138.93 28.3387L1138.93 28.3384L1138.93 28.3378L1138.93 28.336L1138.95 28.3201C1138.97 28.305 1138.99 28.2808 1139.03 28.2485C1139.1 28.1837 1139.22 28.086 1139.37 27.9616C1139.68 27.7125 1140.15 27.3565 1140.76 26.9417C1141.99 26.1117 1143.81 25.0499 1146.13 24.1388C1150.77 22.3199 1157.45 21.0966 1165.59 23.5266C1170.6 25.0192 1173.65 27.4035 1175.48 30.0718C1177.31 32.7516 1177.97 35.8115 1178.01 38.7517C1178.05 41.6952 1177.47 44.4735 1176.87 46.5287C1176.57 47.5531 1176.27 48.3896 1176.05 48.967C1175.94 49.2556 1175.84 49.4789 1175.78 49.6281C1175.75 49.7027 1175.72 49.7587 1175.71 49.795L1175.69 49.8345L1175.68 49.8429L1175.68 49.8436ZM1174.53 52.3127L1177.01 51.175L1174.53 52.3127Z" fill="white" stroke="black" stroke-width="2"/>
<path d="M673.044 49.9727L673.044 49.9721L673.044 49.9718L673.047 49.9638L673.058 49.9251C673.069 49.8893 673.084 49.8338 673.105 49.7598C673.145 49.6117 673.203 49.3895 673.27 49.102C673.405 48.5267 673.577 47.6923 673.72 46.6697C674.008 44.6196 674.179 41.8399 673.729 38.8886C673.279 35.9407 672.215 32.8478 670.053 30.1293C667.896 27.4187 664.602 25.0213 659.592 23.5266C651.447 21.0966 644.771 22.3199 640.132 24.1388C637.808 25.0499 635.993 26.1117 634.765 26.9417C634.151 27.3565 633.684 27.7125 633.375 27.9616C633.22 28.086 633.105 28.1837 633.03 28.2485C632.992 28.2808 632.965 28.305 632.948 28.3201L632.931 28.336L632.929 28.3378L632.928 28.3384L632.928 28.3387L631.367 29.7857L631.251 27.6599L631.251 27.6597L631.251 27.659L631.251 27.6588L631.25 27.6506L631.247 27.6104C631.245 27.5732 631.24 27.5155 631.233 27.4387C631.22 27.285 631.197 27.0549 631.159 26.7593C631.084 26.1678 630.951 25.316 630.721 24.291C630.261 22.2369 629.418 19.5098 627.889 16.7926C624.859 11.407 619.116 6 608.048 6C596.955 6 590.232 11.4353 586.246 16.892C584.245 19.631 582.937 22.3755 582.129 24.4372C581.726 25.4667 581.449 26.3221 581.273 26.9161C581.186 27.2129 581.124 27.4442 581.084 27.5988C581.064 27.6761 581.05 27.7343 581.041 27.7718L581.032 27.8126L581.03 27.8211L581.03 27.8215L581.029 27.8222L581.029 27.8224L580.653 29.5144L579.377 28.3409L579.377 28.3408L579.377 28.3404L579.376 28.3402L579.371 28.335L579.343 28.3102C579.318 28.2874 579.278 28.2523 579.225 28.2059C579.118 28.1132 578.956 27.9755 578.743 27.8018C578.316 27.4543 577.684 26.9631 576.874 26.3989C575.251 25.2688 572.923 23.8535 570.105 22.7079C564.471 20.4178 556.952 19.2291 549.128 23.4485C541.293 27.6739 538.283 34.2922 537.222 39.9078C536.69 42.7224 536.652 45.276 536.747 47.1264C536.795 48.0503 536.875 48.7952 536.943 49.3053C536.977 49.5602 537.008 49.7562 537.03 49.8861C537.041 49.9511 537.05 49.9995 537.055 50.0305L537.062 50.0639L537.063 50.0704L537.063 50.0705L537.063 50.0711L537.063 50.0713L537.428 51.8983L535.704 51.1919L535.704 51.1918L535.703 51.1917L535.703 51.1916L535.699 51.1898L535.674 51.1801C535.652 51.1711 535.616 51.1572 535.568 51.1389C535.472 51.1023 535.327 51.0483 535.136 50.9815C534.754 50.8477 534.191 50.6628 533.479 50.4631C532.052 50.0633 530.037 49.6071 527.688 49.3825C522.978 48.9323 517.017 49.4204 511.74 53.0529C501.839 59.869 499.756 67.2388 500.022 72.8195C500.156 75.6462 500.897 78.0644 501.607 79.7789C501.962 80.6346 502.307 81.31 502.56 81.7673C502.608 81.8526 502.652 81.9303 502.692 82H703.382C703.445 81.9058 703.518 81.7957 703.599 81.6705C703.913 81.1822 704.346 80.4652 704.811 79.5633C705.745 77.755 706.798 75.2272 707.301 72.3235C707.805 69.4248 707.758 66.1717 706.52 62.879C705.284 59.5927 702.835 56.1959 698.419 53.0431C693.657 49.6436 687.69 49.1439 682.8 49.5449C680.37 49.7441 678.243 50.1631 676.725 50.5323C675.966 50.7167 675.362 50.8882 674.95 51.0126C674.744 51.0748 674.586 51.1252 674.481 51.1595C674.429 51.1767 674.39 51.1898 674.365 51.1984L674.337 51.2077L674.332 51.2097L674.331 51.2098L673.044 49.9727ZM673.044 49.9727L673.044 49.9729L672.461 51.8661L674.331 51.21L673.044 49.9727Z" fill="white" stroke="black" stroke-width="2"/>
<path d="M669.684 367.844L669.684 367.844L671.008 369.175L671.008 369.175L671.015 369.172L671.044 369.159C671.071 369.147 671.112 369.128 671.167 369.104C671.278 369.056 671.444 368.985 671.661 368.897C672.094 368.72 672.728 368.474 673.521 368.199C675.111 367.649 677.33 366.99 679.852 366.552C684.936 365.668 691.039 365.715 695.753 369.08C704.534 375.35 706.325 383.171 705.955 389.454C705.769 392.616 705.032 395.395 704.339 397.387C703.993 398.381 703.659 399.174 703.414 399.715C703.367 399.819 703.323 399.915 703.282 400H502.692C502.652 399.93 502.608 399.853 502.56 399.767C502.307 399.31 501.962 398.635 501.607 397.779C500.897 396.064 500.156 393.646 500.022 390.819C499.756 385.239 501.839 377.869 511.74 371.053C517.017 367.42 522.978 366.932 527.688 367.383C530.037 367.607 532.052 368.063 533.479 368.463C534.191 368.663 534.754 368.848 535.136 368.981C535.327 369.048 535.472 369.102 535.568 369.139C535.59 369.147 535.609 369.155 535.626 369.161C535.646 369.169 535.662 369.175 535.674 369.18L535.699 369.19L535.703 369.192L535.703 369.192L535.704 369.192L535.704 369.192L537.428 369.898L537.063 368.071L537.063 368.071L537.063 368.071L537.063 368.07L537.062 368.064L537.055 368.031C537.05 367.999 537.041 367.951 537.03 367.886C537.008 367.756 536.977 367.56 536.943 367.305C536.875 366.795 536.795 366.05 536.747 365.126C536.652 363.276 536.69 360.722 537.222 357.908C538.283 352.292 541.293 345.674 549.128 341.449C556.952 337.229 564.471 338.418 570.105 340.708C572.923 341.854 575.251 343.269 576.874 344.399C577.684 344.963 578.316 345.454 578.743 345.802C578.956 345.976 579.118 346.113 579.225 346.206C579.278 346.252 579.318 346.287 579.343 346.31L579.371 346.335L579.376 346.34L579.377 346.34L579.377 346.341L579.377 346.341L580.653 347.514L581.029 345.822L581.029 345.822L581.03 345.822L581.03 345.821L581.032 345.813L581.041 345.772C581.05 345.734 581.064 345.676 581.084 345.599C581.124 345.444 581.186 345.213 581.274 344.916C581.449 344.322 581.726 343.467 582.129 342.437C582.937 340.376 584.245 337.631 586.246 334.892C590.232 329.435 596.955 324 608.048 324C619.116 324 624.859 329.407 627.889 334.793C629.418 337.51 630.261 340.237 630.721 342.291C630.951 343.316 631.084 344.168 631.159 344.759C631.197 345.055 631.22 345.285 631.233 345.439C631.24 345.516 631.245 345.573 631.247 345.61L631.25 345.651L631.251 345.659L631.251 345.66L631.251 345.66L631.367 347.786L632.928 346.339L632.928 346.339L632.928 346.338L632.929 346.338L632.931 346.336L632.948 346.32C632.965 346.305 632.992 346.281 633.03 346.248C633.105 346.184 633.22 346.086 633.375 345.962C633.684 345.712 634.151 345.356 634.765 344.942C635.993 344.112 637.808 343.05 640.132 342.139C644.771 340.32 651.447 339.097 659.592 341.527C664.595 343.019 667.65 345.403 669.477 348.072C671.312 350.752 671.972 353.811 672.012 356.752C672.053 359.695 671.473 362.473 670.873 364.529C670.574 365.553 670.274 366.39 670.049 366.967C669.936 367.256 669.843 367.479 669.779 367.628C669.747 367.703 669.722 367.759 669.706 367.795L669.688 367.835L669.684 367.843L669.684 367.844ZM668.532 370.313L671.007 369.175L668.532 370.313Z" fill="white" stroke="black" stroke-width="2"/>
<path d="M170.684 367.844L170.684 367.844L172.008 369.175L172.008 369.175L172.015 369.172L172.044 369.159C172.071 369.147 172.112 369.128 172.167 369.104C172.278 369.056 172.444 368.985 172.661 368.897C173.094 368.72 173.728 368.474 174.521 368.199C176.111 367.649 178.33 366.99 180.852 366.552C185.936 365.668 192.039 365.715 196.753 369.08C205.534 375.35 207.325 383.171 206.955 389.454C206.769 392.616 206.032 395.395 205.339 397.387C204.993 398.381 204.659 399.174 204.414 399.715C204.367 399.819 204.323 399.915 204.282 400H3.69201C3.65168 399.93 3.6076 399.853 3.5603 399.767C3.30669 399.31 2.96173 398.635 2.60718 397.779C1.89677 396.064 1.1562 393.646 1.02162 390.819C0.755928 385.239 2.83902 377.869 12.7402 371.053C18.0168 367.42 23.9779 366.932 28.688 367.383C31.0373 367.607 33.0525 368.063 34.4786 368.463C35.1908 368.663 35.754 368.848 36.1358 368.981C36.3267 369.048 36.4721 369.102 36.5681 369.139C36.59 369.147 36.6093 369.155 36.626 369.161C36.6459 369.169 36.662 369.175 36.6743 369.18L36.6985 369.19L36.7031 369.192L36.7033 369.192L36.7036 369.192L36.7038 369.192L38.4279 369.898L38.063 368.071L38.063 368.071L38.0629 368.071L38.0629 368.07L38.0616 368.064L38.0553 368.031C38.0496 367.999 38.0409 367.951 38.03 367.886C38.0081 367.756 37.9773 367.56 37.9433 367.305C37.8752 366.795 37.7945 366.05 37.747 365.126C37.6517 363.276 37.6903 360.722 38.222 357.908C39.2828 352.292 42.2926 345.674 50.1277 341.449C57.952 337.229 65.4712 338.418 71.105 340.708C73.9233 341.854 76.2508 343.269 77.8739 344.399C78.6844 344.963 79.3163 345.454 79.7429 345.802C79.9561 345.976 80.1178 346.113 80.2245 346.206C80.2779 346.252 80.3176 346.287 80.343 346.31L80.3706 346.335L80.3763 346.34L80.3765 346.34L80.377 346.341L80.3771 346.341L81.653 347.514L82.0294 345.822L82.0294 345.822L82.0296 345.822L82.0297 345.821L82.0316 345.813L82.0412 345.772C82.0502 345.734 82.0644 345.676 82.0842 345.599C82.1239 345.444 82.1859 345.213 82.2735 344.916C82.4487 344.322 82.7257 343.467 83.1291 342.437C83.9368 340.376 85.2452 337.631 87.2459 334.892C91.2317 329.435 97.9551 324 109.048 324C120.116 324 125.859 329.407 128.889 334.793C130.418 337.51 131.261 340.237 131.721 342.291C131.951 343.316 132.084 344.168 132.159 344.759C132.197 345.055 132.22 345.285 132.233 345.439C132.24 345.516 132.245 345.573 132.247 345.61L132.25 345.651L132.251 345.659L132.251 345.66L132.251 345.66L132.367 347.786L133.928 346.339L133.928 346.339L133.928 346.338L133.929 346.338L133.931 346.336L133.948 346.32C133.965 346.305 133.992 346.281 134.03 346.248C134.105 346.184 134.22 346.086 134.375 345.962C134.684 345.712 135.151 345.356 135.765 344.942C136.993 344.112 138.808 343.05 141.132 342.139C145.771 340.32 152.447 339.097 160.592 341.527C165.595 343.019 168.65 345.403 170.477 348.072C172.312 350.752 172.972 353.811 173.012 356.752C173.053 359.695 172.473 362.473 171.873 364.529C171.574 365.553 171.274 366.39 171.049 366.967C170.936 367.256 170.843 367.479 170.779 367.628C170.747 367.703 170.722 367.759 170.706 367.795L170.688 367.835L170.684 367.843L170.684 367.844ZM169.532 370.313L172.007 369.175L169.532 370.313Z" fill="white" stroke="black" stroke-width="2"/>
<path d="M327.684 212.844L327.684 212.844L329.008 214.175L329.008 214.175L329.015 214.172L329.044 214.159C329.071 214.147 329.112 214.128 329.167 214.104C329.278 214.056 329.444 213.985 329.661 213.897C330.094 213.72 330.728 213.474 331.521 213.199C333.111 212.649 335.33 211.99 337.852 211.552C342.936 210.668 349.039 210.715 353.753 214.08C362.534 220.35 364.325 228.171 363.955 234.454C363.769 237.616 363.032 240.395 362.339 242.387C361.993 243.381 361.659 244.174 361.414 244.715C361.367 244.819 361.323 244.915 361.282 245H160.692C160.652 244.93 160.608 244.853 160.56 244.767C160.307 244.31 159.962 243.635 159.607 242.779C158.897 241.064 158.156 238.646 158.022 235.819C157.756 230.239 159.839 222.869 169.74 216.053C175.017 212.42 180.978 211.932 185.688 212.383C188.037 212.607 190.052 213.063 191.479 213.463C192.191 213.663 192.754 213.848 193.136 213.981C193.327 214.048 193.472 214.102 193.568 214.139C193.59 214.147 193.609 214.155 193.626 214.161C193.646 214.169 193.662 214.175 193.674 214.18L193.699 214.19L193.703 214.192L193.703 214.192L193.704 214.192L193.704 214.192L195.428 214.898L195.063 213.071L195.063 213.071L195.063 213.071L195.063 213.07L195.062 213.064L195.055 213.031C195.05 212.999 195.041 212.951 195.03 212.886C195.008 212.756 194.977 212.56 194.943 212.305C194.875 211.795 194.795 211.05 194.747 210.126C194.652 208.276 194.69 205.722 195.222 202.908C196.283 197.292 199.293 190.674 207.128 186.449C214.952 182.229 222.471 183.418 228.105 185.708C230.923 186.854 233.251 188.269 234.874 189.399C235.684 189.963 236.316 190.454 236.743 190.802C236.956 190.976 237.118 191.113 237.225 191.206C237.278 191.252 237.318 191.287 237.343 191.31L237.371 191.335L237.376 191.34L237.377 191.34L237.377 191.341L237.377 191.341L238.653 192.514L239.029 190.822L239.029 190.822L239.03 190.822L239.03 190.821L239.032 190.813L239.041 190.772C239.05 190.734 239.064 190.676 239.084 190.599C239.124 190.444 239.186 190.213 239.274 189.916C239.449 189.322 239.726 188.467 240.129 187.437C240.937 185.376 242.245 182.631 244.246 179.892C248.232 174.435 254.955 169 266.048 169C277.116 169 282.859 174.407 285.889 179.793C287.418 182.51 288.261 185.237 288.721 187.291C288.951 188.316 289.084 189.168 289.159 189.759C289.197 190.055 289.22 190.285 289.233 190.439C289.24 190.516 289.245 190.573 289.247 190.61L289.25 190.651L289.251 190.659L289.251 190.66L289.251 190.66L289.367 192.786L290.928 191.339L290.928 191.339L290.928 191.338L290.929 191.338L290.931 191.336L290.948 191.32C290.965 191.305 290.992 191.281 291.03 191.248C291.105 191.184 291.22 191.086 291.375 190.962C291.684 190.712 292.151 190.356 292.765 189.942C293.993 189.112 295.808 188.05 298.132 187.139C302.771 185.32 309.447 184.097 317.592 186.527C322.595 188.019 325.65 190.403 327.477 193.072C329.312 195.752 329.972 198.811 330.012 201.752C330.053 204.695 329.473 207.473 328.873 209.529C328.574 210.553 328.274 211.39 328.049 211.967C327.936 212.256 327.843 212.479 327.779 212.628C327.747 212.703 327.722 212.759 327.706 212.795L327.688 212.835L327.684 212.843L327.684 212.844ZM326.532 215.313L329.007 214.175L326.532 215.313Z" fill="white" stroke="black" stroke-width="2"/>
<path d="M170.684 49.8436L170.684 49.8442L172.008 51.1748L172.008 51.1746L172.015 51.1717L172.044 51.1586C172.071 51.1465 172.112 51.1282 172.167 51.1041C172.278 51.0561 172.444 50.9852 172.661 50.8969C173.094 50.7201 173.728 50.4736 174.521 50.199C176.111 49.6491 178.33 48.9904 180.852 48.5519C185.936 47.6679 192.039 47.7148 196.753 51.0801C205.534 57.3495 207.325 65.1712 206.955 71.4543C206.769 74.6164 206.032 77.3952 205.339 79.3865C204.993 80.3805 204.659 81.1736 204.414 81.7145C204.367 81.8193 204.323 81.9146 204.282 82H3.69201C3.65168 81.9303 3.6076 81.8526 3.5603 81.7673C3.30669 81.31 2.96173 80.6346 2.60718 79.7789C1.89677 78.0644 1.1562 75.6462 1.02162 72.8195C0.755928 67.2388 2.83902 59.869 12.7402 53.0529C18.0168 49.4204 23.9779 48.9323 28.688 49.3825C31.0373 49.6071 33.0525 50.0633 34.4786 50.4631C35.1908 50.6628 35.754 50.8477 36.1358 50.9815C36.3267 51.0483 36.4721 51.1023 36.5681 51.1389C36.616 51.1572 36.6516 51.1711 36.6743 51.1801L36.6985 51.1898L36.7031 51.1916L36.7033 51.1917L36.7036 51.1918L36.7038 51.1919L38.4279 51.8983L38.063 50.0713L38.063 50.0711L38.0629 50.0705L38.0629 50.0704L38.0616 50.0639L38.0553 50.0305C38.0496 49.9995 38.0409 49.9511 38.03 49.8861C38.0081 49.7562 37.9773 49.5602 37.9433 49.3053C37.8752 48.7952 37.7945 48.0503 37.747 47.1264C37.6517 45.276 37.6903 42.7224 38.222 39.9078C39.2828 34.2922 42.2926 27.6739 50.1277 23.4485C57.9519 19.2291 65.4712 20.4178 71.105 22.7079C73.9233 23.8535 76.2508 25.2688 77.8739 26.3989C78.6844 26.9631 79.3163 27.4543 79.7429 27.8018C79.9561 27.9755 80.1177 28.1132 80.2245 28.2059C80.2779 28.2523 80.3175 28.2874 80.343 28.3102L80.3706 28.335L80.3763 28.3402L80.3765 28.3404L80.377 28.3408L80.3771 28.3409L81.653 29.5144L82.0294 27.8224L82.0294 27.8222L82.0296 27.8215L82.0297 27.8211L82.0316 27.8126L82.0412 27.7718C82.0502 27.7343 82.0644 27.6761 82.0842 27.5988C82.1239 27.4442 82.1859 27.2129 82.2735 26.9161C82.4487 26.3221 82.7257 25.4667 83.1291 24.4372C83.9368 22.3755 85.2452 19.631 87.2459 16.892C91.2317 11.4353 97.9551 6 109.048 6C120.116 6 125.859 11.407 128.889 16.7926C130.418 19.5098 131.261 22.2369 131.721 24.291C131.951 25.316 132.084 26.1678 132.159 26.7593C132.197 27.0549 132.22 27.285 132.233 27.4387C132.236 27.4713 132.239 27.5004 132.241 27.526C132.244 27.5608 132.246 27.589 132.247 27.6104L132.25 27.6506L132.251 27.6588L132.251 27.659L132.251 27.6597L132.251 27.6599L132.367 29.7857L133.928 28.3388L133.928 28.3387L133.928 28.3384L133.929 28.3378L133.931 28.336L133.948 28.3201C133.955 28.3141 133.963 28.3068 133.973 28.298C133.988 28.2846 134.007 28.2681 134.03 28.2485C134.105 28.1837 134.22 28.086 134.375 27.9616C134.684 27.7125 135.151 27.3565 135.765 26.9417C136.993 26.1117 138.808 25.0499 141.132 24.1388C145.771 22.3199 152.447 21.0966 160.592 23.5266C165.595 25.0192 168.65 27.4035 170.477 30.0718C172.312 32.7516 172.972 35.8115 173.012 38.7517C173.053 41.6952 172.472 44.4735 171.873 46.5287C171.574 47.5531 171.274 48.3896 171.049 48.967C170.936 49.2556 170.843 49.4789 170.779 49.6281C170.747 49.7027 170.722 49.7587 170.706 49.795L170.688 49.8345L170.684 49.8429L170.684 49.8436ZM169.532 52.3127L172.007 51.175L169.532 52.3127Z" fill="white" stroke="black" stroke-width="2"/>
</svg>
