<svg width="156" height="70" viewBox="0 0 156 70" fill="none" xmlns="http://www.w3.org/2000/svg">
<mask id="path-1-inside-1_10_76" fill="white">
<path fill-rule="evenodd" clip-rule="evenodd" d="M156 60.0012H35.1436C35.374 26.824 62.3404 0 95.5719 0C128.803 0 155.77 26.824 156 60.0012Z"/>
</mask>
<path fill-rule="evenodd" clip-rule="evenodd" d="M156 60.0012H35.1436C35.374 26.824 62.3404 0 95.5719 0C128.803 0 155.77 26.824 156 60.0012Z" fill="#FF9B52"/>
<path d="M35.1436 60.0012L33.1436 59.9873L33.1296 62.0012H35.1436V60.0012ZM156 60.0012V62.0012H158.014L158 59.9873L156 60.0012ZM35.1436 62.0012H156V58.0012H35.1436V62.0012ZM37.1435 60.0151C37.3663 27.9363 63.4403 2 95.5719 2V-2C61.2405 -2 33.3817 25.7118 33.1436 59.9873L37.1435 60.0151ZM95.5719 2C127.703 2 153.777 27.9363 154 60.0151L158 59.9873C157.762 25.7118 129.903 -2 95.5719 -2V2Z" fill="black" mask="url(#path-1-inside-1_10_76)"/>
<mask id="path-3-inside-2_10_76" fill="white">
<path fill-rule="evenodd" clip-rule="evenodd" d="M143.142 60.0991H49.7134C49.8915 34.4513 70.738 13.7148 96.4278 13.7148C122.118 13.7148 142.964 34.4513 143.142 60.0991Z"/>
</mask>
<path fill-rule="evenodd" clip-rule="evenodd" d="M143.142 60.0991H49.7134C49.8915 34.4513 70.738 13.7148 96.4278 13.7148C122.118 13.7148 142.964 34.4513 143.142 60.0991Z" fill="#C76BFF"/>
<path d="M49.7134 60.0991L47.7134 60.0852L47.6994 62.0991H49.7134V60.0991ZM143.142 60.0991V62.0991H145.156L145.142 60.0852L143.142 60.0991ZM49.7134 62.0991H143.142V58.0991H49.7134V62.0991ZM51.7133 60.113C51.8839 35.5635 71.838 15.7148 96.4278 15.7148V11.7148C69.6381 11.7148 47.8992 33.339 47.7134 60.0852L51.7133 60.113ZM96.4278 15.7148C121.018 15.7148 140.972 35.5635 141.142 60.113L145.142 60.0852C144.956 33.339 123.217 11.7148 96.4278 11.7148V15.7148Z" fill="black" mask="url(#path-3-inside-2_10_76)"/>
<mask id="path-5-inside-3_10_76" fill="white">
<path fill-rule="evenodd" clip-rule="evenodd" d="M132.001 60.1781H60.8569C60.9926 40.6478 76.8668 24.8574 96.4291 24.8574C115.991 24.8574 131.866 40.6478 132.001 60.1781Z"/>
</mask>
<path fill-rule="evenodd" clip-rule="evenodd" d="M132.001 60.1781H60.8569C60.9926 40.6478 76.8668 24.8574 96.4291 24.8574C115.991 24.8574 131.866 40.6478 132.001 60.1781Z" fill="#41BC64"/>
<path d="M60.8569 60.1781L58.857 60.1642L58.843 62.1781H60.8569V60.1781ZM132.001 60.1781V62.1781H134.015L134.001 60.1642L132.001 60.1781ZM60.8569 62.1781H132.001V58.1781H60.8569V62.1781ZM62.8569 60.192C62.9849 41.7601 77.9668 26.8574 96.4291 26.8574V22.8574C75.7669 22.8574 59.0003 39.5356 58.857 60.1642L62.8569 60.192ZM96.4291 26.8574C114.891 26.8574 129.873 41.7601 130.001 60.192L134.001 60.1642C133.858 39.5356 117.091 22.8574 96.4291 22.8574V26.8574Z" fill="black" mask="url(#path-5-inside-3_10_76)"/>
<mask id="path-7-inside-4_10_76" fill="white">
<path fill-rule="evenodd" clip-rule="evenodd" d="M72.8569 59.8371H119.144C119.055 47.1307 108.728 36.8574 96.0003 36.8574C83.273 36.8574 72.9452 47.1307 72.8569 59.8371Z"/>
</mask>
<path fill-rule="evenodd" clip-rule="evenodd" d="M72.8569 59.8371H119.144C119.055 47.1307 108.728 36.8574 96.0003 36.8574C83.273 36.8574 72.9452 47.1307 72.8569 59.8371Z" fill="#FFC553"/>
<path d="M72.8569 59.8371L70.857 59.8232L70.843 61.8371H72.8569V59.8371ZM119.144 59.8371V61.8371H121.158L121.144 59.8232L119.144 59.8371ZM72.8569 61.8371H119.144V57.8371H72.8569V61.8371ZM96.0003 38.8574C107.628 38.8574 117.063 48.2429 117.144 59.851L121.144 59.8232C121.048 46.0184 109.827 34.8574 96.0003 34.8574V38.8574ZM74.8569 59.851C74.9375 48.2429 84.3729 38.8574 96.0003 38.8574V34.8574C82.1731 34.8574 70.9529 46.0184 70.857 59.8232L74.8569 59.851Z" fill="black" mask="url(#path-7-inside-4_10_76)"/>
<path d="M79.5105 55.2959L79.5104 55.2965L79.5103 55.2965L79.5103 55.2968L79.1567 57.2006L80.9109 56.3873L80.9114 56.3871L80.9125 56.3866L80.9133 56.3862L80.9142 56.3858L80.9169 56.3846C80.9241 56.3815 80.9373 56.3757 80.9564 56.3677C80.9947 56.3517 81.0563 56.3268 81.1395 56.296C81.306 56.2344 81.5574 56.1497 81.8788 56.066C82.5235 55.8982 83.4374 55.7372 84.5046 55.7668C86.6057 55.8249 89.3721 56.6189 91.9206 59.7412C94.3215 62.6827 94.2081 64.8076 93.7054 66.1272C93.4383 66.8283 93.0336 67.3745 92.6891 67.7483C92.5555 67.8933 92.4335 68.0096 92.3364 68.096L1.73796 68.9944C1.67238 68.8718 1.59914 68.7232 1.52497 68.5507C1.27402 67.9673 1.01741 67.1229 1.00085 66.089C0.968621 64.0774 1.8441 61.1026 6.07182 57.7772C6.68053 57.2984 7.56296 57.0126 8.6489 56.902C9.72422 56.7925 10.9091 56.8638 12.0332 57.0183C13.1522 57.1721 14.1788 57.4037 14.9276 57.5978C15.301 57.6946 15.6029 57.7815 15.8097 57.8436C15.913 57.8746 15.9924 57.8994 16.045 57.9161L16.1033 57.9348L16.1167 57.9392L16.1191 57.9399L16.1192 57.94L16.1194 57.94L16.1195 57.9401L17.913 58.5374L17.3976 56.7202L17.3975 56.7197L17.3973 56.7191L17.3972 56.7187L17.3971 56.7183L17.3936 56.7055C17.3901 56.6922 17.3843 56.6702 17.3768 56.6398C17.3616 56.5791 17.3394 56.4853 17.3134 56.3624C17.2615 56.1161 17.1953 55.7546 17.142 55.3082C17.0351 54.4114 16.9836 53.195 17.1935 51.8942C17.6057 49.339 19.0153 46.438 23.1827 44.9225C27.4554 43.3686 31.1478 44.1404 33.7992 45.313C35.1284 45.9009 36.1896 46.5876 36.9162 47.1259C37.2789 47.3945 37.5562 47.6247 37.7398 47.7847C37.8316 47.8647 37.8998 47.9269 37.9433 47.9676C37.9651 47.9879 37.9807 48.0028 37.99 48.0117L37.9989 48.0203L37.9992 48.0207L37.9994 48.0209L37.9999 48.0213L38.0002 48.0217L39.2071 49.2185L39.6657 47.5811L39.6657 47.581L39.6658 47.5806L39.666 47.58L39.6665 47.5783L39.6714 47.5614C39.6762 47.5452 39.684 47.5191 39.6949 47.4839C39.7167 47.4134 39.7509 47.3064 39.7984 47.1683C39.8933 46.8919 40.0406 46.4922 40.2465 46.012C40.6596 45.0485 41.3013 43.7777 42.2162 42.5324C44.0449 40.0431 46.8809 37.7493 51.1458 38.0223C55.4855 38.3 58.1327 40.6409 59.7275 42.9608C60.5291 44.1268 61.0575 45.28 61.3849 46.143C61.5481 46.5732 61.6601 46.9277 61.7304 47.1708C61.7655 47.2923 61.7901 47.3856 61.8054 47.4463C61.8131 47.4767 61.8184 47.4988 61.8216 47.5123L61.8247 47.5257L61.8247 47.5258L61.8249 47.5264L61.825 47.527L61.8251 47.5274L62.4148 50.2009L63.6859 47.7765L63.6862 47.7759L63.6863 47.7757L63.6865 47.7754L63.6869 47.7746L63.6914 47.7663C63.6935 47.7625 63.6962 47.7576 63.6995 47.7516C63.7045 47.7426 63.7108 47.7312 63.7186 47.7175C63.7442 47.6721 63.7848 47.6019 63.8403 47.5111C63.9515 47.3292 64.1219 47.0656 64.3512 46.7529C64.8116 46.1251 65.4993 45.313 66.4096 44.5665C68.2128 43.0876 70.8631 41.8758 74.4399 42.8309C77.8265 43.7353 79.1448 46.6225 79.5803 49.6101C79.7957 51.0872 79.7789 52.5148 79.7057 53.5807C79.6693 54.1114 79.6193 54.5469 79.5788 54.847C79.5587 54.9969 79.5409 55.1127 79.5285 55.1892C79.5265 55.202 79.5245 55.2137 79.5228 55.2243C79.5193 55.2454 79.5164 55.262 79.5143 55.274L79.511 55.293L79.5105 55.2959ZM1.98446 69.4018C1.98466 69.4021 1.98383 69.401 1.98203 69.3985L1.98224 69.3988L1.98337 69.4004L1.98446 69.4018Z" fill="white" stroke="black" stroke-width="2"/>
</svg>
