<svg width="184" height="100" viewBox="0 0 184 100" fill="none" xmlns="http://www.w3.org/2000/svg">
<mask id="path-1-inside-1_45_29" fill="white">
<path fill-rule="evenodd" clip-rule="evenodd" d="M156 75.0012H35.1436C35.374 41.824 62.3404 15 95.5719 15C128.803 15 155.77 41.824 156 75.0012Z"/>
</mask>
<path fill-rule="evenodd" clip-rule="evenodd" d="M156 75.0012H35.1436C35.374 41.824 62.3404 15 95.5719 15C128.803 15 155.77 41.824 156 75.0012Z" fill="#FF9B52"/>
<path d="M35.1436 75.0012L33.1436 74.9873L33.1296 77.0012H35.1436V75.0012ZM156 75.0012V77.0012H158.014L158 74.9873L156 75.0012ZM35.1436 77.0012H156V73.0012H35.1436V77.0012ZM37.1435 75.0151C37.3663 42.9363 63.4403 17 95.5719 17V13C61.2405 13 33.3817 40.7118 33.1436 74.9873L37.1435 75.0151ZM95.5719 17C127.703 17 153.777 42.9363 154 75.0151L158 74.9873C157.762 40.7118 129.903 13 95.5719 13V17Z" fill="black" mask="url(#path-1-inside-1_45_29)"/>
<mask id="path-3-inside-2_45_29" fill="white">
<path fill-rule="evenodd" clip-rule="evenodd" d="M143.142 75.0991H49.7134C49.8915 49.4513 70.738 28.7148 96.4278 28.7148C122.118 28.7148 142.964 49.4513 143.142 75.0991Z"/>
</mask>
<path fill-rule="evenodd" clip-rule="evenodd" d="M143.142 75.0991H49.7134C49.8915 49.4513 70.738 28.7148 96.4278 28.7148C122.118 28.7148 142.964 49.4513 143.142 75.0991Z" fill="#C76BFF"/>
<path d="M49.7134 75.0991L47.7134 75.0852L47.6994 77.0991H49.7134V75.0991ZM143.142 75.0991V77.0991H145.156L145.142 75.0852L143.142 75.0991ZM49.7134 77.0991H143.142V73.0991H49.7134V77.0991ZM51.7133 75.113C51.8839 50.5635 71.838 30.7148 96.4278 30.7148V26.7148C69.6381 26.7148 47.8992 48.339 47.7134 75.0852L51.7133 75.113ZM96.4278 30.7148C121.018 30.7148 140.972 50.5635 141.142 75.113L145.142 75.0852C144.956 48.339 123.217 26.7148 96.4278 26.7148V30.7148Z" fill="black" mask="url(#path-3-inside-2_45_29)"/>
<mask id="path-5-inside-3_45_29" fill="white">
<path fill-rule="evenodd" clip-rule="evenodd" d="M132.001 75.1781H60.8569C60.9926 55.6478 76.8668 39.8574 96.4291 39.8574C115.991 39.8574 131.866 55.6478 132.001 75.1781Z"/>
</mask>
<path fill-rule="evenodd" clip-rule="evenodd" d="M132.001 75.1781H60.8569C60.9926 55.6478 76.8668 39.8574 96.4291 39.8574C115.991 39.8574 131.866 55.6478 132.001 75.1781Z" fill="#41BC64"/>
<path d="M60.8569 75.1781L58.857 75.1642L58.843 77.1781H60.8569V75.1781ZM132.001 75.1781V77.1781H134.015L134.001 75.1642L132.001 75.1781ZM60.8569 77.1781H132.001V73.1781H60.8569V77.1781ZM62.8569 75.192C62.9849 56.7601 77.9668 41.8574 96.4291 41.8574V37.8574C75.7669 37.8574 59.0003 54.5356 58.857 75.1642L62.8569 75.192ZM96.4291 41.8574C114.891 41.8574 129.873 56.7601 130.001 75.192L134.001 75.1642C133.858 54.5356 117.091 37.8574 96.4291 37.8574V41.8574Z" fill="black" mask="url(#path-5-inside-3_45_29)"/>
<mask id="path-7-inside-4_45_29" fill="white">
<path fill-rule="evenodd" clip-rule="evenodd" d="M72.8569 74.8371H119.144C119.055 62.1307 108.728 51.8574 96.0003 51.8574C83.273 51.8574 72.9452 62.1307 72.8569 74.8371Z"/>
</mask>
<path fill-rule="evenodd" clip-rule="evenodd" d="M72.8569 74.8371H119.144C119.055 62.1307 108.728 51.8574 96.0003 51.8574C83.273 51.8574 72.9452 62.1307 72.8569 74.8371Z" fill="#FFC553"/>
<path d="M72.8569 74.8371L70.857 74.8232L70.843 76.8371H72.8569V74.8371ZM119.144 74.8371V76.8371H121.158L121.144 74.8232L119.144 74.8371ZM72.8569 76.8371H119.144V72.8371H72.8569V76.8371ZM96.0003 53.8574C107.628 53.8574 117.063 63.2429 117.144 74.851L121.144 74.8232C121.048 61.0184 109.827 49.8574 96.0003 49.8574V53.8574ZM74.8569 74.851C74.9375 63.2429 84.3729 53.8574 96.0003 53.8574V49.8574C82.1731 49.8574 70.9529 61.0184 70.857 74.8232L74.8569 74.851Z" fill="black" mask="url(#path-7-inside-4_45_29)"/>
<path d="M79.5105 70.2959L79.5104 70.2965L79.5103 70.2965L79.5103 70.2968L79.1567 72.2006L80.9109 71.3873L80.9114 71.3871L80.9125 71.3866L80.9133 71.3862L80.9142 71.3858L80.9169 71.3846C80.9241 71.3815 80.9373 71.3757 80.9564 71.3677C80.9947 71.3517 81.0563 71.3268 81.1395 71.296C81.306 71.2344 81.5574 71.1497 81.8788 71.066C82.5235 70.8982 83.4374 70.7372 84.5046 70.7668C86.6057 70.8249 89.3721 71.6189 91.9206 74.7412C94.3215 77.6827 94.2081 79.8076 93.7054 81.1272C93.4383 81.8283 93.0336 82.3745 92.6891 82.7483C92.5555 82.8933 92.4335 83.0096 92.3364 83.096L1.73796 83.9944C1.67238 83.8718 1.59914 83.7232 1.52497 83.5507C1.27402 82.9673 1.01741 82.1229 1.00085 81.089C0.968621 79.0774 1.8441 76.1026 6.07182 72.7772C6.68053 72.2984 7.56296 72.0126 8.6489 71.902C9.72422 71.7925 10.9091 71.8638 12.0332 72.0183C13.1522 72.1721 14.1788 72.4037 14.9276 72.5978C15.301 72.6946 15.6029 72.7815 15.8097 72.8436C15.913 72.8746 15.9924 72.8994 16.045 72.9161L16.1033 72.9348L16.1167 72.9392L16.1191 72.9399L16.1192 72.94L16.1194 72.94L16.1195 72.9401L17.913 73.5374L17.3976 71.7202L17.3975 71.7197L17.3973 71.7191L17.3972 71.7187L17.3971 71.7183L17.3936 71.7055C17.3901 71.6922 17.3843 71.6702 17.3768 71.6398C17.3616 71.5791 17.3394 71.4853 17.3134 71.3624C17.2615 71.1161 17.1953 70.7546 17.142 70.3082C17.0351 69.4114 16.9836 68.195 17.1935 66.8942C17.6057 64.339 19.0153 61.438 23.1827 59.9225C27.4554 58.3686 31.1478 59.1404 33.7992 60.313C35.1284 60.9009 36.1896 61.5876 36.9162 62.1259C37.2789 62.3945 37.5562 62.6247 37.7398 62.7847C37.8316 62.8647 37.8998 62.9269 37.9433 62.9676C37.9651 62.9879 37.9807 63.0028 37.99 63.0117L37.9989 63.0203L37.9992 63.0207L37.9994 63.0209L37.9999 63.0213L38.0002 63.0217L39.2071 64.2185L39.6657 62.5811L39.6657 62.581L39.6658 62.5806L39.666 62.58L39.6665 62.5783L39.6714 62.5614C39.6762 62.5452 39.684 62.5191 39.6949 62.4839C39.7167 62.4134 39.7509 62.3064 39.7984 62.1683C39.8933 61.8919 40.0406 61.4922 40.2465 61.012C40.6596 60.0485 41.3013 58.7777 42.2162 57.5324C44.0449 55.0431 46.8809 52.7493 51.1458 53.0223C55.4855 53.3 58.1327 55.6409 59.7275 57.9608C60.5291 59.1268 61.0575 60.28 61.3849 61.143C61.5481 61.5732 61.6601 61.9277 61.7304 62.1708C61.7655 62.2923 61.7901 62.3856 61.8054 62.4463C61.8131 62.4767 61.8184 62.4988 61.8216 62.5123L61.8247 62.5257L61.8247 62.5258L61.8249 62.5264L61.825 62.527L61.8251 62.5274L62.4148 65.2009L63.6859 62.7765L63.6862 62.7759L63.6863 62.7757L63.6865 62.7754L63.6869 62.7746L63.6914 62.7663C63.6935 62.7625 63.6962 62.7576 63.6995 62.7516C63.7045 62.7426 63.7108 62.7312 63.7186 62.7175C63.7442 62.6721 63.7848 62.6019 63.8403 62.5111C63.9515 62.3292 64.1219 62.0656 64.3512 61.7529C64.8116 61.1251 65.4993 60.313 66.4096 59.5665C68.2128 58.0876 70.8631 56.8758 74.4399 57.8309C77.8265 58.7353 79.1448 61.6225 79.5803 64.6101C79.7957 66.0872 79.7789 67.5148 79.7057 68.5807C79.6693 69.1114 79.6193 69.5469 79.5788 69.847C79.5587 69.9969 79.5409 70.1127 79.5285 70.1892C79.5265 70.202 79.5245 70.2137 79.5228 70.2243C79.5193 70.2454 79.5164 70.262 79.5143 70.274L79.511 70.293L79.5105 70.2959ZM1.98446 84.4018C1.98466 84.4021 1.98383 84.401 1.98203 84.3985L1.98224 84.3988L1.98337 84.4004L1.98446 84.4018Z" fill="white" stroke="black" stroke-width="2"/>
</svg>
