<svg width="189" height="66" viewBox="0 0 189 66" fill="none" xmlns="http://www.w3.org/2000/svg">
<path d="M132.571 23.375L132.571 23.3667L132.57 23.3255C132.57 23.2874 132.568 23.228 132.565 23.1488C132.56 22.9905 132.548 22.7532 132.524 22.4483C132.477 21.8381 132.381 20.9592 132.189 19.9015C131.803 17.7819 131.034 14.9688 129.506 12.1662C127.98 9.3692 125.703 6.58966 122.292 4.50551C118.884 2.42274 114.289 0.999941 108.072 1C100.874 1.00007 95.678 2.434 91.9235 4.52601C88.1743 6.61507 85.8087 9.39001 84.3111 12.1628C82.8084 14.945 82.1737 17.7378 81.917 19.8437C81.7889 20.8945 81.7558 21.7675 81.7543 22.373C81.7536 22.6756 81.7608 22.9107 81.7679 23.0672C81.7715 23.1453 81.775 23.2038 81.7775 23.2411L81.7803 23.281L81.7809 23.2881L81.7809 23.2887L81.781 23.2891L81.781 23.2895L82.0082 25.8951L80.1011 24.1048L80.1009 24.1047L80.1008 24.1046L80.1003 24.1041L80.0975 24.1015L80.0788 24.0844C80.0611 24.0683 80.033 24.0429 79.9946 24.0089C79.9178 23.9409 79.7999 23.8388 79.6425 23.7085C79.3277 23.4478 78.8554 23.0745 78.2375 22.6362C77.001 21.7589 75.1875 20.625 72.8939 19.6097C68.3093 17.5803 61.8294 16.0335 54.1848 17.9289C41.6255 21.043 36.5266 28.5462 34.5063 35.237C33.4878 38.6103 33.2477 41.7996 33.2645 44.1505C33.2729 45.324 33.3452 46.2831 33.4147 46.9446C33.4495 47.2752 33.4835 47.5309 33.5083 47.7015C33.5207 47.7868 33.5308 47.8507 33.5376 47.8919L33.5451 47.9366L33.5467 47.9459L33.5468 47.9463L33.5469 47.947C33.5469 47.947 33.5469 47.947 33.5442 47.9474L31.7454 48.6943C31.7423 48.6966 31.7423 48.6966 31.7424 48.6967L31.7421 48.6963L31.7417 48.6958L31.7319 48.6822C31.7216 48.668 31.7043 48.6444 31.68 48.6124C31.6314 48.5484 31.555 48.4505 31.4506 48.3256C31.2418 48.0757 30.9226 47.7189 30.4935 47.3091C29.6338 46.4882 28.3434 45.4647 26.6266 44.6582C23.237 43.0658 18.0569 42.2558 11.002 45.8098C4.76137 48.9535 2.33696 53.926 1.45491 58.1472C1.01178 60.2678 0.960357 62.196 1.02058 63.5943C1.04492 64.1594 1.08738 64.6356 1.12889 65H187.435C187.488 64.8233 187.547 64.6098 187.605 64.3621C187.805 63.5221 188.006 62.2912 188 60.7628C187.987 57.7182 187.149 53.4544 183.754 48.7067C181.855 46.05 178.067 45.2402 174.407 45.2091C172.623 45.1939 170.964 45.3648 169.748 45.5408C169.142 45.6285 168.649 45.7171 168.31 45.7832C168.14 45.8162 168.01 45.8436 167.922 45.8624C167.879 45.8719 167.846 45.8791 167.825 45.8839L167.802 45.8891L167.798 45.8902L167.797 45.8902L132.571 23.375ZM132.571 23.375V23.3758V23.3761V25.3545L134.164 24.1805L134.164 24.1803L134.164 24.18L134.164 24.1799L134.169 24.1762L134.196 24.1569C134.221 24.139 134.26 24.1113 134.313 24.0748C134.419 24.0017 134.579 23.8935 134.79 23.7581C135.212 23.4872 135.835 23.1085 136.627 22.6863C138.215 21.8406 140.468 20.8281 143.135 20.1545C148.453 18.8111 155.373 18.8174 162.022 24.1548C167.207 28.3173 168.356 33.3683 168.223 37.4154C168.156 39.4514 167.762 41.2319 167.384 42.5043C167.195 43.1391 167.012 43.6436 166.877 43.9857C166.81 44.1566 166.755 44.2866 166.718 44.3716C166.71 44.3895 166.703 44.4053 166.697 44.4192C166.688 44.4383 166.681 44.4536 166.676 44.4649L166.667 44.4853L166.666 44.4876L166.665 44.4883M132.571 23.375L166.665 44.4883M166.665 44.4883L166.665 44.4887L166.665 44.4883ZM165.774 46.3654L167.797 45.8903L165.774 46.3654Z" fill="white" stroke="black" stroke-width="2"/>
</svg>
