<svg width="77" height="27" viewBox="0 0 77 27" fill="none" xmlns="http://www.w3.org/2000/svg">
<path d="M64.2587 14.9378L64.2586 14.9384L64.2586 14.9388L64.2585 14.9388L63.9073 16.8475L65.6618 16.0265L65.663 16.026L65.6643 16.0254L65.665 16.0251C65.6697 16.023 65.6793 16.0188 65.6936 16.0127C65.7222 16.0006 65.7696 15.9813 65.8343 15.9571C65.9639 15.9087 66.1615 15.8415 66.4149 15.7749C66.9237 15.6411 67.6454 15.5128 68.4877 15.5364C70.1377 15.5825 72.3257 16.2089 74.3544 18.7178C76.2657 21.0817 76.1551 22.7557 75.7725 23.7696C75.566 24.3167 75.2525 24.7444 74.9845 25.038C74.9039 25.1263 74.8288 25.2008 74.7644 25.2611L1.52594 25.9943C1.48925 25.9204 1.45053 25.8373 1.41142 25.7455C1.215 25.2846 1.01366 24.6162 1.00067 23.7973C0.975551 22.2149 1.65257 19.8309 5.0421 17.1396C5.49585 16.7793 6.16981 16.5527 7.0303 16.4643C7.88054 16.3768 8.82386 16.4334 9.72615 16.5586C10.6233 16.683 11.4475 16.8707 12.0495 17.0282C12.3494 17.1067 12.5916 17.1771 12.7572 17.2272C12.8399 17.2523 12.9033 17.2723 12.945 17.2856L12.9909 17.3005L13.001 17.3038L13.0024 17.3043L13.0027 17.3044L13.0028 17.3044L13.0029 17.3045L14.7954 17.9071L14.2844 16.0881L14.2842 16.0875L14.2842 16.0874L14.284 16.0868L14.2838 16.0859L14.2817 16.078C14.279 16.0681 14.2746 16.051 14.2687 16.0271C14.2569 15.9793 14.2393 15.9047 14.2188 15.8063C14.1776 15.6091 14.1248 15.3184 14.0824 14.959C13.997 14.2361 13.9562 13.2577 14.1231 12.2137C14.4497 10.17 15.5593 7.86271 18.8578 6.65184C22.261 5.40252 25.1995 6.02182 27.3153 6.96643C28.3769 7.44035 29.2248 7.99422 29.8052 8.42823C30.0947 8.64471 30.3156 8.82983 30.4611 8.95785C30.5338 9.0218 30.5875 9.07134 30.6214 9.10322C30.6289 9.11029 30.6354 9.11649 30.641 9.12178C30.6479 9.12841 30.6533 9.13362 30.6571 9.13733L30.6623 9.14239L30.6629 9.14297L30.6634 9.14343L30.6636 9.14365L30.6639 9.14399L31.8748 10.3562L32.333 8.7045L32.3331 8.70417L32.3332 8.70371L32.3334 8.70304L32.3335 8.70279L32.3372 8.69007C32.3408 8.67753 32.3469 8.65697 32.3555 8.62895C32.3727 8.57288 32.3999 8.48705 32.4377 8.37587C32.5135 8.15328 32.6314 7.83037 32.7963 7.44202C33.1276 6.66206 33.6415 5.63526 34.3727 4.63051C35.8348 2.62132 38.078 0.800449 41.4423 1.01782C44.8824 1.24008 46.9806 3.10939 48.2521 4.9764C48.8918 5.91557 49.314 6.8456 49.5758 7.5422C49.7063 7.88921 49.7956 8.17473 49.8514 8.36967C49.8793 8.46703 49.8987 8.54149 49.9107 8.58937C49.9167 8.6133 49.9208 8.63056 49.9232 8.64068L49.9251 8.64916L49.9253 8.64993L49.9254 8.65045L49.9254 8.65054L49.9256 8.65121L50.5153 11.3499L51.7884 8.89875L51.7884 8.89869L51.7888 8.89796L51.7891 8.89736L51.7895 8.89662L51.7919 8.89218C51.7958 8.88505 51.8026 8.87242 51.8125 8.85472C51.8323 8.8193 51.8642 8.7637 51.9081 8.69126C51.996 8.54618 52.1313 8.3348 52.3138 8.08358C52.6806 7.57862 53.2278 6.92669 53.9504 6.32846C55.3785 5.14616 57.4629 4.18526 60.2843 4.94581C62.9174 5.65559 63.9645 7.92034 64.3143 10.3423C64.4865 11.5348 64.4733 12.6899 64.4145 13.5542C64.3853 13.9842 64.3451 14.3367 64.3128 14.579C64.2967 14.7001 64.2825 14.7933 64.2727 14.8545C64.2678 14.8852 64.264 14.9078 64.2615 14.9218L64.259 14.9364L64.2587 14.9378ZM1.76357 26.4062C1.76415 26.407 1.76391 26.4067 1.76289 26.4053L1.76357 26.4062Z" fill="white" stroke="black" stroke-width="2"/>
</svg>
