<svg width="66" height="23" viewBox="0 0 66 23" fill="none" xmlns="http://www.w3.org/2000/svg">
<path d="M54.9386 12.6969L54.9385 12.6975L54.9384 12.6979L54.9384 12.6982L54.5857 14.6033L56.3388 13.7879L56.3404 13.7872L56.3623 13.7778C56.3852 13.7682 56.424 13.7524 56.4775 13.7326C56.5847 13.6928 56.7497 13.637 56.9619 13.5815C57.3884 13.4701 57.9937 13.3632 58.6999 13.3828C60.0785 13.4211 61.9136 13.9392 63.6231 16.0403C65.2331 18.0192 65.1207 19.3887 64.8149 20.1939C64.6465 20.6374 64.3899 20.986 64.169 21.2265C64.1186 21.2813 64.0709 21.3296 64.0278 21.3711L1.39558 21.9942C1.37746 21.9557 1.35896 21.9147 1.34034 21.8712C1.17794 21.4925 1.01131 20.9428 1.00055 20.2693C0.979934 18.9783 1.53082 16.9889 4.40827 14.7183C4.7676 14.4347 5.3155 14.2466 6.03996 14.1725C6.75393 14.0996 7.55065 14.1465 8.3179 14.2523C9.08004 14.3574 9.781 14.5159 10.2934 14.6492C10.5486 14.7156 10.7545 14.775 10.8949 14.8173C10.9651 14.8384 11.0187 14.8552 11.0538 14.8664L11.0922 14.8788L11.1004 14.8815L11.1011 14.8817L11.1015 14.8818L11.1017 14.8819L11.1017 14.8819L12.8948 15.481L12.3811 13.664L12.381 13.6637L12.381 13.6636L12.3809 13.6634L12.3808 13.6627L12.3792 13.6567C12.3782 13.653 12.3768 13.6478 12.3751 13.6412C12.3733 13.6343 12.3711 13.6258 12.3687 13.6158C12.359 13.5768 12.3443 13.515 12.3271 13.4331C12.2926 13.269 12.2481 13.0258 12.2124 12.7248C12.1403 12.1185 12.1063 11.3 12.2464 10.4286C12.5193 8.73138 13.4412 6.81671 16.2112 5.80614C19.0862 4.75721 21.5672 5.27648 23.357 6.07058C24.2554 6.4692 24.9732 6.93517 25.4641 7.30002C25.7089 7.48194 25.8953 7.63721 26.0175 7.74401C26.0785 7.79737 26.1233 7.83847 26.1512 7.86457C26.1652 7.87761 26.1749 7.88689 26.1802 7.89206L26.1831 7.89485L26.1837 7.89544L26.1842 7.89592L26.1849 7.89658L26.185 7.89667L27.3928 9.09838L27.8511 7.45657L27.8513 7.45605L27.8514 7.45559L27.8514 7.45554L27.8516 7.45485L27.8543 7.44573C27.8572 7.4357 27.8622 7.41887 27.8694 7.39569C27.8837 7.34931 27.9065 7.27767 27.9384 7.18451C28.0023 6.99797 28.102 6.72643 28.2417 6.39947C28.5226 5.74233 28.9578 4.87836 29.5761 4.03406C30.8118 2.34654 32.6932 0.833821 35.5132 1.0149C38.4082 1.20079 40.1708 2.76106 41.2425 4.32493C41.7824 5.11278 42.1393 5.89368 42.3606 6.47887C42.4708 6.77019 42.546 7.00948 42.5929 7.17208C42.6163 7.25327 42.6325 7.31504 42.6424 7.35425C42.6446 7.36299 42.6464 7.3706 42.648 7.37706C42.65 7.38507 42.6515 7.39129 42.6525 7.39566L42.6537 7.40069L42.6539 7.40149L42.654 7.40213L42.6542 7.40287L42.6542 7.40298L42.6542 7.40317L43.2438 10.0846L44.5152 7.65189L44.5154 7.65144L44.5159 7.65053L44.5162 7.64989L44.5166 7.64914L44.5176 7.64735C44.5205 7.64195 44.526 7.63189 44.5341 7.61753C44.5503 7.58878 44.5767 7.54291 44.6134 7.48277C44.6868 7.36228 44.8006 7.18572 44.9542 6.97547C45.2634 6.55247 45.7243 6.00694 46.332 5.50696C47.5301 4.52115 49.2717 3.723 51.6366 4.35654C53.8119 4.93932 54.6891 6.79394 54.9853 8.83214C55.1308 9.83392 55.1198 10.8063 55.0699 11.5357C55.0451 11.8982 55.0111 12.1951 54.9838 12.3988C54.9701 12.5005 54.9582 12.5785 54.95 12.6295C54.9459 12.6549 54.9427 12.6736 54.9407 12.685L54.9387 12.6966L54.9386 12.6969Z" fill="white" stroke="black" stroke-width="2"/>
</svg>
