<svg width="95" height="33" viewBox="0 0 95 33" fill="none" xmlns="http://www.w3.org/2000/svg">
<path d="M2.02923 32.4028C2.02895 32.4024 2.02816 32.4013 2.02691 32.3995L2.02712 32.3999L2.02825 32.4014L2.02923 32.4028ZM2.02923 32.4028C2.02936 32.4029 2.02939 32.403 2.02933 32.4029L2.02923 32.4028ZM79.3341 18.2964L79.334 18.297L79.334 18.297L79.334 18.2972L78.9811 20.2025L80.7356 19.3869L80.7361 19.3867L80.7372 19.3861L80.738 19.3858L80.739 19.3853L80.7416 19.3842C80.7487 19.3811 80.7618 19.3753 80.7809 19.3673C80.819 19.3514 80.8804 19.3265 80.9632 19.2957C81.1292 19.2341 81.3798 19.1495 81.7001 19.0659C82.3427 18.8981 83.2534 18.7373 84.3171 18.7668C86.4106 18.8249 89.1684 19.6181 91.7096 22.7401C94.1038 25.6817 93.9912 27.8073 93.4895 29.1281C93.2231 29.8294 92.8195 30.3756 92.4761 30.7493C92.3433 30.8938 92.2221 31.0097 92.1254 31.096L1.78293 31.9944C1.71767 31.8719 1.64482 31.7237 1.57105 31.5517C1.32073 30.9681 1.06474 30.1234 1.04821 29.089C1.01605 27.0762 1.8897 24.1013 6.1051 20.7763C6.71147 20.298 7.59055 20.0125 8.6728 19.902C9.74454 19.7925 10.9256 19.8638 12.0464 20.0182C13.162 20.172 14.1855 20.4036 14.9322 20.5977C15.3045 20.6945 15.6054 20.7813 15.8116 20.8433C15.9146 20.8744 15.9938 20.8991 16.0462 20.9158L16.1043 20.9345L16.1176 20.9389L16.12 20.9397L16.1202 20.9397L16.1203 20.9398L16.1204 20.9398L17.9137 21.5388L17.3996 19.7209L17.3994 19.7204L17.3992 19.7198L17.3991 19.7194L17.399 19.719L17.3956 19.7061C17.3943 19.7015 17.3928 19.6958 17.3911 19.6891C17.3878 19.6765 17.3836 19.6602 17.3787 19.6405C17.3636 19.5797 17.3414 19.4859 17.3155 19.3629C17.2637 19.1166 17.1977 18.755 17.1446 18.3086C17.038 17.4116 16.9866 16.1949 17.1959 14.8938C17.6072 12.3373 19.0134 9.43706 23.1674 7.92215C27.4267 6.36889 31.1073 7.1403 33.7506 8.31261C35.0758 8.90033 36.1338 9.58691 36.8583 10.1251C37.2199 10.3937 37.4964 10.6238 37.6795 10.7838C37.771 10.8637 37.8389 10.926 37.8824 10.9666C37.9041 10.9869 37.9196 11.0018 37.9289 11.0108L37.9377 11.0193L37.9381 11.0197L37.9383 11.0199L37.9387 11.0203L37.9391 11.0207L39.1472 12.2222L39.6057 10.5804L39.6057 10.5803L39.6059 10.5799L39.606 10.5793L39.6065 10.5776L39.6114 10.5607C39.6162 10.5444 39.624 10.5184 39.6349 10.4831C39.6566 10.4126 39.6908 10.3056 39.7381 10.1675C39.8327 9.89108 39.9797 9.49135 40.185 9.01112C40.5971 8.04745 41.237 6.77668 42.1493 5.5313C43.9732 3.04166 46.8004 0.749462 51.0508 1.02227C55.3762 1.29989 58.0153 3.63958 59.606 5.95973C60.4054 7.12573 60.9323 8.27904 61.2588 9.1421C61.4216 9.57236 61.5333 9.92694 61.6034 10.1701C61.6384 10.2916 61.663 10.3849 61.6783 10.4457C61.6859 10.476 61.6912 10.4982 61.6944 10.5117L61.6975 10.5251L61.6975 10.5252L61.6977 10.5259L61.6978 10.5264L61.6979 10.5269L62.2876 13.2078L63.5594 10.7755L63.5597 10.7749L63.5598 10.7747L63.56 10.7744L63.5604 10.7736L63.5649 10.7653C63.5701 10.7556 63.5792 10.7391 63.5919 10.7164C63.6175 10.6711 63.658 10.6009 63.7134 10.51C63.8243 10.3281 63.9942 10.0645 64.2229 9.75187C64.682 9.12404 65.3677 8.31205 66.2753 7.56567C68.0732 6.08706 70.7145 4.87621 74.2791 5.83074C77.654 6.7345 78.9693 9.62064 79.4038 12.6097C79.6186 14.087 79.6018 15.5149 79.5289 16.5809C79.4925 17.1117 79.4427 17.5472 79.4024 17.8473C79.3822 17.9973 79.3645 18.1131 79.3521 18.1897C79.346 18.228 79.3411 18.2564 79.338 18.2744L79.3347 18.2935L79.3341 18.2964Z" fill="white" stroke="black" stroke-width="2"/>
</svg>
