<svg width="95" height="30" viewBox="0 0 95 30" fill="none" xmlns="http://www.w3.org/2000/svg">
<path d="M79.5139 16.5985L79.5138 16.5991L79.5137 16.5995L79.5137 16.5996L79.1342 18.4568L80.8791 17.7214L80.8793 17.7213L80.8804 17.7209L80.8811 17.7206L80.882 17.7202L80.8855 17.7188C80.8929 17.7158 80.9065 17.7105 80.9259 17.7031C80.9648 17.6882 81.0273 17.6653 81.1113 17.6371C81.2794 17.5805 81.5331 17.5029 81.8572 17.4261C82.5071 17.2723 83.4294 17.1245 84.5071 17.1516C86.6398 17.2053 89.4133 17.9404 91.9512 20.7671C93.1621 22.1158 93.708 23.2534 93.9056 24.1655C94.1011 25.0675 93.9704 25.8129 93.7176 26.4164C93.4593 27.0328 93.0648 27.5192 92.7222 27.8572C92.5858 27.9918 92.4613 28.0991 92.3634 28.178L1.71083 28.9952C1.64874 28.8888 1.57993 28.7612 1.51027 28.614C1.26521 28.0961 1.01685 27.351 1.00082 26.4414C0.969935 24.6889 1.80288 22.0137 6.03524 18.9872C6.64744 18.5495 7.54105 18.2858 8.63977 18.1841C9.72478 18.0836 10.9174 18.1492 12.0454 18.2901C13.1686 18.4305 14.1985 18.6417 14.9492 18.8186C15.3236 18.9069 15.6264 18.9861 15.8339 19.0427C15.9376 19.071 16.0174 19.0937 16.0703 19.1089L16.1291 19.1261L16.1426 19.1301L16.1453 19.1309L16.1453 19.1309L16.1455 19.131L16.1456 19.131L17.9518 19.6779L17.3904 17.8783L17.3902 17.8776V17.8775L17.39 17.8769L17.3897 17.876L17.387 17.8668C17.3837 17.8556 17.3782 17.8365 17.3709 17.8098C17.3563 17.7565 17.3345 17.6733 17.3091 17.5638C17.2582 17.3443 17.193 17.021 17.1406 16.6214C17.0352 15.818 16.9849 14.7308 17.1909 13.5701C17.396 12.4145 17.8522 11.1998 18.7513 10.1076C19.6473 9.0194 21.0249 8.00151 23.1548 7.29734C27.4523 5.87656 31.1692 6.58365 33.8307 7.6537C35.1638 8.18969 36.2266 8.81517 36.9529 9.30431C37.3155 9.54851 37.5926 9.75759 37.7758 9.90274C37.8674 9.97527 37.9354 10.0317 37.9787 10.0685C38.0003 10.0868 38.0158 10.1002 38.025 10.1083L38.0334 10.1157L38.034 10.1162L38.034 10.1162L38.0345 10.1166L38.0349 10.117L39.1973 11.1651L39.6582 9.66895L39.6583 9.66862L39.6585 9.66813L39.6587 9.66741L39.6589 9.66695L39.6635 9.65263C39.668 9.63857 39.6756 9.61558 39.6862 9.5843C39.7075 9.5217 39.7412 9.42598 39.788 9.30204C39.8818 9.05395 40.0277 8.69404 40.2319 8.2611C40.6416 7.39244 41.2787 6.24507 42.1881 5.11973C43.9985 2.87936 46.8406 0.769579 51.1516 1.02042C55.5283 1.27509 58.1758 3.42014 59.754 5.50706C60.5497 6.55921 61.0732 7.59862 61.397 8.37445C61.5585 8.76131 61.669 9.07954 61.7381 9.29677C61.7726 9.40529 61.7966 9.4883 61.8115 9.54174C61.8189 9.56844 61.824 9.58773 61.827 9.59908L61.8295 9.60877L61.8297 9.60962L61.8298 9.61008L61.8298 9.61027L61.83 9.61099L62.4188 12.0377L63.6663 9.8747L63.6665 9.87437L63.6667 9.87395L63.6671 9.87335L63.6675 9.87259L63.6711 9.86658C63.6761 9.85828 63.6848 9.84386 63.6973 9.82378C63.7222 9.78361 63.7621 9.7209 63.8169 9.63939C63.9267 9.47622 64.0955 9.23876 64.3232 8.95656C64.7799 8.39029 65.4646 7.65485 66.3732 6.97745C68.173 5.63557 70.8472 4.51676 74.462 5.3943C77.8741 6.22264 79.1574 8.83992 79.5825 11.4909C79.7951 12.8165 79.7787 14.0999 79.7062 15.0604C79.6701 15.5381 79.6206 15.9299 79.5807 16.1993C79.5608 16.3339 79.5433 16.4375 79.5312 16.5057C79.5251 16.5397 79.5204 16.5649 79.5174 16.5806L79.5142 16.5969L79.5139 16.5985ZM1.95635 29.3659C1.95635 29.3659 1.9557 29.3651 1.95444 29.3635L1.95484 29.3641L1.95623 29.3658L1.95635 29.3659Z" fill="white" stroke="black" stroke-width="2"/>
</svg>
