<svg width="26" height="48" viewBox="0 0 26 48" fill="none" xmlns="http://www.w3.org/2000/svg">
<path d="M15.8342 45.7229C15.9532 45.5664 16.0883 45.3872 16.2369 45.1876C16.8336 44.3859 17.646 43.2576 18.5084 41.9522C20.2503 39.3154 22.1307 36.0522 22.9066 33.3203L22.9394 33.2049C24.0703 29.2232 24.7247 26.9195 23.9545 23.1383C23.3904 20.3693 22.3361 18.8295 20.8548 16.6661C20.4384 16.0581 19.9883 15.4007 19.5059 14.653C17.5955 11.692 14.4725 8.30729 11.7857 5.63209C10.4498 4.30193 9.23559 3.16068 8.35561 2.35222C8.20041 2.20964 8.05566 2.07745 7.92253 1.95646C7.85189 2.10775 7.77575 2.27178 7.69475 2.44758C7.20656 3.50718 6.54271 4.99248 5.84063 6.69391C4.42841 10.1163 2.89209 14.3411 2.29053 17.7281C2.16422 18.4393 2.03855 19.0876 1.92099 19.6941C1.3951 22.4072 1.03169 24.282 1.50046 27.195C2.12061 31.0489 3.33902 33.064 5.65547 36.474C7.19694 38.7431 9.89953 41.1757 12.2851 43.0769C13.466 44.0181 14.5472 44.8119 15.333 45.3703C15.5173 45.5013 15.6853 45.6192 15.8342 45.7229Z" fill="#74C494" stroke="black" stroke-width="2"/>
</svg>
