<svg width="129" height="49" viewBox="0 0 129 49" fill="none" xmlns="http://www.w3.org/2000/svg">
<path d="M108.384 25.1717L108.384 25.1726L108.383 25.1733L108.383 25.1734L108.383 25.1741L107.144 27.445L109.588 26.596L109.589 26.5958L109.589 26.5955L109.59 26.5953L109.602 26.5915C109.614 26.5874 109.635 26.5806 109.664 26.5716C109.722 26.5535 109.812 26.5265 109.933 26.4937C110.174 26.428 110.534 26.3398 110.992 26.2554C111.909 26.0862 113.213 25.9337 114.74 26.0041C117.783 26.1444 121.713 27.1669 125.295 30.7321C127.008 32.4371 127.648 34.2454 127.691 36.0086C127.736 37.8047 127.16 39.621 126.321 41.2839C125.485 42.9413 124.416 44.3885 123.547 45.4276C123.114 45.9451 122.736 46.3563 122.467 46.6363C122.414 46.6913 122.366 46.7413 122.322 46.7859L3.87067 47.961C3.85645 47.9431 3.84177 47.9246 3.82665 47.9054C3.6185 47.641 3.32876 47.2485 3.01347 46.7487C2.38004 45.7446 1.65934 44.3323 1.27535 42.6728C0.893221 41.0213 0.845704 39.1336 1.54139 37.1421C2.2369 35.1511 3.70115 32.9821 6.46258 30.8092C9.49601 28.4223 12.9004 27.376 15.5728 26.9312C16.9056 26.7094 18.0449 26.6391 18.8467 26.6241C19.2472 26.6166 19.5623 26.623 19.774 26.6309C19.8798 26.6348 19.9596 26.6392 20.0112 26.6424C20.037 26.644 20.0557 26.6453 20.067 26.6461L20.0785 26.647L20.0788 26.647L20.0794 26.6471L20.0798 26.6471L20.0801 26.6471L21.1711 26.74L21.1636 25.6494C21.1636 25.6495 21.1636 25.6495 21.1636 25.6494C21.1636 25.6492 21.1636 25.6488 21.1636 25.648C21.1636 25.6473 21.1636 25.6464 21.1636 25.6452C21.1637 25.639 21.164 25.6264 21.1647 25.6074C21.1661 25.5696 21.1693 25.5067 21.1767 25.4205C21.1913 25.2481 21.2224 24.9829 21.2881 24.6397C21.4195 23.9534 21.6897 22.9545 22.2455 21.7593C23.3531 19.3775 25.615 16.1724 30.2616 13.0991C34.787 10.1059 38.9662 10.117 42.0222 10.8571C43.5606 11.2297 44.819 11.7892 45.6907 12.2547C46.1257 12.487 46.4618 12.6945 46.6854 12.841C46.7972 12.9143 46.8806 12.9722 46.934 13.0102C46.9607 13.0291 46.9798 13.0431 46.9912 13.0516L47.002 13.0596L47.0025 13.06L47.0027 13.0601L47.0033 13.0605L47.0038 13.0609L48.0894 13.8905L48.5499 12.6043L48.5501 12.6037L48.5503 12.603L48.5507 12.6021L48.5507 12.602L48.5571 12.585C48.5609 12.575 48.5662 12.5611 48.5732 12.5435C48.578 12.5313 48.5836 12.5172 48.59 12.5013C48.621 12.4243 48.6706 12.306 48.7406 12.1523C48.8806 11.8447 49.1019 11.3961 49.4193 10.8534C50.0545 9.76722 51.0706 8.31083 52.5846 6.85289C55.5945 3.95436 60.6204 1.00012 68.6905 1C76.7541 0.999884 81.0354 3.94508 83.3214 6.76248C84.4796 8.18991 85.1521 9.61766 85.5342 10.6854C85.7249 11.2186 85.8422 11.6591 85.911 11.9604C85.9453 12.111 85.9675 12.2264 85.9806 12.3009C85.9872 12.3381 85.9915 12.3651 85.9939 12.381L85.996 12.3949L85.9961 12.396L85.9962 12.3965L85.9963 12.3969L85.9964 12.3978L86.2581 14.3961L87.6902 12.9765L87.6905 12.9762L87.6909 12.9758L87.6915 12.9752L87.6917 12.975L87.7033 12.9638C87.7071 12.9601 87.7118 12.9557 87.7173 12.9505C87.7282 12.9401 87.7424 12.9267 87.7599 12.9105C87.8122 12.8619 87.8935 12.7882 88.0022 12.6945C88.2197 12.5071 88.5457 12.2411 88.9675 11.9385C89.8137 11.3315 91.0317 10.5872 92.5219 10.03C95.4735 8.92644 99.501 8.54525 103.936 11.4881C108.401 14.4503 109.438 17.8803 109.442 20.5207C109.444 21.8698 109.175 23.0461 108.902 23.8869C108.767 24.3059 108.632 24.637 108.533 24.8591C108.484 24.9701 108.444 25.0534 108.417 25.1065C108.404 25.133 108.395 25.152 108.389 25.163L108.384 25.1717Z" fill="white" stroke="black" stroke-width="2"/>
</svg>
