<svg width="95" height="33" viewBox="0 0 95 33" fill="none" xmlns="http://www.w3.org/2000/svg">
<path d="M79.5105 18.2959L79.5104 18.2965L79.5103 18.2965L79.5103 18.2968L79.1567 20.2006L80.9109 19.3873L80.9114 19.3871L80.9125 19.3866L80.9133 19.3862L80.9142 19.3858L80.9169 19.3846C80.9241 19.3815 80.9373 19.3757 80.9564 19.3677C80.9947 19.3517 81.0563 19.3268 81.1395 19.296C81.306 19.2344 81.5574 19.1497 81.8788 19.066C82.5235 18.8982 83.4374 18.7372 84.5046 18.7668C86.6057 18.8249 89.3721 19.6189 91.9206 22.7412C94.3215 25.6827 94.2081 27.8076 93.7054 29.1272C93.4383 29.8283 93.0336 30.3745 92.6891 30.7483C92.5555 30.8933 92.4335 31.0096 92.3364 31.096L1.73796 31.9944C1.67238 31.8718 1.59914 31.7232 1.52497 31.5507C1.27402 30.9673 1.01741 30.1229 1.00085 29.089C0.968621 27.0774 1.8441 24.1026 6.07182 20.7772C6.68053 20.2984 7.56296 20.0126 8.6489 19.902C9.72422 19.7925 10.9091 19.8638 12.0332 20.0183C13.1522 20.1721 14.1788 20.4037 14.9276 20.5978C15.301 20.6946 15.6029 20.7815 15.8097 20.8436C15.913 20.8746 15.9924 20.8994 16.045 20.9161L16.1033 20.9348L16.1167 20.9392L16.1191 20.9399L16.1192 20.94L16.1194 20.94L16.1195 20.9401L17.913 21.5374L17.3976 19.7202L17.3975 19.7197L17.3973 19.7191L17.3972 19.7187L17.3971 19.7183L17.3936 19.7055C17.3901 19.6922 17.3843 19.6702 17.3768 19.6398C17.3616 19.5791 17.3394 19.4853 17.3134 19.3624C17.2615 19.1161 17.1953 18.7546 17.142 18.3082C17.0351 17.4114 16.9836 16.195 17.1935 14.8942C17.6057 12.339 19.0153 9.438 23.1827 7.92246C27.4554 6.36862 31.1478 7.14039 33.7992 8.31302C35.1284 8.90089 36.1896 9.58762 36.9162 10.1259C37.2789 10.3945 37.5562 10.6247 37.7398 10.7847C37.8316 10.8647 37.8998 10.9269 37.9433 10.9676C37.9651 10.9879 37.9807 11.0028 37.99 11.0117L37.9989 11.0203L37.9992 11.0207L37.9994 11.0209L37.9999 11.0213L38.0002 11.0217L39.2071 12.2185L39.6657 10.5811L39.6657 10.581L39.6658 10.5806L39.666 10.58L39.6665 10.5783L39.6714 10.5614C39.6762 10.5452 39.684 10.5191 39.6949 10.4839C39.7167 10.4134 39.7509 10.3064 39.7984 10.1683C39.8933 9.89193 40.0406 9.49223 40.2465 9.01205C40.6596 8.04846 41.3013 6.77774 42.2162 5.53237C44.0449 3.04308 46.8809 0.749301 51.1458 1.02228C55.4855 1.30004 58.1327 3.64091 59.7275 5.9608C60.5291 7.12677 61.0575 8.28001 61.3849 9.14296C61.5481 9.57317 61.6601 9.9277 61.7304 10.1708C61.7655 10.2923 61.7901 10.3856 61.8054 10.4463C61.8131 10.4767 61.8184 10.4988 61.8216 10.5123L61.8247 10.5257L61.8247 10.5258L61.8249 10.5264L61.825 10.527L61.8251 10.5274L62.4148 13.2009L63.6859 10.7765L63.6862 10.7759L63.6863 10.7757L63.6865 10.7754L63.6869 10.7746L63.6914 10.7663C63.6935 10.7625 63.6962 10.7576 63.6995 10.7516C63.7045 10.7426 63.7108 10.7312 63.7186 10.7175C63.7442 10.6721 63.7848 10.6019 63.8403 10.5111C63.9515 10.3292 64.1219 10.0656 64.3512 9.75294C64.8116 9.12512 65.4993 8.31305 66.4096 7.56654C68.2128 6.08765 70.8631 4.87579 74.4399 5.83092C77.8265 6.73529 79.1448 9.62252 79.5803 12.6101C79.7957 14.0872 79.7789 15.5148 79.7057 16.5807C79.6693 17.1114 79.6193 17.5469 79.5788 17.847C79.5587 17.9969 79.5409 18.1127 79.5285 18.1892C79.5265 18.202 79.5245 18.2137 79.5228 18.2243C79.5193 18.2454 79.5164 18.262 79.5143 18.274L79.511 18.293L79.5105 18.2959ZM1.98446 32.4018C1.98466 32.4021 1.98383 32.401 1.98203 32.3985L1.98224 32.3988L1.98337 32.4004L1.98446 32.4018Z" fill="white" stroke="black" stroke-width="2"/>
</svg>
