<svg width="35" height="35" viewBox="0 0 35 35" fill="none" xmlns="http://www.w3.org/2000/svg">
<path d="M16.1279 4.60764C16.4837 3.88144 16.7966 3.19799 17.0592 2.60033C17.3285 3.19929 17.6495 3.88486 18.014 4.61354C19.1722 6.92897 20.8225 9.78882 22.7058 11.6452C24.539 13.4521 27.334 15.0385 29.5931 16.1528C30.3469 16.5246 31.0528 16.8494 31.6607 17.118C31.0463 17.4313 30.328 17.8103 29.5593 18.2406C27.3059 19.502 24.5277 21.2545 22.6932 23.1288C20.9428 24.9172 19.299 27.5856 18.1139 29.7442C17.7096 30.4807 17.3532 31.168 17.0585 31.7555C16.7709 31.169 16.4233 30.4837 16.0284 29.7497C14.8666 27.59 13.2491 24.919 11.5096 23.131C9.66517 21.235 6.85642 19.4813 4.57789 18.2243C3.81018 17.8007 3.09191 17.4278 2.47526 17.1187C3.08508 16.854 3.79088 16.5345 4.54359 16.1687C6.82753 15.0589 9.65306 13.4716 11.497 11.643C13.3694 9.78628 14.9931 6.92377 16.1279 4.60764Z" fill="#FFF5C2" stroke="black" stroke-width="2"/>
</svg>
