<svg width="31" height="35" viewBox="0 0 31 35" fill="none" xmlns="http://www.w3.org/2000/svg">
<path d="M28.6812 17.5062C28.1495 17.8097 27.5363 18.1715 26.8825 18.5794C24.86 19.8413 22.3623 21.5967 20.7113 23.4768C19.1361 25.2706 17.6587 27.9443 16.5951 30.1037C16.2513 30.8016 15.9461 31.4554 15.69 32.022C15.4401 31.4566 15.1425 30.8049 14.8069 30.1095C13.7642 27.9492 12.3103 25.2726 10.7448 23.4791C9.08478 21.5771 6.55949 19.8204 4.51447 18.5629C3.86213 18.1618 3.24954 17.806 2.71642 17.5069C3.24249 17.2509 3.84322 16.9465 4.48152 16.6008C6.53147 15.4906 9.07261 13.9002 10.7329 12.0652C12.4188 10.2018 13.8785 7.33253 14.897 5.01556C15.1975 4.33204 15.4639 3.68637 15.6907 3.11436C15.9234 3.68784 16.1967 4.33575 16.5046 5.02186C17.5441 7.3381 19.0276 10.2046 20.7233 12.0674C22.3738 13.8806 24.8874 15.4701 26.915 16.5847C27.5548 16.9365 28.1563 17.2463 28.6812 17.5062Z" fill="#FFF5C2" stroke="black" stroke-width="2"/>
</svg>
