<svg width="192" height="67" viewBox="0 0 192 67" fill="none" xmlns="http://www.w3.org/2000/svg">
<path d="M161.699 37.3355L161.699 37.3352L161.699 37.3337L161.701 37.3237L161.708 37.2792C161.715 37.2387 161.726 37.1768 161.739 37.0949C161.766 36.931 161.803 36.6869 161.845 36.3729C161.929 35.7446 162.033 34.8378 162.108 33.7348C162.259 31.5242 162.295 28.5475 161.846 25.4531C160.943 19.2292 158.144 12.8372 150.709 10.8428C143.085 8.79764 137.4 11.4105 133.572 14.5643C131.649 16.1483 130.202 17.8661 129.235 19.1904C128.753 19.8513 128.392 20.4108 128.155 20.8015C128.036 20.9968 127.948 21.1496 127.89 21.2515C127.862 21.3025 127.841 21.3407 127.828 21.365L127.814 21.3911L127.811 21.3957L127.811 21.3962L127.811 21.3963L127.811 21.3966L126.538 23.835L125.948 21.1483L125.948 21.1481L125.948 21.1475L125.948 21.1474L125.946 21.1403L125.938 21.1054C125.931 21.073 125.919 21.0228 125.902 20.9558C125.868 20.8219 125.815 20.621 125.741 20.3626C125.592 19.8454 125.357 19.0988 125.016 18.1961C124.333 16.3881 123.231 13.9685 121.553 11.5168C118.205 6.62499 112.599 1.63666 103.433 1.04732C94.3431 0.462826 88.3147 5.40342 84.4995 10.6206C82.5916 13.2297 81.2587 15.8837 80.4025 17.8897C79.9751 18.891 79.6684 19.7267 79.4693 20.3088C79.3699 20.5997 79.2974 20.8269 79.2504 20.9795C79.2269 21.0557 79.2098 21.1133 79.1988 21.1508L79.1869 21.1918L79.1844 21.2006L79.1842 21.2016L161.699 37.3355ZM161.699 37.3355L161.698 37.3356L161.346 39.2423L163.102 38.4243L163.103 38.4242L163.103 38.424L163.104 38.4236L163.106 38.4228L163.127 38.4135C163.147 38.4045 163.18 38.3902 163.224 38.3713C163.314 38.3336 163.452 38.2777 163.634 38.21C163.999 38.0745 164.539 37.892 165.225 37.7125C166.599 37.3531 168.543 37.0091 170.816 37.0723C175.329 37.1978 181.209 38.9256 186.566 45.5183C191.615 51.7327 191.503 56.4305 190.337 59.5052C189.739 61.0834 188.837 62.3017 188.079 63.1283C187.701 63.5402 187.363 63.8503 187.123 64.0545C187.077 64.094 187.034 64.1295 186.996 64.1609L2.92521 65.9946C2.91259 65.974 2.89961 65.9525 2.8863 65.9303C2.68853 65.6005 2.41858 65.1057 2.14475 64.4662C1.59663 63.1861 1.03792 61.338 1.00185 59.076C0.930589 54.6078 2.89803 48.2821 11.642 41.3728C13.0844 40.233 15.0841 39.6167 17.3769 39.3821C19.6593 39.1486 22.1411 39.3025 24.4581 39.6224C26.77 39.9416 28.8853 40.4213 30.4247 40.8222C31.1933 41.0224 31.8159 41.2023 32.2445 41.3316C32.4588 41.3962 32.6245 41.4481 32.7355 41.4836C32.7911 41.5013 32.8329 41.5149 32.8604 41.5238L32.8907 41.5338L32.8976 41.5361L32.8988 41.5365L32.8989 41.5365L32.899 41.5366L34.6923 42.1366L34.1788 40.3174L34.1787 40.3172L34.1785 40.3165L34.1785 40.3165L34.1766 40.3095L34.1672 40.2748C34.1587 40.2426 34.1456 40.1923 34.1289 40.125C34.0955 39.9903 34.0476 39.7877 33.9925 39.525C33.8821 38.9992 33.7428 38.2345 33.6312 37.2938C33.4074 35.408 33.2975 32.8373 33.7411 30.0749C34.621 24.5956 37.6675 18.3452 46.5058 15.1162C55.4492 11.8489 63.1894 13.4772 68.7214 15.935C71.491 17.1655 73.7006 18.602 75.2157 19.7294C75.9725 20.2926 76.554 20.7772 76.9433 21.118C77.1379 21.2883 77.2842 21.4226 77.3803 21.5126C77.4057 21.5364 77.4275 21.5571 77.4458 21.5745C77.4622 21.5901 77.4756 21.603 77.4863 21.6133L77.5104 21.6368L77.5151 21.6414L77.5152 21.6415L77.5156 21.6419L77.5158 21.6421L78.7253 22.8472L79.184 21.2021L161.699 37.3355Z" fill="white" stroke="black" stroke-width="2"/>
</svg>
