<svg width="86" height="33" viewBox="0 0 86 33" fill="none" xmlns="http://www.w3.org/2000/svg">
<path d="M71.2343 18.3142L71.2342 18.3145L71.2342 18.3146L71.2342 18.3149L70.9061 20.2833L72.6755 19.3691L72.6757 19.369L72.6766 19.3686L72.6779 19.3679L72.6787 19.3675L72.6796 19.3671C72.682 19.3659 72.6855 19.3642 72.69 19.362C72.6957 19.3593 72.7032 19.3557 72.7122 19.3515C72.7446 19.3364 72.7978 19.3124 72.87 19.2826C73.0148 19.2229 73.2346 19.1404 73.5162 19.0587C74.0813 18.8947 74.8809 18.7379 75.8134 18.7667C77.6315 18.8228 80.0798 19.584 82.3615 22.6997C84.5161 25.642 84.4314 27.8 83.9668 29.1598C83.724 29.8702 83.3581 30.4183 83.0519 30.7888C82.9489 30.9133 82.8539 31.0162 82.7747 31.0968L1.65074 31.9934C1.59643 31.8779 1.53705 31.7415 1.47697 31.5858C1.24975 30.9971 1.01587 30.141 1.00077 29.0906C0.971224 27.0349 1.77742 24.0525 5.5523 20.7431C6.07601 20.284 6.83439 20.0083 7.78186 19.9008C8.72346 19.7939 9.76793 19.863 10.7672 20.0161C11.7608 20.1683 12.6739 20.3978 13.341 20.5905C13.6733 20.6866 13.9419 20.7727 14.1255 20.8341C14.2172 20.8648 14.2875 20.8893 14.3339 20.9057L14.3849 20.9239L14.3963 20.9281L14.3979 20.9287L14.3982 20.9288L14.3983 20.9288L14.3984 20.9289L16.1851 21.5921L15.7154 19.7462L15.7153 19.7458L15.7152 19.7453L15.715 19.7446L15.715 19.7443L15.7116 19.7304C15.7083 19.7168 15.703 19.6943 15.6961 19.6634C15.6823 19.6018 15.6621 19.5069 15.6387 19.3828C15.5916 19.1343 15.5317 18.7699 15.4836 18.3203C15.387 17.4171 15.3403 16.1907 15.5303 14.8782C15.9071 12.2751 17.1908 9.40032 20.869 7.90944C24.6413 6.38045 27.8954 7.13665 30.2462 8.29542C31.4266 8.8773 32.3711 9.55815 33.0195 10.0935C33.3428 10.3604 33.5901 10.5892 33.7537 10.7481C33.8355 10.8275 33.8962 10.8893 33.9349 10.9296C33.9457 10.9408 33.9548 10.9504 33.9622 10.9582C33.9679 10.9643 33.9726 10.9693 33.9762 10.9731L33.9837 10.9812L33.9842 10.9818L33.9846 10.9822L33.985 10.9826L35.239 12.3688L35.6948 10.5549L35.6949 10.5549L35.6949 10.5546L35.6951 10.554L35.6956 10.5518L35.7002 10.5344C35.7046 10.5178 35.7117 10.4914 35.7216 10.4558C35.7413 10.3845 35.7723 10.2768 35.8151 10.138C35.9007 9.86006 36.0334 9.45878 36.2188 8.97703C36.5908 8.0099 37.1678 6.73685 37.9892 5.49066C39.642 2.98303 42.1531 0.756252 45.8753 1.02179C49.6848 1.29355 52.0374 3.58523 53.4771 5.91926C54.1973 7.08681 54.6729 8.2432 54.9681 9.11048C55.1153 9.54266 55.2163 9.89916 55.2798 10.1442C55.3116 10.2666 55.3339 10.3608 55.3478 10.4225C55.3548 10.4532 55.3597 10.4759 55.3626 10.4897L55.3656 10.5039L55.3657 10.5044L55.3659 10.5051L55.366 10.5056L55.366 10.5059L55.9564 13.4891L57.2507 10.7377L57.251 10.7372L57.2512 10.7368L57.2512 10.7366L57.2516 10.736L57.2559 10.7271C57.2607 10.7172 57.2689 10.7006 57.2805 10.6777C57.3036 10.632 57.3402 10.5615 57.3902 10.4704C57.4903 10.2879 57.6434 10.024 57.8492 9.71123C58.2629 9.08249 58.8783 8.27322 59.6899 7.53142C61.298 6.0615 63.6145 4.89437 66.7353 5.82322C69.6936 6.70368 70.8993 9.55125 71.2975 12.5956C71.4919 14.0818 71.4767 15.5172 71.4107 16.5877C71.3779 17.1209 71.3328 17.5586 71.2963 17.8605C71.2781 18.0113 71.2621 18.1279 71.2508 18.2053C71.2452 18.244 71.2408 18.2728 71.2379 18.2912L71.2348 18.3108L71.2343 18.3142ZM1.89229 32.4434C1.89204 32.443 1.89133 32.4419 1.89017 32.4402L1.89038 32.4406L1.8914 32.4421L1.89229 32.4434Z" fill="white" stroke="black" stroke-width="2"/>
</svg>
