<svg width="100" height="38" viewBox="0 0 100 38" fill="none" xmlns="http://www.w3.org/2000/svg">
<path d="M83.7443 21.1109L83.7442 21.111L83.7442 21.1114L83.7441 21.1116L83.412 23.0681L85.179 22.1719L85.1795 22.1717L85.1807 22.1711L85.1815 22.1707L85.1824 22.1702L85.1855 22.1688C85.193 22.1651 85.207 22.1585 85.2272 22.1492C85.2675 22.1308 85.3324 22.1021 85.4199 22.0667C85.5951 21.9957 85.8594 21.8984 86.197 21.8022C86.8742 21.6093 87.8326 21.4248 88.9511 21.4587C91.1436 21.5251 94.0665 22.43 96.7725 26.0567C99.3265 29.4798 99.2375 32.0105 98.6765 33.6215C98.3849 34.4592 97.9454 35.1057 97.5768 35.5432C97.4297 35.7179 97.2958 35.8569 97.1903 35.9591L1.82316 36.9937C1.7462 36.8394 1.65814 36.6472 1.56891 36.4202C1.29751 35.73 1.01891 34.7284 1.00092 33.5002C0.965635 31.0908 1.93135 27.6172 6.39286 23.7782C7.04344 23.2184 7.97381 22.8921 9.10818 22.7657C10.2358 22.6401 11.4795 22.7218 12.6611 22.8995C13.8373 23.0763 14.9168 23.3427 15.7046 23.5661C16.0974 23.6775 16.4149 23.7774 16.6324 23.8489C16.7411 23.8846 16.8246 23.9131 16.8799 23.9323C16.9076 23.9419 16.9281 23.9492 16.9412 23.9538L16.9552 23.9588L16.9577 23.9597L16.9579 23.9598L16.958 23.9598L16.9582 23.9599L18.7456 24.6111L18.2684 22.7706L18.2684 22.7704L18.2682 22.7699L18.2681 22.7692L18.2678 22.768L18.2636 22.7511C18.2618 22.7439 18.2596 22.7347 18.257 22.7237C18.2536 22.7095 18.2496 22.6922 18.245 22.6719C18.2285 22.5995 18.2045 22.4889 18.1766 22.3444C18.1209 22.0552 18.05 21.632 17.9931 21.1102C17.879 20.0627 17.8236 18.6388 18.0485 17.1134C18.4946 14.0888 20.0208 10.7171 24.4127 8.96983C28.9014 7.18409 32.7773 8.06929 35.5684 9.41963C36.9687 10.0971 38.088 10.8893 38.8562 11.5118C39.2394 11.8223 39.5329 12.0887 39.7277 12.2744C39.825 12.3672 39.8975 12.4397 39.9441 12.4872C39.9674 12.511 39.9842 12.5285 39.9944 12.5392L40.0046 12.55L40.0047 12.5502L40.0053 12.5508L40.0057 12.5512L40.0059 12.5515L41.2523 13.9036L41.7086 12.1213L41.7086 12.1211L41.7086 12.121L41.7088 12.1205L41.7097 12.1172L41.7152 12.0963C41.7205 12.0767 41.729 12.0456 41.7407 12.0041C41.7643 11.9209 41.8009 11.7957 41.8515 11.6345C41.9528 11.3119 42.1096 10.8468 42.3283 10.2887C42.7672 9.16887 43.4486 7.69287 44.4199 6.24636C46.3706 3.34154 49.368 0.712785 53.8351 1.02557C58.3871 1.34429 61.1892 4.0345 62.8918 6.74369C63.7442 8.09996 64.3063 9.44197 64.6551 10.4475C64.829 10.9488 64.9485 11.3626 65.0238 11.6476C65.0614 11.7899 65.0879 11.8998 65.1046 11.9721C65.1129 12.0082 65.1188 12.0348 65.1224 12.0514L65.126 12.0686L65.1263 12.0701L65.1265 12.0708L65.1265 12.0712L65.1266 12.0713L65.7169 14.9992L67.0076 12.3062L67.0078 12.3058L67.008 12.3053L67.0084 12.3047L67.0143 12.2926C67.0203 12.2806 67.0302 12.2608 67.0442 12.2338C67.072 12.1799 67.1157 12.0973 67.1752 11.9909C67.2943 11.7778 67.476 11.4705 67.7199 11.1065C68.2099 10.3756 68.9401 9.43268 69.9051 8.56695C71.8195 6.84944 74.6031 5.46749 78.3489 6.56174C81.9264 7.60681 83.3514 10.9764 83.8192 14.4867C84.0487 16.2093 84.0305 17.8711 83.9529 19.1092C83.9141 19.7261 83.861 20.2327 83.8179 20.5826C83.7964 20.7574 83.7774 20.8927 83.7641 20.9828C83.7574 21.0278 83.7522 21.0615 83.7488 21.0831L83.745 21.1064L83.7443 21.1109Z" fill="white" stroke="black" stroke-width="2"/>
</svg>
