<svg width="78" height="27" viewBox="0 0 78 27" fill="none" xmlns="http://www.w3.org/2000/svg">
<path d="M64.8108 14.9383L64.8107 14.9389L64.8106 14.9392L64.8106 14.9393L64.4601 16.8496L66.2149 16.0261L66.2161 16.0255L66.2174 16.0249L66.2181 16.0246C66.2227 16.0226 66.2322 16.0184 66.2465 16.0123C66.275 16.0003 66.3222 15.9809 66.3867 15.9568C66.5158 15.9084 66.7126 15.8413 66.9652 15.7747C67.4723 15.641 68.1914 15.5129 69.0307 15.5364C70.6744 15.5824 72.8554 16.2081 74.8782 18.7168C76.7842 21.0806 76.6744 22.7554 76.2925 23.7704C76.0865 24.3178 75.7738 24.7455 75.5066 25.039C75.4266 25.1268 75.3522 25.201 75.2882 25.2612L2.25758 25.9942C2.22113 25.9206 2.18268 25.8378 2.14385 25.7465C1.94792 25.2854 1.74703 24.6167 1.73406 23.7973C1.709 22.2138 2.38474 19.8296 5.76428 17.1387C6.21613 16.779 6.88732 16.5526 7.74474 16.4642C8.59202 16.3769 9.53223 16.4334 10.4318 16.5585C11.3262 16.6829 12.1479 16.8705 12.748 17.028C13.0471 17.1065 13.2886 17.1768 13.4536 17.227C13.5361 17.252 13.5992 17.272 13.6408 17.2854L13.6866 17.3002L13.6967 17.3036L13.698 17.304L13.6983 17.3041L13.6984 17.3042L13.6985 17.3042L15.4908 17.9085L14.981 16.0888L14.9808 16.0882L14.9808 16.0881L14.9806 16.0875L14.9804 16.0866L14.9783 16.0787C14.9756 16.0687 14.9712 16.0516 14.9653 16.0277C14.9536 15.98 14.936 15.9053 14.9155 15.8068C14.8744 15.6096 14.8218 15.3188 14.7794 14.9594C14.6943 14.2362 14.6536 13.2576 14.8201 12.2132C15.146 10.1683 16.253 7.86176 19.5406 6.65153C22.9327 5.4028 25.8615 6.02174 27.9708 6.96601C29.0291 7.43978 29.8744 7.9935 30.4531 8.42743C30.7417 8.64387 30.962 8.82895 31.107 8.95693C31.1795 9.02087 31.2331 9.0704 31.2668 9.10227C31.2837 9.1182 31.2956 9.1297 31.3024 9.13636L31.3076 9.14141L31.3082 9.14199L31.3086 9.14245L31.3089 9.14267L31.3092 9.14301L32.5213 10.3598L32.9795 8.7038L32.9796 8.70348L32.9797 8.70302L32.9799 8.70235L32.98 8.70209L32.9836 8.68935C32.9854 8.68317 32.9878 8.67504 32.9908 8.66502C32.9939 8.65472 32.9976 8.64242 33.0019 8.6282C33.0191 8.57211 33.0462 8.48627 33.0839 8.37507C33.1595 8.15244 33.2771 7.82949 33.4416 7.4411C33.772 6.66105 34.2844 5.6342 35.0136 4.62944C36.472 2.61988 38.708 0.800613 42.0603 1.01781C45.4885 1.23993 47.5803 3.10804 48.8485 4.97533C49.4863 5.91453 49.9075 6.84464 50.1686 7.54134C50.2987 7.8884 50.3878 8.17397 50.4434 8.36896C50.4712 8.46635 50.4906 8.54083 50.5026 8.58873C50.5086 8.61267 50.5127 8.62994 50.515 8.64008L50.517 8.64859L50.5172 8.64937L50.5173 8.64987L50.5173 8.64997L50.5175 8.65063L51.1072 11.3569L52.3809 8.89774L52.381 8.89768L52.3813 8.89695L52.3817 8.89635L52.382 8.89561L52.3844 8.89116C52.3883 8.88402 52.3951 8.87139 52.405 8.85369C52.4248 8.81826 52.4565 8.76265 52.5003 8.6902C52.5879 8.54511 52.7229 8.33373 52.9049 8.08251C53.2707 7.57753 53.8163 6.92569 54.5368 6.32758C55.9606 5.14557 58.0376 4.18569 60.8489 4.94562C63.4724 5.65481 64.5172 7.91848 64.8662 10.3419C65.038 11.5347 65.0248 12.6899 64.9662 13.5544C64.937 13.9844 64.897 14.337 64.8648 14.5794C64.8486 14.7005 64.8345 14.7937 64.8247 14.855C64.8198 14.8856 64.816 14.9082 64.8136 14.9223L64.8111 14.9369L64.8108 14.9383ZM2.49509 26.4073C2.49568 26.4081 2.49543 26.4078 2.49442 26.4064L2.49509 26.4073Z" fill="white" stroke="black" stroke-width="2"/>
</svg>
