<svg width="76" height="26" viewBox="0 0 76 26" fill="none" xmlns="http://www.w3.org/2000/svg">
<path d="M63.4122 14.3735L63.4121 14.3741L63.4121 14.3745L63.412 14.3746L63.0546 16.2701L64.806 15.4704L64.8072 15.4699L64.8085 15.4693L64.8092 15.469C64.8138 15.467 64.8232 15.463 64.8374 15.4572C64.8656 15.4455 64.9125 15.4269 64.9763 15.4036C65.1043 15.3569 65.2995 15.2922 65.5499 15.2279C66.0526 15.099 66.7659 14.9753 67.5986 14.998C69.2323 15.0425 71.3897 15.6481 73.3863 18.0572C75.2659 20.3252 75.1477 21.9157 74.7792 22.8684C74.5784 23.3878 74.2725 23.7955 74.0094 24.0766C73.9311 24.1603 73.8582 24.2311 73.7954 24.2885L1.50736 24.9945C1.47332 24.9271 1.43757 24.8519 1.40149 24.7692C1.2096 24.3299 1.01332 23.6937 1.00065 22.9149C0.976254 21.4153 1.63185 19.1312 4.97527 16.5412C5.42105 16.1958 6.08628 15.977 6.93786 15.8916C7.77827 15.8073 8.71032 15.8618 9.60133 15.9824C10.4873 16.1023 11.3012 16.2831 11.8955 16.4349C12.1916 16.5105 12.4308 16.5782 12.5942 16.6266C12.6759 16.6507 12.7385 16.6699 12.7797 16.6828L12.825 16.6972L12.8351 16.7004L12.8364 16.7008L12.8367 16.7009L12.8368 16.701L12.8369 16.701L14.6319 17.2898L14.1097 15.4762L14.1095 15.4758L14.1095 15.4758L14.1094 15.4754L14.1092 15.4747L14.1072 15.4671C14.1046 15.4578 14.1003 15.4417 14.0946 15.419C14.0831 15.3736 14.0659 15.3024 14.0458 15.2084C14.0055 15.02 13.9537 14.7418 13.912 14.3978C13.8282 13.7054 13.7883 12.7693 13.9519 11.771C14.2708 9.82419 15.3543 7.60896 18.6099 6.44294C21.9716 5.23894 24.8749 5.83615 26.9636 6.74591C28.0113 7.20223 28.8477 7.73535 29.4198 8.15274C29.7052 8.36095 29.9229 8.53893 30.0662 8.66189C30.1377 8.72332 30.1906 8.77087 30.2238 8.80141C30.2404 8.81667 30.2521 8.82767 30.2588 8.83401L30.2637 8.83863L30.2643 8.83921L30.2648 8.83967L30.2651 8.83997L30.2653 8.84023L31.465 10.0119L31.9238 8.39837L31.924 8.39797L31.9241 8.39748L31.9243 8.3969L31.9243 8.39679L31.9278 8.38501C31.9313 8.37317 31.9373 8.35362 31.9457 8.32689C31.9625 8.2734 31.9891 8.19128 32.0263 8.08476C32.1007 7.87151 32.2166 7.56177 32.3788 7.1891C32.7047 6.44058 33.2103 5.45488 33.9298 4.49028C35.3664 2.5643 37.5779 0.807467 40.9049 1.01718C44.3049 1.23151 46.3724 3.03332 47.6213 4.82243C48.2504 5.72357 48.6655 6.61573 48.9228 7.28355C49.0509 7.61623 49.1386 7.88977 49.1933 8.07621C49.2206 8.16933 49.2397 8.24041 49.2513 8.28593C49.2572 8.30868 49.2612 8.32501 49.2634 8.33447L49.2652 8.3418L49.2654 8.3426L49.2655 8.34323L49.2656 8.34346L49.2657 8.34398L49.8552 10.976L51.1225 8.59547L51.1225 8.59538L51.123 8.59455L51.1233 8.59393L51.1237 8.59319L51.1258 8.5895C51.1294 8.58284 51.1361 8.57088 51.1458 8.55405C51.1651 8.52036 51.1963 8.46724 51.2393 8.39792C51.3255 8.25908 51.4585 8.05644 51.6379 7.81544C51.9986 7.33107 52.5371 6.70503 53.2487 6.13025C54.6546 4.99471 56.714 4.06621 59.5039 4.79997C62.1011 5.48301 63.1242 7.65435 63.4667 9.96803C63.6358 11.1108 63.6229 12.2184 63.5651 13.048C63.5363 13.4605 63.4969 13.7986 63.4651 14.0309C63.4493 14.1469 63.4354 14.2362 63.4258 14.2947C63.421 14.3239 63.4172 14.3454 63.4149 14.3587L63.4124 14.3725L63.4122 14.3735ZM1.74413 25.3969C1.7448 25.3978 1.74464 25.3976 1.74372 25.3963L1.74413 25.3969Z" fill="white" stroke="black" stroke-width="2"/>
</svg>
