<svg width="95" height="33" viewBox="0 0 95 33" fill="none" xmlns="http://www.w3.org/2000/svg">
<path d="M2.19281 32.4028C2.19252 32.4024 2.19174 32.4013 2.19049 32.3995L2.19069 32.3999L2.19182 32.4014L2.19281 32.4028ZM2.19281 32.4028C2.19293 32.4029 2.19296 32.403 2.1929 32.4029L2.19281 32.4028ZM79.4977 18.2964L79.4976 18.297L79.4976 18.297L79.4976 18.2972L79.1447 20.2025L80.8992 19.3869L80.8997 19.3867L80.9008 19.3861L80.9016 19.3858L80.9025 19.3853L80.9052 19.3842C80.9122 19.3811 80.9254 19.3753 80.9445 19.3673C80.9825 19.3514 81.044 19.3265 81.1268 19.2957C81.2927 19.2341 81.5434 19.1495 81.8637 19.0659C82.5062 18.8981 83.417 18.7373 84.4806 18.7668C86.5742 18.8249 89.332 19.6181 91.8732 22.7401C94.2674 25.6817 94.1548 27.8073 93.6531 29.1281C93.3867 29.8294 92.9831 30.3756 92.6396 30.7493C92.5069 30.8938 92.3856 31.0097 92.289 31.096L1.94651 31.9944C1.88124 31.8719 1.8084 31.7237 1.73463 31.5517C1.48431 30.9681 1.22831 30.1234 1.21178 29.089C1.17963 27.0762 2.05328 24.1013 6.26868 20.7763C6.87505 20.298 7.75412 20.0125 8.83637 19.902C9.90811 19.7925 11.0892 19.8638 12.2099 20.0182C13.3256 20.172 14.3491 20.4036 15.0957 20.5977C15.468 20.6945 15.769 20.7813 15.9751 20.8433C16.0782 20.8744 16.1574 20.8991 16.2098 20.9158L16.2679 20.9345L16.2812 20.9389L16.2835 20.9397L16.2837 20.9397L16.2839 20.9398L16.284 20.9398L18.0772 21.5388L17.5631 19.7209L17.563 19.7204L17.5628 19.7198L17.5627 19.7194L17.5626 19.719L17.5591 19.7061C17.5579 19.7015 17.5564 19.6958 17.5546 19.6891C17.5514 19.6765 17.5472 19.6602 17.5423 19.6405C17.5272 19.5797 17.505 19.4859 17.4791 19.3629C17.4273 19.1166 17.3612 18.755 17.3082 18.3086C17.2015 17.4116 17.1502 16.1949 17.3595 14.8938C17.7708 12.3373 19.177 9.43706 23.331 7.92215C27.5902 6.36889 31.2709 7.1403 33.9142 8.31261C35.2394 8.90033 36.2974 9.58691 37.0219 10.1251C37.3835 10.3937 37.66 10.6238 37.8431 10.7838C37.9345 10.8637 38.0025 10.926 38.046 10.9666C38.0677 10.9869 38.0832 11.0018 38.0925 11.0108L38.1013 11.0193L38.1017 11.0197L38.1019 11.0199L38.1023 11.0203L38.1027 11.0207L39.3108 12.2222L39.7693 10.5804L39.7693 10.5803L39.7694 10.5799L39.7696 10.5793L39.7701 10.5776L39.775 10.5607C39.7798 10.5444 39.7876 10.5184 39.7984 10.4831C39.8202 10.4126 39.8543 10.3056 39.9016 10.1675C39.9963 9.89108 40.1433 9.49135 40.3486 9.01112C40.7606 8.04745 41.4005 6.77668 42.3129 5.5313C44.1367 3.04166 46.964 0.749462 51.2143 1.02227C55.5397 1.29989 58.1789 3.63958 59.7696 5.95973C60.5689 7.12573 61.0959 8.27904 61.4224 9.1421C61.5852 9.57236 61.6969 9.92694 61.767 10.1701C61.802 10.2916 61.8265 10.3849 61.8418 10.4457C61.8495 10.476 61.8548 10.4982 61.858 10.5117L61.8611 10.5251L61.8611 10.5252L61.8613 10.5259L61.8614 10.5264L61.8615 10.5269L62.4512 13.2078L63.7229 10.7755L63.7233 10.7749L63.7234 10.7747L63.7236 10.7744L63.7239 10.7736L63.7284 10.7653C63.7337 10.7556 63.7427 10.7391 63.7555 10.7164C63.781 10.6711 63.8215 10.6009 63.8769 10.51C63.9878 10.3281 64.1578 10.0645 64.3864 9.75187C64.8456 9.12404 65.5313 8.31205 66.4389 7.56567C68.2368 6.08706 70.8781 4.87621 74.4426 5.83074C77.8176 6.7345 79.1329 9.62064 79.5674 12.6097C79.7822 14.087 79.7654 15.5149 79.6924 16.5809C79.6561 17.1117 79.6062 17.5472 79.5659 17.8473C79.5458 17.9973 79.5281 18.1131 79.5157 18.1897C79.5096 18.228 79.5047 18.2564 79.5016 18.2744L79.4982 18.2935L79.4977 18.2964Z" fill="white" stroke="black" stroke-width="2"/>
</svg>
