<svg width="156" height="55" viewBox="0 0 156 55" fill="none" xmlns="http://www.w3.org/2000/svg">
<path d="M130.956 30.359L130.956 30.3595L130.604 32.2681L132.36 31.4471L132.361 31.4468L132.362 31.4465L132.362 31.4462L132.363 31.4461L132.378 31.4394C132.393 31.4326 132.418 31.4214 132.454 31.4065C132.524 31.3768 132.633 31.3323 132.778 31.2782C133.069 31.1698 133.501 31.0233 134.05 30.879C135.151 30.59 136.71 30.3133 138.531 30.3641C142.139 30.4648 146.855 31.8489 151.162 37.1694C155.221 42.1843 155.11 45.9409 154.191 48.3746C153.716 49.6318 153 50.6039 152.396 51.2643C152.096 51.5932 151.827 51.8403 151.638 52.0022C151.621 52.0169 151.604 52.0308 151.588 52.044L2.47977 53.5349C2.32553 53.2732 2.12115 52.8921 1.91369 52.4058C1.47641 51.3808 1.03028 49.8999 1.00147 48.087C0.944748 44.5168 2.50594 39.4188 9.5605 33.8237C10.691 32.9271 12.2721 32.4324 14.1127 32.2434C15.943 32.0554 17.9392 32.179 19.8098 32.4382C21.6752 32.6967 23.3831 33.0854 24.6267 33.4105C25.2474 33.5728 25.7499 33.7185 26.0956 33.8231C26.2683 33.8754 26.4017 33.9174 26.4909 33.9459C26.5355 33.9602 26.569 33.9711 26.5908 33.9783L26.6148 33.9862L26.62 33.9879L26.6207 33.9882L26.621 33.9882L26.621 33.9883L28.4139 34.5904L27.902 32.7705L27.9019 32.7702L27.9017 32.7694L27.9006 32.7652L27.8934 32.7383C27.8867 32.713 27.8763 32.673 27.863 32.6192C27.8364 32.5116 27.7981 32.3488 27.7539 32.1373C27.6653 31.7138 27.5533 31.0967 27.4634 30.3369C27.2833 28.8133 27.1952 26.7383 27.5515 24.511C28.2572 20.1009 30.6934 15.0792 37.7834 12.4794C44.9782 9.84113 51.2029 11.1549 55.6568 13.141C57.8874 14.1358 59.6674 15.2972 60.8876 16.2086C61.497 16.6637 61.9647 17.055 62.2771 17.3295C62.4332 17.4667 62.5503 17.5745 62.6268 17.6464C62.665 17.6824 62.693 17.7093 62.7106 17.7264L62.7292 17.7445L62.732 17.7473L62.7325 17.7478L62.7326 17.7479L62.7328 17.7481L63.9439 18.9592L64.4024 17.3086L64.4025 17.3084L64.4026 17.3078L64.4027 17.3076L64.4046 17.301L64.4138 17.2688C64.4225 17.2391 64.4362 17.1931 64.455 17.1318C64.4926 17.0093 64.5508 16.8261 64.6308 16.5911C64.7909 16.121 65.0382 15.445 65.3828 14.6346C66.0734 13.0104 67.148 10.8633 68.6848 8.75393C71.7581 4.5357 76.5921 0.568121 83.8747 1.03812C91.2329 1.51301 95.7323 5.52885 98.4254 9.47867C99.7758 11.4593 100.664 13.415 101.214 14.8768C101.489 15.6065 101.678 16.2095 101.797 16.6263C101.857 16.8346 101.899 16.9961 101.926 17.1033C101.939 17.1569 101.949 17.1968 101.955 17.2222L101.961 17.2493L101.962 17.2539L101.962 17.2545L101.962 17.2546L101.962 17.2549L102.552 19.9516L103.826 17.5026L103.826 17.5025L103.826 17.5022L103.826 17.5015L103.828 17.4991L103.838 17.4791C103.849 17.46 103.865 17.4298 103.888 17.3892C103.933 17.308 104.004 17.1854 104.099 17.0284C104.289 16.7142 104.579 16.2632 104.967 15.7299C105.744 14.6608 106.907 13.275 108.451 11.9982C111.522 9.45873 116.071 7.36126 122.179 9.00581C128.098 10.5996 130.346 15.7052 131.074 20.7459C131.436 23.2481 131.407 25.6575 131.285 27.4489C131.224 28.3423 131.141 29.0764 131.073 29.5846C131.039 29.8385 131.009 30.0356 130.988 30.1676C130.977 30.2335 130.969 30.2832 130.963 30.3154L130.957 30.3507L130.956 30.3583L130.956 30.359Z" fill="white" stroke="black" stroke-width="2"/>
</svg>
