<svg width="157" height="48" viewBox="0 0 157 48" fill="none" xmlns="http://www.w3.org/2000/svg">
<path d="M131.329 26.1114L131.329 26.112L131.329 26.1122L130.935 27.9498L132.678 27.2496L132.678 27.2495L132.679 27.2492L132.679 27.2489L132.68 27.2487L132.696 27.2425C132.712 27.2365 132.738 27.2267 132.774 27.2137C132.845 27.1877 132.956 27.1489 133.103 27.1018C133.397 27.0075 133.834 26.8802 134.389 26.7549C135.502 26.5039 137.078 26.2632 138.921 26.3074C142.589 26.3954 147.331 27.6084 151.634 32.1777C153.678 34.3475 154.633 36.214 154.983 37.7536C155.33 39.2806 155.099 40.5569 154.643 41.5937C154.181 42.6452 153.479 43.4681 152.876 44.0349C152.577 44.3162 152.309 44.528 152.12 44.6672C152.096 44.6844 152.074 44.7005 152.053 44.7154L2.44077 46.0012C2.2904 45.781 2.09282 45.4632 1.89238 45.0594C1.46326 44.1948 1.02944 42.9536 1.00143 41.4389C0.946753 38.4811 2.44291 34.1309 9.52724 29.3019C10.6677 28.5245 12.2718 28.0923 14.1375 27.9276C15.9883 27.7643 18.0025 27.8719 19.8843 28.0961C21.7618 28.3197 23.4796 28.6557 24.7297 28.9366C25.3538 29.0768 25.8592 29.2028 26.207 29.2933C26.3809 29.3385 26.5152 29.3748 26.6051 29.3996C26.6501 29.4119 26.684 29.4214 26.7061 29.4277L26.7305 29.4346L26.7359 29.4361L26.7368 29.4364L26.737 29.4364L26.737 29.4364L28.5522 29.9604L27.965 28.1661L27.965 28.166L27.9648 28.1654L27.9645 28.1646L27.964 28.1628L27.9574 28.1416C27.9511 28.1211 27.9411 28.0881 27.9282 28.0432C27.9023 27.9534 27.8648 27.8163 27.8213 27.6374C27.7341 27.2793 27.6235 26.7558 27.5348 26.1107C27.3567 24.8161 27.2702 23.057 27.6212 21.1716C27.971 19.2925 28.7531 17.2967 30.3093 15.4949C31.8637 13.6951 34.2348 12.0374 37.844 10.8999C45.0986 8.61364 51.3796 9.75412 55.8624 11.4722C58.1057 12.332 59.8936 13.335 61.117 14.1203C61.7283 14.5127 62.1971 14.8498 62.5098 15.0859C62.6661 15.204 62.7833 15.2967 62.8596 15.3584C62.8977 15.3893 62.9257 15.4123 62.9431 15.4269L62.9615 15.4423L62.964 15.4444L62.9646 15.4449L62.9647 15.4451L62.9649 15.4452L64.1048 16.4249L64.567 14.9946L64.5671 14.9942L64.5674 14.9936L64.5688 14.9893L64.5775 14.9632C64.5859 14.9387 64.5992 14.9001 64.6176 14.8485C64.6545 14.7452 64.712 14.5896 64.7913 14.3896C64.9499 13.9893 65.1955 13.412 65.5384 12.719C66.2254 11.3304 67.2959 9.4916 68.8285 7.68368C71.8826 4.08092 76.7413 0.623977 84.1175 1.03311C91.5554 1.44567 96.0695 4.93306 98.7446 8.30515C100.09 10.0006 100.973 11.6725 101.519 12.9191C101.791 13.5414 101.978 14.0549 102.096 14.4083C102.155 14.5849 102.196 14.7212 102.223 14.8108C102.236 14.8556 102.245 14.8887 102.25 14.9093L102.256 14.9307L102.257 14.9327L102.257 14.9335L102.257 14.9341L102.257 14.9342L102.846 17.2463L104.081 15.2051L104.081 15.2049L104.081 15.2044L104.081 15.2037L104.082 15.2027L104.092 15.1867C104.102 15.1711 104.118 15.1458 104.14 15.1116C104.185 15.0432 104.254 14.9392 104.348 14.8055C104.537 14.538 104.825 14.1524 105.211 13.6958C105.985 12.781 107.147 11.5905 108.694 10.4916C111.769 8.30566 116.37 6.47238 122.555 7.90368C125.592 8.60649 127.614 10.0686 128.975 11.841C130.349 13.6311 131.087 15.7906 131.446 17.9224C131.804 20.0519 131.776 22.1059 131.654 23.6363C131.594 24.399 131.511 25.0253 131.444 25.4579C131.41 25.6741 131.381 25.8415 131.36 25.9529C131.357 25.9666 131.355 25.9795 131.353 25.9915C131.346 26.0282 131.34 26.0568 131.336 26.077L131.33 26.1057L131.329 26.1114Z" fill="white" stroke="black" stroke-width="2"/>
</svg>
