<svg width="104" height="41" viewBox="0 0 104 41" fill="none" xmlns="http://www.w3.org/2000/svg">
<path d="M17.0706 30.4187L18.9027 29.738C18.9056 29.7376 18.9056 29.7377 18.9056 29.7377L18.9055 29.737L18.9049 29.7332L18.9011 29.7078C18.8976 29.6837 18.8923 29.6456 18.8857 29.5943C18.8724 29.4917 18.8541 29.3364 18.8354 29.1348C18.7978 28.7313 18.7586 28.1442 18.754 27.4249C18.7449 25.9825 18.8756 24.0297 19.4269 21.9685C20.5199 17.8817 23.2514 13.3737 29.9531 11.4977C34.0054 10.3634 37.439 11.2851 39.8866 12.5083C41.1124 13.1208 42.0829 13.8058 42.7446 14.3357C43.0749 14.6003 43.3264 14.8247 43.4925 14.98C43.5755 15.0576 43.637 15.1178 43.6762 15.1569C43.6957 15.1765 43.7097 15.1908 43.718 15.1993L43.7256 15.2072L43.7262 15.2077L43.7262 15.2077L43.7266 15.2081L43.727 15.2086L45.6679 17.2654L45.4501 14.4455L45.4501 14.4453L45.45 14.4447L45.45 14.4438L45.4499 14.442L45.4485 14.42C45.4472 14.3986 45.4454 14.3642 45.4435 14.3176C45.4397 14.2243 45.4359 14.0825 45.4363 13.899C45.437 13.5317 45.4549 13 45.524 12.3593C45.663 11.0727 46.0059 9.37561 46.8113 7.69205C47.6131 6.01619 48.8696 4.35919 50.8469 3.11541C52.8243 1.87153 55.5875 1.00004 59.4685 1C62.794 0.999964 65.2223 1.85701 67.0122 3.09192C68.81 4.33233 70.0241 5.99613 70.8451 7.69538C71.6675 9.39776 72.0838 11.1127 72.2928 12.4109C72.397 13.0576 72.4487 13.5944 72.4743 13.9657C72.4871 14.1513 72.4934 14.295 72.4964 14.3899C72.498 14.4374 72.4987 14.4726 72.499 14.4948L72.4993 14.518L72.4994 14.5208V14.5216V14.522V14.5221V16.654L74.1377 15.2906L74.138 15.2904L74.1384 15.29L74.139 15.2895L74.1393 15.2893L74.1514 15.2794C74.1634 15.2698 74.1831 15.254 74.2102 15.2329C74.2645 15.1905 74.3484 15.1265 74.4598 15.0457C74.6828 14.884 75.0146 14.6562 75.4377 14.4017C76.2871 13.8908 77.4874 13.2828 78.9015 12.8796C81.6981 12.0821 85.3144 12.0776 88.828 15.2618C91.5673 17.7444 92.1894 20.7689 92.1175 23.2342C92.0814 24.4709 91.8695 25.5534 91.666 26.3266C91.5645 26.712 91.466 27.0173 91.3943 27.2226C91.3585 27.3252 91.3295 27.4025 91.3103 27.4521C91.3008 27.4769 91.2936 27.4948 91.2894 27.5054L91.2855 27.5149L91.2852 27.5157L91.2852 27.5157L91.285 27.5162L91.2847 27.5167L90.4962 29.3909L92.4624 28.8697L92.4626 28.8696L92.463 28.8695L92.4634 28.8694L92.4638 28.8693L92.474 28.8667C92.484 28.8641 92.5002 28.8601 92.5225 28.8546C92.567 28.8438 92.6353 28.8276 92.7246 28.808C92.9034 28.7686 93.1655 28.7154 93.489 28.6626C94.139 28.5563 95.0211 28.4541 95.965 28.4632C97.9263 28.482 99.7919 28.9713 100.716 30.4309C102.544 33.3162 102.993 35.9039 103 37.7477C103.003 38.6735 102.895 39.4168 102.789 39.9202C102.784 39.9475 102.778 39.9741 102.772 40H1.03916C1.02806 39.8487 1.01817 39.6793 1.01111 39.4942C0.978574 38.6414 1.0065 37.4666 1.24525 36.1767C1.72222 33.5998 3.0204 30.6376 6.30079 28.772C10.0395 26.6458 12.7043 27.155 14.4171 28.0634C15.3035 28.5335 15.9753 29.1335 16.4264 29.6198C16.6508 29.8617 16.8171 30.0717 16.9246 30.217C16.9783 30.2896 17.017 30.3456 17.0408 30.3809C17.0454 30.3878 17.0495 30.3939 17.053 30.3992C17.0584 30.4074 17.0624 30.4137 17.0651 30.4178L17.0677 30.4218L17.0672 30.4211C17.0672 30.421 17.0671 30.4209 17.0706 30.4187Z" fill="white" stroke="black" stroke-width="2"/>
</svg>
