<svg width="42" height="42" viewBox="0 0 42 42" fill="none" xmlns="http://www.w3.org/2000/svg">
<path d="M19.6382 5.56817C20.1729 4.47682 20.6287 3.46407 20.9886 2.62727C21.3576 3.46494 21.8249 4.47979 22.3721 5.57374C23.7954 8.41921 25.8122 11.909 28.101 14.1649C30.3288 16.3608 33.7395 18.2995 36.5157 19.6688C37.6314 20.2192 38.6618 20.6857 39.4983 21.0481C38.6582 21.4698 37.6159 22.0124 36.4847 22.6457C33.7152 24.196 30.3212 26.3392 28.0883 28.6206C25.9578 30.7974 23.9475 34.0573 22.4909 36.7104C21.8955 37.7951 21.3848 38.7928 20.9878 39.5962C20.6004 38.7934 20.1019 37.7975 19.5197 36.7153C18.0919 34.0611 16.114 30.7986 13.9973 28.6228C11.7529 26.3156 8.32228 24.1712 5.52188 22.6262C4.38893 22.0012 3.34361 21.4659 2.4976 21.0488C3.33969 20.6907 4.37291 20.2308 5.49027 19.6879C8.29699 18.324 11.7444 16.3844 13.9847 14.1628C16.2596 11.9069 18.2437 8.41446 19.6382 5.56817Z" fill="#FFF5C2" stroke="black" stroke-width="2"/>
</svg>
