<svg width="38" height="38" viewBox="0 0 38 38" fill="none" xmlns="http://www.w3.org/2000/svg">
<path d="M17.8099 5.34754C18.2309 4.48829 18.5965 3.68423 18.8962 2.99614C19.2035 3.68537 19.5784 4.49155 20.0095 5.35332C21.2657 7.86472 23.0515 10.9575 25.0847 12.9616C27.0638 14.9123 30.0865 16.6289 32.5367 17.8375C33.4225 18.2744 34.2473 18.6515 34.9418 18.9559C34.2419 19.3105 33.4049 19.7497 32.504 20.254C30.0598 21.6223 27.0539 23.5192 25.0721 25.544C23.1812 27.476 21.4018 30.3631 20.1164 32.7046C19.6423 33.5681 19.2291 34.3692 18.8955 35.0385C18.5698 34.37 18.1666 33.5709 17.7034 32.7098C16.4433 30.3673 14.6925 27.4776 12.8136 25.5462C10.8212 23.4982 7.78257 21.6001 5.31109 20.2365C4.41021 19.7395 3.57209 19.3068 2.86859 18.9566C3.56635 18.6563 4.39213 18.285 5.27779 17.8546C7.75502 16.6508 10.8105 14.9333 12.8009 12.9594C14.8222 10.9551 16.5791 7.85969 17.8099 5.34754Z" fill="#FFF5C2" stroke="black" stroke-width="2"/>
</svg>
