<svg width="114" height="41" viewBox="0 0 114 41" fill="none" xmlns="http://www.w3.org/2000/svg">
<path d="M18.8161 30.4537L20.623 29.7233C20.626 29.7228 20.626 29.7229 20.6261 29.723L20.6259 29.7221L20.6254 29.719L20.6213 29.6943C20.6176 29.6707 20.6118 29.6331 20.6046 29.5823C20.5903 29.4806 20.5703 29.3264 20.5499 29.126C20.5089 28.7248 20.4661 28.1405 20.4611 27.4243C20.4512 25.9882 20.5938 24.0439 21.1955 21.9914C22.3839 17.9381 25.3704 13.3971 32.7852 11.5036C37.2821 10.3553 41.0926 11.2907 43.7971 12.5236C45.1508 13.1408 46.2212 13.8302 46.95 14.3627C47.3138 14.6285 47.591 14.8542 47.7741 15.0104C47.8657 15.0885 47.9336 15.1491 47.9769 15.1886C47.9986 15.2083 48.0141 15.2227 48.0234 15.2314L48.0322 15.2398L48.0325 15.2401L48.0328 15.2403L48.0332 15.2407L48.0336 15.2411L49.9486 17.0925L49.7239 14.4386L49.7238 14.4382L49.7238 14.4375L49.7237 14.4365L49.7236 14.4355L49.7222 14.4143C49.7208 14.3935 49.7188 14.3597 49.7168 14.3137C49.7127 14.2217 49.7085 14.0812 49.709 13.8992C49.7098 13.5348 49.7292 13.0065 49.8046 12.3695C49.9559 11.0909 50.3296 9.40219 51.2092 7.72491C52.084 6.05675 53.4627 4.39153 55.65 3.13628C57.8416 1.87862 60.902 1.00004 65.1866 1C68.868 0.999964 71.562 1.8667 73.5455 3.11513C75.5325 4.36579 76.8642 6.03613 77.7604 7.72837C78.6592 9.42564 79.1135 11.134 79.3415 12.4258C79.4551 13.0694 79.5115 13.6034 79.5394 13.9723C79.5533 14.1566 79.5602 14.2992 79.5635 14.393C79.5651 14.44 79.5659 14.4747 79.5663 14.4963L79.5666 14.5187L79.5666 14.5208V14.5217V14.5222V14.5224V16.5355L81.17 15.3182L81.1702 15.3181L81.1706 15.3178L81.1713 15.3173L81.1721 15.3167L81.1859 15.3065C81.1993 15.2966 81.2213 15.2806 81.2514 15.2592C81.3116 15.2163 81.4045 15.1516 81.5276 15.0701C81.774 14.9071 82.1403 14.6777 82.6074 14.4214C83.5442 13.9074 84.8718 13.2935 86.4393 12.8857C89.5555 12.075 93.5827 12.0793 97.468 15.2915C100.481 17.7827 101.149 20.7966 101.071 23.2314C101.032 24.459 100.801 25.5346 100.579 26.3039C100.469 26.6872 100.361 26.9908 100.283 27.1948C100.244 27.2967 100.213 27.3735 100.192 27.4226C100.181 27.4471 100.174 27.4647 100.169 27.475L100.165 27.484L100.165 27.4847L100.165 27.4851L100.165 27.4853L100.164 27.4859L99.2997 29.3605L101.308 28.8749L101.308 28.8749L101.308 28.8748L101.31 28.8745L101.322 28.8717C101.333 28.869 101.351 28.8648 101.376 28.8592C101.426 28.8481 101.502 28.8317 101.602 28.8118C101.8 28.7719 102.091 28.7181 102.449 28.6647C103.168 28.5575 104.146 28.454 105.194 28.4632C107.379 28.4823 109.477 28.9848 110.505 30.4662C112.506 33.3479 112.992 35.923 113 37.7481C113.004 38.6661 112.886 39.4029 112.771 39.9014C112.763 39.9354 112.756 39.9683 112.748 40H1.04321C1.0309 39.848 1.01991 39.6774 1.0121 39.4905C0.976659 38.643 1.00709 37.4754 1.26718 36.1935C1.78411 33.6457 3.19555 30.6736 6.82527 28.7904C10.9679 26.6412 13.9549 27.148 15.8814 28.0801C16.8685 28.5577 17.6122 29.1648 18.1083 29.6527C18.3555 29.8958 18.5384 30.1066 18.6565 30.2522C18.7155 30.3248 18.758 30.3809 18.784 30.4163C18.797 30.4339 18.8059 30.4464 18.8106 30.453L18.8134 30.457L18.8128 30.4562C18.8128 30.4561 18.8127 30.456 18.8161 30.4537Z" fill="white" stroke="black" stroke-width="2"/>
</svg>
