<svg width="86" height="33" viewBox="0 0 86 33" fill="none" xmlns="http://www.w3.org/2000/svg">
<path d="M71.7206 18.3142L71.7206 18.3145L71.7205 18.3146L71.7205 18.3149L71.3925 20.2833L73.1618 19.3691C73.1618 19.3691 73.1627 19.3687 73.1629 19.3686C73.1631 19.3685 73.1637 19.3682 73.1642 19.3679C73.1645 19.3677 73.1646 19.3677 73.1651 19.3675C73.1655 19.3672 73.1654 19.3674 73.166 19.3671C73.1715 19.3644 73.1824 19.3591 73.1986 19.3515C73.2309 19.3364 73.2841 19.3124 73.3564 19.2826C73.5011 19.2229 73.721 19.1404 74.0025 19.0587C74.5676 18.8947 75.3672 18.7379 76.2997 18.7667C78.1179 18.8228 80.5661 19.584 82.8478 22.6997C85.0025 25.642 84.9178 27.8 84.4531 29.1598C84.2103 29.8702 83.8445 30.4183 83.5382 30.7888C83.4352 30.9133 83.3403 31.0162 83.261 31.0968L2.13707 31.9934C2.08276 31.8779 2.02338 31.7415 1.96329 31.5858C1.73608 30.9971 1.5022 30.141 1.4871 29.0906C1.45755 27.0349 2.26375 24.0525 6.03863 20.7431C6.56234 20.284 7.32071 20.0083 8.26819 19.9008C9.20979 19.7939 10.2543 19.863 11.2535 20.0161C12.2472 20.1683 13.1602 20.3978 13.8273 20.5905C14.1597 20.6866 14.4282 20.7727 14.6118 20.8341C14.7035 20.8648 14.7739 20.8893 14.8202 20.9057L14.8713 20.9239L14.8826 20.9281L14.8842 20.9287L14.8846 20.9288L14.8847 20.9288L14.8847 20.9289L16.6715 21.5921L16.2017 19.7462L16.2017 19.7458L16.2015 19.7453L16.2013 19.7446L16.2013 19.7443L16.1979 19.7304C16.1946 19.7168 16.1894 19.6943 16.1825 19.6634C16.1687 19.6018 16.1485 19.5069 16.125 19.3828C16.078 19.1343 16.0181 18.7699 15.97 18.3203C15.8734 17.4171 15.8267 16.1907 16.0166 14.8782C16.3934 12.2751 17.6771 9.40032 21.3553 7.90944C25.1276 6.38045 28.3817 7.13665 30.7325 8.29542C31.913 8.8773 32.8574 9.55815 33.5058 10.0935C33.8291 10.3604 34.0764 10.5892 34.2401 10.7481C34.3218 10.8275 34.3825 10.8893 34.4212 10.9296C34.432 10.9408 34.4411 10.9504 34.4485 10.9582C34.4543 10.9643 34.4589 10.9693 34.4625 10.9731L34.47 10.9812L34.4705 10.9818L34.4709 10.9822L34.4713 10.9826L35.7254 12.3688L36.1812 10.5549L36.1812 10.5549L36.1813 10.5546L36.1814 10.554L36.182 10.5518L36.1865 10.5344C36.1909 10.5178 36.198 10.4914 36.2079 10.4558C36.2277 10.3845 36.2586 10.2768 36.3014 10.138C36.387 9.86006 36.5198 9.45878 36.7051 8.97703C37.0771 8.0099 37.6541 6.73685 38.4755 5.49066C40.1283 2.98303 42.6394 0.756252 46.3617 1.02179C50.1711 1.29355 52.5238 3.58523 53.9635 5.91926C54.6836 7.08681 55.1592 8.2432 55.4545 9.11048C55.6016 9.54266 55.7026 9.89916 55.7662 10.1442C55.7979 10.2666 55.8202 10.3608 55.8342 10.4225C55.8412 10.4532 55.846 10.4759 55.849 10.4897L55.8519 10.5039L55.852 10.5044L55.8522 10.5051L55.8523 10.5056L55.8523 10.5059L56.4427 13.4891L57.7371 10.7377L57.7373 10.7372L57.7375 10.7368L57.7376 10.7366L57.7379 10.736L57.7422 10.7271C57.747 10.7172 57.7552 10.7006 57.7668 10.6777C57.79 10.632 57.8265 10.5615 57.8765 10.4704C57.9766 10.2879 58.1298 10.024 58.3356 9.71123C58.7492 9.08249 59.3647 8.27322 60.1762 7.53142C61.7843 6.0615 64.1008 4.89437 67.2216 5.82322C70.1799 6.70368 71.3857 9.55125 71.7839 12.5956C71.9783 14.0818 71.963 15.5172 71.8971 16.5877C71.8642 17.1209 71.8191 17.5586 71.7827 17.8605C71.7644 18.0113 71.7484 18.1279 71.7372 18.2053C71.7315 18.244 71.7271 18.2728 71.7243 18.2912L71.7212 18.3108L71.7206 18.3142ZM2.37868 32.4435C2.3785 32.4432 2.37776 32.4421 2.3765 32.4402L2.37671 32.4406L2.37773 32.4421L2.37868 32.4435Z" fill="white" stroke="black" stroke-width="2"/>
</svg>
