<svg xmlns="http://www.w3.org/2000/svg" width="79" height="79" fill="none" viewBox="0 0 79 79">
  <mask id="a" fill="#fff">
    <path fill-rule="evenodd" d="M39.5 79C61.315 79 79 61.315 79 39.5S61.315 0 39.5 0 0 17.685 0 39.5 17.685 79 39.5 79Zm.465-54.835 25.094 25.137-4.59 4.597-20.497-20.532-20.505 20.54-4.596-4.605 25.094-25.137Z" clip-rule="evenodd"/>
  </mask>
  <path fill="#fff" fill-opacity=".5" fill-rule="evenodd" d="M39.5 79C61.315 79 79 61.315 79 39.5S61.315 0 39.5 0 0 17.685 0 39.5 17.685 79 39.5 79Zm.465-54.835 25.094 25.137-4.59 4.597-20.497-20.532-20.505 20.54-4.596-4.605 25.094-25.137Z" clip-rule="evenodd"/>
  <path fill="#000" d="m65.059 49.302 1.415 1.413 1.41-1.413-1.41-1.413-1.415 1.413ZM39.965 24.165l1.415-1.413-1.415-1.418-1.416 1.418 1.416 1.413Zm20.504 29.734-1.415 1.413 1.415 1.418 1.416-1.418-1.416-1.413ZM39.972 33.367l1.416-1.413-1.416-1.418-1.415 1.417 1.415 1.414Zm-20.505 20.54-1.415 1.412 1.415 1.418 1.416-1.418-1.416-1.413Zm-4.596-4.605-1.416-1.413-1.41 1.413 1.41 1.413 1.416-1.413ZM77 39.5C77 60.21 60.21 77 39.5 77v4C62.42 81 81 62.42 81 39.5h-4ZM39.5 2C60.21 2 77 18.79 77 39.5h4C81 16.58 62.42-2 39.5-2v4ZM2 39.5C2 18.79 18.79 2 39.5 2v-4C16.58-2-2 16.58-2 39.5h4ZM39.5 77C18.79 77 2 60.21 2 39.5h-4C-2 62.42 16.58 81 39.5 81v-4Zm26.974-29.111L41.38 22.752l-2.83 2.826 25.093 25.137 2.831-2.826Zm-4.59 7.423 4.59-4.597-2.83-2.826-4.59 4.597 2.83 2.826ZM38.558 34.78l20.497 20.532 2.83-2.826-20.496-20.532-2.831 2.825ZM20.883 55.32l20.505-20.54-2.831-2.827-20.505 20.54 2.83 2.826Zm-7.428-4.605 4.597 4.604 2.83-2.826-4.596-4.604-2.83 2.826ZM38.55 22.752 13.455 47.889l2.831 2.826L41.38 25.578l-2.83-2.826Z" mask="url(#a)"/>
</svg>
